<svg id="Capa_1" enable-background="new 0 0 512 512" height="512" viewBox="0 0 512 512" width="512" xmlns="http://www.w3.org/2000/svg"><g><g><path d="m79.339 20.645c0-11.402 9.243-20.645 20.645-20.645h255.427l95.935 95.935v395.42c0 11.402-9.243 20.645-20.645 20.645h-330.717c-11.402 0-20.645-9.243-20.645-20.645z" fill="#e6e2e6"/><path d="m385.986 440.842c0 2.845-2.306 5.151-5.151 5.151h-301.496v18.581h301.486c2.85 0 5.161-2.311 5.161-5.161z" fill="#d8d1d7"/><path d="m380.835 445.994h-315.03c-2.845 0-5.151-2.306-5.151-5.151v-137.137c0-2.845 2.306-5.151 5.151-5.151h315.031c2.845 0 5.151 2.306 5.151 5.151v137.137c0 2.845-2.307 5.151-5.152 5.151z" fill="#ffc265"/><path d="m65.805 445.994h315.031c2.845 0 5.151-2.306 5.151-5.151v-13.429h-325.334v13.429c0 2.845 2.307 5.151 5.152 5.151z" fill="#ffb541"/><path d="m355.411 93.87c0 11.402 9.243 20.645 20.645 20.645h75.29v-18.58l-95.935-95.935z" fill="#d8d1d7"/><path d="m376.057 95.935h75.29l-95.936-95.935v75.29c0 11.402 9.244 20.645 20.646 20.645z" fill="#8c808a"/><path d="m291.16 238.18h-106.04c-5.438 0-9.846-4.408-9.846-9.846v-93.177c0-5.438 4.408-9.846 9.846-9.846h106.04c5.438 0 9.846 4.408 9.846 9.846v93.177c.001 5.438-4.408 9.846-9.846 9.846z" fill="#8c808a"/><path d="m291.16 219.599h-106.04c-5.438 0-9.846-4.408-9.846-9.846v18.581c0 5.438 4.408 9.846 9.846 9.846h106.04c5.438 0 9.846-4.408 9.846-9.846v-18.581c.001 5.438-4.408 9.846-9.846 9.846z" fill="#7b7179"/><path d="m338.829 143.578-37.823 25.992v24.351l37.823 25.992c7.024 4.827 16.582-.202 16.582-8.725v-58.886c0-8.522-9.557-13.551-16.582-8.724z" fill="#8c808a"/><path d="m338.829 201.333-37.823-25.992v18.581l37.823 25.992c7.024 4.827 16.582-.202 16.582-8.725v-18.581c0 8.523-9.557 13.552-16.582 8.725z" fill="#7b7179"/></g><g fill="#f7f5f7"><path d="m184.052 421.372c4.276 0 7.742-3.488 7.742-7.764v-78.441c0-3.393-2.21-6.391-5.452-7.395-3.242-1.006-6.759.22-8.678 3.02l-20.497 29.919-20.497-29.919c-1.917-2.8-5.436-4.026-8.677-3.02-3.242 1.004-5.452 4.002-5.452 7.395v78.485c0 4.276 3.466 7.72 7.742 7.72s7.742-3.488 7.742-7.764v-53.441l12.755 18.618c3.022 4.413 9.752 4.413 12.774 0l12.755-18.618v53.485c.002 4.276 3.467 7.72 7.743 7.72z"/><path d="m224.803 413.652v-25.912h6.602c16.66 0 30.214-13.554 30.214-30.215 0-16.66-13.553-30.215-30.214-30.215h-14.344c-4.276 0-7.742 3.466-7.742 7.742v44.946 33.654c0 4.276 3.466 7.742 7.742 7.742 4.277 0 7.742-3.466 7.742-7.742zm21.332-56.127c0 8.123-6.608 14.731-14.73 14.731h-6.602v-29.462h6.602c8.122 0 14.73 6.608 14.73 14.731z"/><path d="m304.008 327.573c-3.385-.903-6.96.58-8.709 3.619l-31.931 55.495c-2.919 5.074.875 11.603 6.711 11.603h24.189v15.363c0 4.276 3.466 7.742 7.742 7.742s7.742-3.466 7.742-7.742v-15.363h6.604c4.276 0 7.742-3.466 7.742-7.742s-3.466-7.742-7.742-7.742h-6.604v-47.753c0-3.507-2.357-6.575-5.744-7.48zm-9.74 55.233h-10.802l10.802-18.774z"/></g></g></svg>