<?xml version="1.0" encoding="iso-8859-1"?>
<!-- Generator: Adobe Illustrator 19.0.0, SVG Export Plug-In . SVG Version: 6.00 Build 0)  -->
<svg version="1.1" id="Layer_1" xmlns="http://www.w3.org/2000/svg" xmlns:xlink="http://www.w3.org/1999/xlink" x="0px" y="0px"
	 viewBox="0 0 481.882 481.882" style="enable-background:new 0 0 481.882 481.882;" xml:space="preserve">
<path style="fill:#2979FF;" d="M60.235,28.913C60.235,12.943,73.186,0,89.148,0h212.028l120.471,101.188v351.782
	c0,15.97-12.943,28.913-28.913,28.913H89.148c-15.962,0-28.913-12.943-28.913-28.913V28.913z"/>
<path style="fill:#2962FF;" d="M301.176,0v72.282c0,15.97,12.958,28.913,28.913,28.913h91.558"/>
<g>
	<path style="fill:#FFFFFF;" d="M128.617,259.298c0.896,10.842,1.807,20.028,1.498,36.894l-0.753,43.987h-21.391l5.873-104.38h25.6
		l11,65.528h0.602l10.692-65.528h25.6l5.88,104.38h-21.843l-1.205-44.424c-0.452-16.565,0.301-24.561,1.363-36.457h-0.602
		l-11,63.119h-18.824l-11.896-63.119H128.617z"/>
	<path style="fill:#FFFFFF;" d="M241.265,305.528h-11.309v34.65h-24.998V235.791h32.986c28.469,0,44.732,11.144,44.732,34.04
		C282.677,294.4,265.954,305.528,241.265,305.528z M238.253,253.576h-8.297v33.897h9.193c11.302,0,17.777-5.436,17.777-17.634
		C256.926,258.846,250.752,253.576,238.253,253.576z"/>
	<path style="fill:#FFFFFF;" d="M359.176,318.336v21.835h-23.499v-21.835h-42.925v-15.97l28.928-69.278l20.488,7.529l-24.561,59.648
		h18.071l2.703-24.998h20.796v24.998h10.398v18.071L359.176,318.336L359.176,318.336z"/>
</g>
<g>
</g>
<g>
</g>
<g>
</g>
<g>
</g>
<g>
</g>
<g>
</g>
<g>
</g>
<g>
</g>
<g>
</g>
<g>
</g>
<g>
</g>
<g>
</g>
<g>
</g>
<g>
</g>
<g>
</g>
</svg>
