<svg id="Capa_1" enable-background="new 0 0 510 510" height="512" viewBox="0 0 510 510" width="512" xmlns="http://www.w3.org/2000/svg" xmlns:xlink="http://www.w3.org/1999/xlink"><linearGradient id="lg1"><stop offset="0" stop-color="#f8f6f7"/><stop offset=".1788" stop-color="#f8f6f7"/><stop offset="1" stop-color="#e7e6f5"/></linearGradient><linearGradient id="SVGID_1_" gradientUnits="userSpaceOnUse" x1="41.628" x2="485.669" xlink:href="#lg1" y1="255" y2="255"/><linearGradient id="lg2"><stop offset="0" stop-color="#99e6fc"/><stop offset=".4296" stop-color="#01d0fb"/><stop offset=".5256" stop-color="#08c6f7"/><stop offset=".692" stop-color="#1da9eb"/><stop offset=".9074" stop-color="#3f7cd9"/><stop offset="1" stop-color="#4f66d0"/></linearGradient><linearGradient id="SVGID_2_" gradientUnits="userSpaceOnUse" x1="164.03" x2="345.97" xlink:href="#lg2" y1="207.465" y2="207.465"/><linearGradient id="SVGID_3_" gradientUnits="userSpaceOnUse" x1="-486" x2="770.97" y1="255" y2="255"><stop offset="0" stop-color="#f8f6f7"/><stop offset="1" stop-color="#d1ceeb"/></linearGradient><linearGradient id="SVGID_4_" gradientUnits="userSpaceOnUse" x1="329.613" x2="460.529" xlink:href="#lg1" y1="60.741" y2="60.741"/><linearGradient id="SVGID_5_" gradientUnits="userSpaceOnUse" x1="38.001" x2="540.051" xlink:href="#lg2" y1="367.822" y2="367.822"/><linearGradient id="SVGID_6_" gradientUnits="userSpaceOnUse" x1="188" x2="407.009" xlink:href="#lg2" y1="367.822" y2="367.822"/><g><g><path d="m75.103 493.024v-476.048c0-9.376 7.601-16.976 16.976-16.976h285.189c31.827 0 57.628 25.801 57.628 57.628v435.396c0 9.376-7.6 16.976-16.976 16.976h-325.841c-9.375 0-16.976-7.6-16.976-16.976z" fill="url(#SVGID_1_)"/><path d="m176.546 268.498c-.485 0-.976-.028-1.47-.086-6.854-.804-11.761-7.007-10.96-13.861.087-.751 2.21-18.62 7.696-37.915 8.284-29.137 19.601-45.888 34.6-51.211 10.105-3.585 16.965-.231 20.156 2.087 8.194 5.954 10.157 16.448 10.435 28.544.032 1.389 1.954 1.717 2.46.424 6.462-16.501 13.569-30.629 27.365-32.526 8.578-1.181 15.994 2.322 20.351 9.604 1.12 1.873 1.948 3.836 2.598 5.806 1.206 3.657 5.725 4.928 8.611 2.378 10.721-9.476 20.745-23.498 24.493-29.46 3.672-5.841 11.388-7.607 17.23-3.938 5.844 3.668 7.613 11.374 3.95 17.221-2.199 3.51-22.147 34.618-44.99 45.912-7.323 3.622-13.945 4.038-19.678 1.234-3.47-1.696-5.872-4.157-7.595-6.933-2.306-3.716-7.879-3.153-9.472.919-.939 2.4-1.795 4.671-2.504 6.554-3.025 8.028-5.883 15.61-9.274 21.711-5.991 10.777-13.495 15.63-22.316 14.422-5.106-.699-13.973-4.188-15.98-19.691-.778-6.009-.589-13.033-.389-20.469l.004-.15c.158-5.882-7.929-7.66-10.241-2.249-5.837 13.664-10.601 32.977-12.679 50.63-.749 6.36-6.15 11.043-12.401 11.043z" fill="url(#SVGID_2_)"/><path d="m377.269 0h-81.03v129.37c0 9.376 7.601 16.976 16.976 16.976h39.896c22.839 0 41.353 18.514 41.353 41.353v245.634h-319.361v31.174h302.2c9.478 0 17.162 7.684 17.162 17.162v11.355c0 9.376-7.6 16.976-16.976 16.976h40.432c9.376 0 16.976-7.6 16.976-16.976v-435.396c0-31.827-25.801-57.628-57.628-57.628z" fill="url(#SVGID_3_)"/><path d="m377.269 0h-56.166v104.505c0 9.376 7.6 16.976 16.976 16.976h96.817v-63.853c.001-31.827-25.8-57.628-57.627-57.628z" fill="url(#SVGID_4_)"/></g><path d="m451.749 439.643h-393.498c-11.183 0-20.249-9.066-20.249-20.249v-103.145c0-11.183 9.066-20.249 20.249-20.249h393.499c11.183 0 20.249 9.066 20.249 20.249v103.145c0 11.183-9.066 20.249-20.25 20.249z" fill="url(#SVGID_5_)"/><path d="m451.749 296h-40.432c11.183 0 20.25 9.066 20.25 20.249v103.145c0 11.183-9.066 20.249-20.25 20.249h40.432c11.183 0 20.249-9.066 20.249-20.249v-103.145c.001-11.183-9.065-20.249-20.249-20.249z" fill="url(#SVGID_6_)"/><g fill="#fff"><path d="m157.291 326.771c0-3.084 2.837-5.798 7.155-5.798h25.537c16.284 0 29.114 7.649 29.114 28.375v.617c0 20.726-13.323 28.621-30.349 28.621h-12.213v26.647c0 3.947-4.812 5.921-9.623 5.921s-9.622-1.974-9.622-5.921v-78.462zm19.245 10.98v26.03h12.213c6.909 0 11.104-3.948 11.104-12.337v-1.357c0-8.389-4.194-12.336-11.104-12.336z"/><path d="m264.497 386.975c0-14.927-39.107-12.336-39.107-41.205 0-18.505 16.161-25.537 31.582-25.537 6.539 0 24.55 1.234 24.55 10.856 0 3.331-2.22 10.116-7.648 10.116-4.441 0-6.785-4.688-16.901-4.688-8.759 0-12.337 3.578-12.337 7.402 0 12.337 39.107 9.993 39.107 41.082 0 17.765-12.953 27.388-30.842 27.388-16.161 0-29.731-7.896-29.731-16.038 0-4.194 3.701-10.363 8.39-10.363 5.798 0 9.499 9.129 20.972 9.129 5.673 0 11.965-2.221 11.965-8.142z"/><path d="m323.468 320.973c17.024 0 30.349 7.896 30.349 29.115v31.952c0 21.219-13.324 29.115-30.349 29.115h-21.836c-5.058 0-8.389-2.714-8.389-5.798v-78.585c0-3.084 3.331-5.798 8.389-5.798h21.836zm-10.98 16.778v56.625h10.979c6.908 0 11.104-3.948 11.104-12.337v-31.952c0-8.389-4.195-12.336-11.104-12.336z"/></g></g></svg>