<svg id="Capa_1" enable-background="new 0 0 510.367 510.367" height="512" viewBox="0 0 510.367 510.367" width="512" xmlns="http://www.w3.org/2000/svg"><g id="XMLID_713_"><path id="XMLID_1039_" d="m108.405 0-87.812 87.813v422.554h403.725v-510.367z" fill="#e6faff"/><path id="XMLID_1035_" d="m222.592 0h201.726v510.367h-201.726z" fill="#cfe7ff"/><path id="XMLID_1034_" d="m20.593 87.813h87.812v-87.813z" fill="#cfe7ff"/><g fill="#4a98f7"><path id="XMLID_790_" d="m274.307 395.926h-37.375v77.403h30.073v-17.545h7.302c21.59 0 35.54-11.748 35.54-29.929s-13.95-29.929-35.54-29.929zm-7.302 24.565h5.771c6.021 0 6.793 2.867 6.793 5.364s-.772 5.364-6.793 5.364h-5.771z"/><path id="XMLID_791_" d="m362.83 422.677c-3.338-.666-8.313-1.659-9.398-2.667.249-.515 1.903-1.355 6.248-1.355 5.784 0 12.02 1.675 18.534 4.979l2.887 1.464 9.506-22.893-2.324-1.305c-7.585-4.26-17.671-6.606-28.398-6.606-26.759 0-36.253 14.584-36.253 27.073 0 19.283 17.932 23.016 29.797 25.485 3.445.717 8.584 1.787 9.614 2.869-.401.253-1.839.879-6.218.879-7.215 0-15.658-2.342-22.037-6.111l-2.906-1.718-10.175 23.03 2.232 1.372c7.82 4.804 20.343 7.789 32.682 7.789 25.044 0 36.254-13.598 36.254-27.073-.001-19.217-18.081-22.825-30.045-25.212z"/><path id="XMLID_798_" d="m446.483 395.926h-38.191v77.403h38.191c25.895 0 43.292-15.553 43.292-38.702s-17.398-38.701-43.292-38.701zm-8.118 24.769h7.098c8.92 0 14.035 5.079 14.035 13.933s-5.115 13.933-14.035 13.933h-7.098z"/></g></g></svg>