<svg id="Capa_1" enable-background="new 0 0 494.732 494.732" height="512" viewBox="0 0 494.732 494.732" width="512" xmlns="http://www.w3.org/2000/svg"><g><path d="m63.544 391.815v80.497c0 12.382 10.038 22.42 22.42 22.42h322.804c12.382 0 22.42-10.038 22.42-22.42v-80.497l-187.387-10z" fill="#62dbfb"/><path d="m401.188 391.815v80.497c0 12.382-10.038 22.42-22.42 22.42h30c12.382 0 22.42-10.038 22.42-22.42v-80.497l-13.897-10z" fill="#01c0fa"/><path d="m431.188 391.808v-369.388c0-12.382-10.038-22.42-22.42-22.42h-322.804c-12.382 0-22.42 10.038-22.42 22.42v369.388z" fill="#edf5fa"/><path d="m401.188 22.42v369.388h30v-369.388c0-12.382-10.038-22.42-22.42-22.42h-30c12.382 0 22.42 10.038 22.42 22.42z" fill="#d0e7f2"/><path d="m257.809 336.76h-112.57c-16.886 0-30.574-13.689-30.574-30.574 0-16.886 13.689-30.574 30.574-30.574h112.57c16.886 0 30.574 13.689 30.574 30.574 0 16.886-13.688 30.574-30.574 30.574z" fill="#fe93d3"/><path d="m257.809 275.612h-28.062c16.886 0 30.574 13.688 30.574 30.574 0 16.886-13.689 30.574-30.574 30.574h28.062c16.886 0 30.574-13.689 30.574-30.574 0-16.886-13.688-30.574-30.574-30.574z" fill="#fe73c5"/><path d="m277.688 219.525c16.123-7.966 37.386-23.993 58.316-44.923 36.322-36.322 57.884-73.648 48.161-83.371s-47.05 11.839-83.371 48.161c-20.93 20.93-36.957 42.192-44.923 58.316z" fill="#01c0fa"/><path d="m384.165 91.23c-4.238-4.238-13.721-2.529-26.076 3.75 3.241 13.476-17.474 46.949-50.146 79.621-13.983 13.983-28.106 25.759-40.754 34.424l10.499 10.499c16.123-7.966 37.386-23.993 58.316-44.923 36.322-36.321 57.884-73.648 48.161-83.371z" fill="#08a9f1"/><path d="m239.371 243.806-7.692-7.692c-3.926-3.926-3.926-10.291 0-14.216l24.191-24.191 21.909 21.909-24.191 24.191c-3.926 3.925-10.291 3.925-14.217-.001z" fill="#62dbfb"/><path d="m234.771 292.736c-16.161 16.161-46.424 13.342-58.02 11.536-2.859-.445-5.094-2.679-5.539-5.539-1.805-11.597-4.625-41.859 11.536-58.02 20.267-20.267 48.342-25.05 62.707-10.685 14.367 14.367 9.583 42.442-10.684 62.708z" fill="#fe73c5"/><g fill="#b7d9eb"><path d="m167.424 93.445h70.792c4.143 0 7.5-3.358 7.5-7.5s-3.357-7.5-7.5-7.5h-70.792c-4.143 0-7.5 3.358-7.5 7.5s3.357 7.5 7.5 7.5z"/><path d="m167.424 129.552h70.792c4.143 0 7.5-3.358 7.5-7.5s-3.357-7.5-7.5-7.5h-70.792c-4.143 0-7.5 3.358-7.5 7.5s3.357 7.5 7.5 7.5z"/><path d="m117.672 93.445h13.438c4.143 0 7.5-3.358 7.5-7.5s-3.357-7.5-7.5-7.5h-13.438c-4.143 0-7.5 3.358-7.5 7.5s3.357 7.5 7.5 7.5z"/><path d="m117.672 129.552h13.438c4.143 0 7.5-3.358 7.5-7.5s-3.357-7.5-7.5-7.5h-13.438c-4.143 0-7.5 3.358-7.5 7.5s3.357 7.5 7.5 7.5z"/></g><path d="m203.432 415.672h-14.056c-2.53 0-4.438 1.587-4.438 3.691v43.186c0 2.583 3.005 3.759 5.797 3.759 2.791 0 5.796-1.177 5.796-3.759v-14.167h6.223c11.094 0 17.204-5.772 17.204-16.253v-.34c-.001-10.394-5.87-16.117-16.526-16.117zm5.432 17.271c0 4.617-2.309 6.79-6.111 6.79h-6.723v-14.327h6.723c3.803 0 6.111 2.173 6.111 6.79z" fill="#f6efee"/><path d="m246.308 434.124c-3.834-1.69-6.862-3.025-6.862-5.323 0-1.728 1.652-3.574 6.29-3.574 3.228 0 4.963.899 6.356 1.622.993.514 1.851.959 2.946.959 3.328 0 4.71-3.952 4.71-6.068 0-6.163-11.673-6.475-14.013-6.475-8.249 0-17.883 3.812-17.883 14.556 0 9.562 7.578 13.082 13.666 15.91 4.218 1.959 7.859 3.651 7.859 6.769 0 2.939-3.279 3.981-6.087 3.981-3.521 0-5.617-1.615-7.468-3.039-1.384-1.065-2.579-1.986-4.075-1.986-2.969 0-5.117 3.706-5.117 6.204 0 4.969 7.881 9.327 16.864 9.327 10.779 0 17.476-5.968 17.476-15.574.001-10.825-8.475-14.561-14.662-17.289z" fill="#edf5fa"/><path d="m287.768 415.672h-12.018c-2.918 0-5.118 1.587-5.118 3.691v43.253c0 2.104 2.2 3.691 5.118 3.691h12.019c11.094 0 17.204-5.869 17.204-16.525v-17.586c0-10.656-6.111-16.524-17.205-16.524zm0 40.401h-5.544v-30.167h5.544c3.724 0 5.611 2.116 5.611 6.29v17.586c.001 4.174-1.887 6.291-5.611 6.291z" fill="#edf5fa"/></g></svg>