<svg id="Artwork" height="512" viewBox="0 0 512 512" width="512" xmlns="http://www.w3.org/2000/svg"><path d="m453.06 109.29a10 10 0 0 0 -2.93-7.07l-99.42-99.42a10 10 0 0 0 -7.07-2.93h-274.42a10 10 0 0 0 -10 10v492a10 10 0 0 0 10 10h373.84a10 10 0 0 0 10-10z" fill="#f1f1f1"/><path d="m452.73 106.8a9.88 9.88 0 0 0 -2.6-4.58l-99.42-99.42a10 10 0 0 0 -7.07-2.93v94.92a12 12 0 0 0 12 12z" fill="#ccc"/><path d="m452.73 106.8h-97.08a12 12 0 0 1 -12-12v10.15c0 6.63 4.12 15 12.38 15h97v-10.66a6.46 6.46 0 0 0 -.3-2.49z" fill="#e8e8e8"/><path d="m59.21 215.34-27.01 27.09h27.01z" fill="#088faf"/><path d="m452.73 215.34 27.02 27.09h-27.02z" fill="#088faf"/><path d="m472.11 412.17h-432.22a10 10 0 0 1 -10-10v-153.34a10 10 0 0 1 10-10h432.22a10 10 0 0 1 10 10v153.33a10 10 0 0 1 -10 10.01z" fill="#29abe1"/><path d="m59.21 412.17h393.85v12.97h-393.85z" fill="#e0e0e0"/><g fill="#fff"><path d="m160 364.6a9 9 0 0 1 -2.45-6.65v-53.53a7.68 7.68 0 0 1 8.51-8.5h25.61q11.7 0 18.21 5.95t6.5 16.56q0 10.5-6.55 16.51t-18.16 6h-15.67v17a8.87 8.87 0 0 1 -2.5 6.65 9.29 9.29 0 0 1 -6.8 2.46 9 9 0 0 1 -6.7-2.45zm29.17-37.46c3.4 0 5.92-.71 7.55-2.11s2.45-3.56 2.45-6.5q0-8.7-10-8.7h-13.17v17.31z"/><path d="m236.94 365.6a34 34 0 0 1 -11.26-4.85 8.57 8.57 0 0 1 -2.45-2.7 7.57 7.57 0 0 1 -.75-3.6 8 8 0 0 1 1.8-5.2 5.32 5.32 0 0 1 4.21-2.2 7.79 7.79 0 0 1 2.5.4 14.78 14.78 0 0 1 3 1.5 32.91 32.91 0 0 0 8.15 3.3 38.18 38.18 0 0 0 9.16 1c3.93 0 6.92-.58 8.95-1.75a5.6 5.6 0 0 0 3.05-5.16q0-2.29-2.85-3.95t-10.85-3.25a63.14 63.14 0 0 1 -15.51-5c-3.74-1.94-6.35-4.22-7.86-6.85a20.36 20.36 0 0 1 1.56-21.17 25.33 25.33 0 0 1 10.45-8.12 36.48 36.48 0 0 1 15-3 48 48 0 0 1 13 1.6 32.88 32.88 0 0 1 10.41 5 8.22 8.22 0 0 1 2.55 2.75 7.68 7.68 0 0 1 .75 3.56 8.09 8.09 0 0 1 -1.75 5.2 5.17 5.17 0 0 1 -4.15 2.2 8 8 0 0 1 -2.4-.35 15.86 15.86 0 0 1 -3.1-1.55c-.34-.2-1.29-.72-2.85-1.55a22.93 22.93 0 0 0 -5.51-2 29.53 29.53 0 0 0 -6.85-.75 15.28 15.28 0 0 0 -8.21 1.95 5.89 5.89 0 0 0 -3.1 5.15 4.42 4.42 0 0 0 1.1 3.1 11.06 11.06 0 0 0 4.1 2.35 59.77 59.77 0 0 0 8.87 2.34 59.64 59.64 0 0 1 15.11 5.06 19.26 19.26 0 0 1 7.8 6.85 17.73 17.73 0 0 1 2.3 9.2 19.19 19.19 0 0 1 -3.7 11.66 23.66 23.66 0 0 1 -10.35 7.8 40.14 40.14 0 0 1 -15.46 2.76 59.77 59.77 0 0 1 -14.86-1.73z"/><path d="m293.92 364.25a8.49 8.49 0 0 1 -2.2-6.3v-53.53a7.68 7.68 0 0 1 8.5-8.5h20.21q11.71 0 20.16 4.25a30.09 30.09 0 0 1 13 12.16q4.5 7.91 4.5 18.81t-4.45 19a29.38 29.38 0 0 1 -12.91 12.15q-8.46 4.2-20.26 4.21h-20.25a8.5 8.5 0 0 1 -6.3-2.25zm25.21-12.6q10.31 0 15.46-5.06t5.15-15.45q0-10.41-5.15-15.41t-15.46-5h-9v40.92z"/></g></svg>