<svg id="Layer_1" enable-background="new 0 0 52 52" height="512" viewBox="0 0 52 52" width="512" xmlns="http://www.w3.org/2000/svg"><g><g><g><path d="m44.31183 11.46024v36.08002c0 1.35999-1.09998 2.45996-2.46002 2.45996h-31.69995c-1.36005 0-2.47003-1.09998-2.47003-2.45996v-43.08002c0-1.35999 1.10999-2.46002 2.47003-2.46002h24.69995z" fill="#e2e2e2"/></g><g opacity=".03"><path d="m44.31183 11.46024v36.08002c0 1.35999-1.09998 2.45996-2.46002 2.45996h-31.69995c-1.36005 0-2.47003-1.09998-2.47003-2.45996v-2.48999c17.73999-1.23004 31.76001-16.01001 31.76001-34.07001v-4.39002z" fill="#010101"/></g><g><path d="m44.31183 11.46024h-7c-1.35999 0-2.46002-1.09998-2.46002-2.46002v-7z" fill="#c8c7c7"/></g><g><path d="m7.68181 37.93721v9.60303c0 1.35999 1.10998 2.45996 2.47003 2.45996h31.69995c1.36005 0 2.46002-1.09998 2.46002-2.45996v-9.60303z" fill="#f4ba42"/></g><g opacity=".05"><path d="m44.30851 37.93721v9.59998c0 1.35999-1.10004 2.46002-2.46002 2.46002h-31.70001c-1.35999 0-2.46997-1.10004-2.46997-2.46002v-.88h21.22998c5.5 0 10.14001-3.67999 11.59003-8.71997h3.80999z" fill="#010101"/></g></g><g><g><path d="m26.92903 47.48145-.65332-1.51758h-2.94531l-.65332 1.51758h-1.66798l3.03516-7.02539h1.51758l3.03516 7.02539zm-2.1211-4.93506-.88477 2.04053h1.75879z" fill="#fff"/></g><g><path d="m29.41145 40.45605h1.56836v7.02539h-1.56836z" fill="#fff"/></g></g><g><path d="m14.656 18.888h22.682" fill="#f5c560"/><g><g fill="#f5c560"><circle cx="38.205" cy="18.888" r="2.25"/><circle cx="13.789" cy="18.888" r="2.25"/><path d="m23.747 16.638h4.5v4.5h-4.5z"/><circle cx="37.615" cy="30.506" r="2.25"/><circle cx="14.379" cy="30.506" r="2.25"/></g><g fill="#2a3d66"><path d="m13.7884 21.88819c1.3938 0 2.5581-.95972 2.89349-2.25h3.41608c-3.01105 1.64093-5.2633 4.4986-6.10327 7.90656-1.47137.1911-2.61548 1.43848-2.61548 2.96112 0 1.65429 1.3457 3 3 3s3-1.3457 3-3c0-1.25507-.77612-2.3291-1.87231-2.77606.97632-3.68445 3.83563-6.60577 7.4895-7.65839v1.06677c0 .41406.33594.75.75.75h4.5c.41406 0 .75-.33594.75-.75v-1.05646c3.65277 1.05261 6.51319 3.96674 7.49011 7.64819-1.09601.44708-1.87195 1.52106-1.87195 2.77594 0 1.65429 1.3457 3 3 3s3-1.3457 3-3c0-1.52386-1.14587-2.77191-2.61902-2.96149-.84088-3.40717-3.08929-6.2655-6.1001-7.90619h3.41547c.33539 1.29028 1.49969 2.25 2.89349 2.25 1.6543 0 3-1.3457 3-3s-1.3457-3-3-3c-1.3938 0-2.55811.95972-2.89349 2.25h-6.31452v-1.5c0-.41406-.33594-.75-.75-.75h-4.5c-.41406 0-.75.33594-.75.75v1.5h-6.31451c-.33539-1.29028-1.49969-2.25-2.89349-2.25-1.6543 0-3 1.3457-3 3s1.3457 3.00001 3 3.00001zm.59082 10.11767c-.82715 0-1.5-.67285-1.5-1.5 0-.80231.63464-1.45398 1.42755-1.49268h.1449c.79291.0387 1.42755.69037 1.42755 1.49268 0 .82715-.67285 1.5-1.5 1.5zm24.73535-1.5c0 .82715-.67285 1.5-1.5 1.5s-1.5-.67285-1.5-1.5.67285-1.5 1.5-1.5 1.5.67285 1.5 1.5zm-.91015-13.11767c.82715 0 1.5.67285 1.5 1.5s-.67285 1.5-1.5 1.5-1.5-.67285-1.5-1.5.67285-1.5 1.5-1.5zm-13.70801 0h3v3h-3zm-10.70801 0c.82715 0 1.5.67285 1.5 1.5s-.67285 1.5-1.5 1.5-1.5-.67285-1.5-1.5.67285-1.5 1.5-1.5z"/><path d="m44.91047 10.64453-9.35156-9.35156c-.18262-.18262-.49823-.29297-.70703-.29297h-24.7002c-1.91308 0-3.46972 1.55225-3.46972 3.46045v43.07959c0 1.90771 1.55664 3.45996 3.46972 3.45996h31.7002c1.9082 0 3.45996-1.55225 3.45996-3.45996 0-8.50725 0-27.46895 0-35.98273.04156-.41424-.12939-.71954-.40137-.91278zm-9.05859-6.22998 6.0459 6.0459h-4.58594c-.80469 0-1.45996-.65527-1.45996-1.46045zm-25.7002-1.41455h23.7002v6c0 1.9082 1.55176 3.46045 3.45996 3.46045h6v24.47656h-34.62988v-32.47656c0-.80517.65918-1.46045 1.46972-1.46045zm33.16016 44.54004c0 .80518-.65527 1.45996-1.45996 1.45996h-31.7002c-.81055 0-1.46973-.65479-1.46973-1.45996v-8.60303h34.62988v8.60303z"/></g></g></g></g></svg>