<?xml version="1.0" encoding="iso-8859-1"?>
<!-- Generator: Adobe Illustrator 19.0.0, SVG Export Plug-In . SVG Version: 6.00 Build 0)  -->
<svg version="1.1" id="Capa_1" xmlns="http://www.w3.org/2000/svg" xmlns:xlink="http://www.w3.org/1999/xlink" x="0px" y="0px"
	 viewBox="0 0 512 512" style="enable-background:new 0 0 512 512;" xml:space="preserve">
<path style="fill:#34ABE0;" d="M512,256c0,19.508-2.184,38.494-6.311,56.738c-6.416,28.348-17.533,54.909-32.496,78.817
	c-0.637,1.024-1.285,2.048-1.943,3.072C425.681,465.251,346.3,512,256,512S86.319,465.251,40.751,394.627
	c-19.822-30.699-33.249-65.912-38.4-103.769c-1.191-8.735-1.933-17.617-2.215-26.624C0.042,261.496,0,258.759,0,256
	c0-24.9,3.553-48.964,10.177-71.722c2.654-9.101,5.799-17.993,9.415-26.645c5.862-14.106,12.967-27.564,21.159-40.26
	C86.319,46.749,165.7,0,256,0s169.681,46.749,215.249,117.373c10.365,16.06,18.986,33.353,25.59,51.618
	c3.124,8.673,5.81,17.565,8.004,26.645c2.111,8.714,3.772,17.607,4.953,26.645c1.16,8.746,1.86,17.638,2.111,26.645
	C511.969,251.277,512,253.628,512,256z"/>
<path style="fill:#F9EED7;" d="M471.249,127.76v266.867C425.681,465.251,346.3,512,256,512S86.319,465.251,40.751,394.627V22.8
	c0-12.591,10.209-22.8,22.8-22.8h279.939L471.249,127.76z"/>
<path style="fill:#F4A14E;" d="M471.249,330.961v63.666C425.681,465.251,346.3,512,256,512S86.319,465.251,40.751,394.627v-63.666
	L471.249,330.961L471.249,330.961z"/>
<g>
	<path style="fill:#F9EED7;" d="M189.489,458.999c0-0.446,0.148-1.041,0.297-1.634l27.645-90.664
		c1.634-5.203,8.324-7.728,15.16-7.728s13.525,2.527,15.16,7.728l27.794,90.664c0.148,0.595,0.297,1.189,0.297,1.634
		c0,5.499-8.472,9.513-14.864,9.513c-3.716,0-6.687-1.189-7.58-4.31l-5.054-18.578h-31.361l-5.053,18.578
		c-0.892,3.121-3.864,4.31-7.581,4.31C197.961,468.511,189.489,464.499,189.489,458.999z M243.441,427.786l-10.85-39.833
		l-10.85,39.833H243.441z"/>
	<path style="fill:#F9EED7;" d="M299.324,366.849c0-4.905,5.797-6.985,11.594-6.985c5.796,0,11.593,2.08,11.593,6.985v94.528
		c0,4.756-5.797,7.135-11.593,7.135c-5.797,0-11.594-2.378-11.594-7.135V366.849z"/>
</g>
<path style="fill:#D6C8B0;" d="M370.4,173.098c11.504,0,20.863-9.36,20.863-20.863c0-11.503-9.359-20.863-20.863-20.863
	c-9.319,0-17.229,6.144-19.897,14.594h-70.815V127.52h-47.377v18.445h-70.813c-2.669-8.449-10.577-14.594-19.898-14.594
	c-11.504,0-20.863,9.359-20.863,20.863c0,11.504,9.359,20.863,20.863,20.863c9.32,0,17.23-6.145,19.898-14.594h41.127
	c-31.253,17.698-52.254,50.335-54.384,87.652h-18.384v47.377h47.377v-47.377h-16.429c2.671-41.328,31.532-76.031,71.506-86.166
	v14.907h47.377V159.99c39.974,10.136,68.835,44.839,71.506,86.166h-16.428v47.377h47.377v-47.377h-18.385
	c-2.13-37.317-23.132-69.954-54.384-87.652h41.128C353.17,166.954,361.079,173.098,370.4,173.098z M164.696,280.994h-22.299v-22.299
	h22.299V280.994z M369.603,280.994h-22.299v-22.299h22.299V280.994z M370.4,143.91c4.59,0,8.325,3.734,8.325,8.325
	s-3.734,8.325-8.325,8.325s-8.325-3.734-8.325-8.325S365.809,143.91,370.4,143.91z M141.6,160.559c-4.59,0-8.325-3.734-8.325-8.325
	s3.734-8.325,8.325-8.325c4.591,0,8.326,3.734,8.326,8.325S146.191,160.559,141.6,160.559z M267.149,162.357H244.85v-22.299h22.299
	V162.357z"/>
<path style="fill:#E8DBC4;" d="M343.489,104.958V0l127.76,127.76H366.291C353.698,127.76,343.489,117.551,343.489,104.958z"/>
<g>
</g>
<g>
</g>
<g>
</g>
<g>
</g>
<g>
</g>
<g>
</g>
<g>
</g>
<g>
</g>
<g>
</g>
<g>
</g>
<g>
</g>
<g>
</g>
<g>
</g>
<g>
</g>
<g>
</g>
</svg>
