<svg height="512" viewBox="0 0 64 64" width="512" xmlns="http://www.w3.org/2000/svg"><g id="Flat"><path d="m12 37v-32a2 2 0 0 1 2-2h26l12 12v22" fill="#d6d6d4"/><path d="m52 57v2a2 2 0 0 1 -2 2h-36a2 2 0 0 1 -2-2v-2" fill="#d6d6d4"/><path d="m40 3v12h12" fill="#44546c"/><rect fill="#ffa912" height="20" rx="2" width="46" x="9" y="37"/><path d="m46 26h-28a1 1 0 0 1 0-2h28a1 1 0 0 1 0 2z" fill="#44546c"/><path d="m46 32h-28a1 1 0 0 1 0-2h28a1 1 0 0 1 0 2z" fill="#44546c"/><g fill="#d6d6d4"><path d="m26.81 53.37a2.14 2.14 0 0 1 -.54-.08 1.85 1.85 0 0 1 -.52-.22 1.41 1.41 0 0 1 -.4-.32.63.63 0 0 1 -.15-.41 1.05 1.05 0 0 1 0-.18l3-9.81a1 1 0 0 1 .6-.63 2.54 2.54 0 0 1 1-.21 2.58 2.58 0 0 1 1 .21 1 1 0 0 1 .6.63l3 9.81a1.05 1.05 0 0 1 0 .18.63.63 0 0 1 -.15.41 1.18 1.18 0 0 1 -.4.32 1.85 1.85 0 0 1 -.52.22 2.14 2.14 0 0 1 -.54.08 1.18 1.18 0 0 1 -.52-.1.54.54 0 0 1 -.3-.37l-.55-2h-3.24l-.55 2a.54.54 0 0 1 -.3.37 1.18 1.18 0 0 1 -.52.1zm4.19-4.37-1.17-4.31-1.14 4.31z"/><path d="m35.48 42.36a.6.6 0 0 1 .4-.57 2.14 2.14 0 0 1 1.72 0 .59.59 0 0 1 .39.57v10.24a.62.62 0 0 1 -.39.58 2 2 0 0 1 -1.72 0 .63.63 0 0 1 -.4-.58z"/></g></g></svg>