<svg id="Capa_1" enable-background="new 0 0 510 510" height="512" viewBox="0 0 510 510" width="512" xmlns="http://www.w3.org/2000/svg" xmlns:xlink="http://www.w3.org/1999/xlink"><linearGradient id="lg1"><stop offset="0" stop-color="#f8f6f7"/><stop offset=".1788" stop-color="#f8f6f7"/><stop offset="1" stop-color="#e7e6f5"/></linearGradient><linearGradient id="SVGID_1_" gradientUnits="userSpaceOnUse" x1="41.628" x2="485.669" xlink:href="#lg1" y1="255" y2="255"/><linearGradient id="SVGID_2_" gradientUnits="userSpaceOnUse" x1="-486" x2="770.97" y1="255" y2="255"><stop offset="0" stop-color="#f8f6f7"/><stop offset="1" stop-color="#d1ceeb"/></linearGradient><linearGradient id="SVGID_3_" gradientUnits="userSpaceOnUse" x1="329.613" x2="460.529" xlink:href="#lg1" y1="60.741" y2="60.741"/><linearGradient id="lg2"><stop offset="0" stop-color="#fff3be"/><stop offset=".5725" stop-color="#ffd15b"/><stop offset="1" stop-color="#eca026"/></linearGradient><linearGradient id="SVGID_4_" gradientUnits="userSpaceOnUse" x1="38.001" x2="540.051" xlink:href="#lg2" y1="367.822" y2="367.822"/><linearGradient id="SVGID_5_" gradientUnits="userSpaceOnUse" x1="188" x2="407.009" xlink:href="#lg2" y1="367.822" y2="367.822"/><linearGradient id="SVGID_6_" gradientUnits="userSpaceOnUse" x1="153" x2="382.035" xlink:href="#lg2" y1="218.577" y2="218.577"/><linearGradient id="SVGID_8_" gradientUnits="userSpaceOnUse" x1="87" x2="332.131" xlink:href="#lg2" y1="188.138" y2="188.138"/><linearGradient id="SVGID_10_" gradientUnits="userSpaceOnUse" x1="124" x2="375.365" xlink:href="#lg2" y1="174.06" y2="174.06"/><linearGradient id="SVGID_12_" gradientUnits="userSpaceOnUse" x1="214.667" x2="298.762" xlink:href="#lg2" y1="174.06" y2="174.06"/><g><g><path d="m75.103 493.024v-476.048c0-9.376 7.601-16.976 16.976-16.976h285.189c31.827 0 57.628 25.801 57.628 57.628v435.396c0 9.376-7.6 16.976-16.976 16.976h-325.841c-9.375 0-16.976-7.6-16.976-16.976z" fill="url(#SVGID_1_)"/><path d="m377.269 0h-81.03v129.37c0 9.376 7.601 16.976 16.976 16.976h39.896c22.839 0 41.353 18.514 41.353 41.353v245.634h-319.361v31.174h302.2c9.478 0 17.162 7.684 17.162 17.162v11.355c0 9.376-7.6 16.976-16.976 16.976h40.432c9.376 0 16.976-7.6 16.976-16.976v-435.396c0-31.827-25.801-57.628-57.628-57.628z" fill="url(#SVGID_2_)"/><path d="m377.269 0h-56.166v104.505c0 9.376 7.6 16.976 16.976 16.976h96.817v-63.853c.001-31.827-25.8-57.628-57.627-57.628z" fill="url(#SVGID_3_)"/></g><path d="m451.749 439.643h-393.498c-11.183 0-20.249-9.066-20.249-20.249v-103.145c0-11.183 9.066-20.249 20.249-20.249h393.499c11.183 0 20.249 9.066 20.249 20.249v103.145c0 11.183-9.066 20.249-20.25 20.249z" fill="url(#SVGID_4_)"/><g fill="#fff"><path d="m190.602 403.259c0-.37.124-.864.247-1.357l22.946-75.254c1.357-4.318 6.908-6.415 12.583-6.415 5.676 0 11.227 2.097 12.584 6.415l23.069 75.254c.124.493.247.987.247 1.357 0 4.564-7.032 7.896-12.337 7.896-3.084 0-5.552-.987-6.292-3.578l-4.194-15.421h-26.03l-4.194 15.421c-.74 2.591-3.208 3.578-6.292 3.578-5.305 0-12.337-3.331-12.337-7.896zm44.782-25.907-9.006-33.063-9.005 33.063z"/><path d="m269.436 326.771c0-4.071 4.812-5.798 9.622-5.798 4.812 0 9.623 1.727 9.623 5.798v78.462c0 3.947-4.812 5.921-9.623 5.921s-9.622-1.974-9.622-5.921z"/><path d="m317.056 402.396c0 5.058-4.318 9.5-9.376 9.5-5.429 0-9.499-4.441-9.499-9.5 0-5.181 4.07-9.499 9.499-9.499 5.057-.001 9.376 4.317 9.376 9.499z"/></g><path d="m451.749 296h-40.432c11.183 0 20.25 9.066 20.25 20.249v103.145c0 11.183-9.066 20.249-20.25 20.249h40.432c11.183 0 20.249-9.066 20.249-20.249v-103.145c.001-11.183-9.065-20.249-20.249-20.249z" fill="url(#SVGID_5_)"/><g><g fill="url(#SVGID_6_)"><path d="m280.956 165.018c-6.656-1.817-13.53 2.112-15.347 8.774-1.814 6.661 2.113 13.531 8.774 15.346 31.874 8.686 54.136 37.857 54.136 70.94 0 6.903 5.597 12.5 12.5 12.5s12.5-5.597 12.5-12.5c.001-44.328-29.838-83.418-72.563-95.06z"/><path d="m229.046 165.017c-42.726 11.641-72.565 50.732-72.565 95.062 0 6.903 5.597 12.5 12.5 12.5 6.904 0 12.5-5.597 12.5-12.5 0-33.084 22.262-62.256 54.138-70.94 6.661-1.815 10.589-8.686 8.774-15.347s-8.685-10.588-15.347-8.775z"/></g><g fill="url(#SVGID_8_)"><path d="m340.78 211.7h-30.45c-9.28-10.65-21.65-18.67-35.95-22.56-1.7-.47-3.23-1.26-4.52-2.3-3.77-3.02-5.6-8.09-4.25-13.05 1.82-6.66 8.69-10.59 15.35-8.77 15.19 4.14 28.74 11.74 39.91 21.82 7.94 7.16 14.67 15.57 19.91 24.86z"/><path d="m240.14 186.84c-1.29 1.04-2.82 1.83-4.52 2.3-14.3 3.89-26.67 11.91-35.95 22.56h-30.45c5.24-9.29 11.97-17.7 19.91-24.86 11.17-10.08 24.73-17.68 39.92-21.82 6.66-1.82 13.53 2.11 15.34 8.77 1.35 4.96-.48 10.03-4.25 13.05z"/></g><g fill="url(#SVGID_10_)"><path d="m232.333 161.56h-55.023c-4.345-7.592-12.518-12.712-21.892-12.712-13.924 0-25.212 11.288-25.212 25.212s11.288 25.212 25.212 25.212c9.374 0 17.547-5.12 21.892-12.712h55.023c6.904 0 12.5-5.597 12.5-12.5s-5.596-12.5-12.5-12.5z"/><path d="m354.581 148.847c-9.374 0-17.547 5.12-21.892 12.712h-55.023c-6.903 0-12.5 5.597-12.5 12.5s5.597 12.5 12.5 12.5h55.023c4.344 7.592 12.518 12.712 21.892 12.712 13.924 0 25.212-11.288 25.212-25.212s-11.287-25.212-25.212-25.212z"/></g><path d="m268.376 209.226h-26.752c-12.015 0-21.79-9.775-21.79-21.79v-26.753c0-12.015 9.775-21.79 21.79-21.79h26.752c12.016 0 21.791 9.775 21.791 21.79v26.753c0 12.015-9.775 21.79-21.791 21.79zm-23.543-25h20.333v-20.333h-20.333z" fill="url(#SVGID_12_)"/></g></g></svg>