<svg height="512" viewBox="0 0 64 64" width="512" xmlns="http://www.w3.org/2000/svg"><g id="Flat"><path d="m12 37v-32a2 2 0 0 1 2-2h26l12 12v22" fill="#d6d6d4"/><path d="m52 57v2a2 2 0 0 1 -2 2h-36a2 2 0 0 1 -2-2v-2" fill="#d6d6d4"/><path d="m40 3v12h12" fill="#44546c"/><rect fill="#348fd9" height="20" rx="2" width="46" x="9" y="37"/><path d="m46 26h-28a1 1 0 0 1 0-2h28a1 1 0 0 1 0 2z" fill="#44546c"/><path d="m46 32h-28a1 1 0 0 1 0-2h28a1 1 0 0 1 0 2z" fill="#44546c"/><g fill="#d6d6d4"><path d="m16.27 42.36a.59.59 0 0 1 .39-.57 2.17 2.17 0 0 1 1.73 0 .59.59 0 0 1 .39.57v10.24a.62.62 0 0 1 -.39.58 2.06 2.06 0 0 1 -1.73 0 .62.62 0 0 1 -.39-.58z"/><path d="m27.49 53.37a2.37 2.37 0 0 1 -.81-.13 1.06 1.06 0 0 1 -.59-.54l-3.09-5.57v5.47a.61.61 0 0 1 -.4.58 2 2 0 0 1 -1.72 0 .62.62 0 0 1 -.39-.58v-10.22a.62.62 0 0 1 .39-.59 2 2 0 0 1 .86-.18 4.73 4.73 0 0 1 .58 0 1.2 1.2 0 0 1 .45.15 1.44 1.44 0 0 1 .41.38 6 6 0 0 1 .41.69l2.61 5v-5.47a.58.58 0 0 1 .4-.57 2 2 0 0 1 .86-.18 2.07 2.07 0 0 1 .86.18.59.59 0 0 1 .39.57v10.24a.62.62 0 0 1 -.39.58 1.93 1.93 0 0 1 -.83.19z"/><path d="m34.42 41.61a5.56 5.56 0 0 1 1.56.2 3.11 3.11 0 0 1 1.26.66 3.24 3.24 0 0 1 .84 1.18 4.59 4.59 0 0 1 .3 1.76v4.16a4.61 4.61 0 0 1 -.3 1.77 3.29 3.29 0 0 1 -.84 1.17 3.11 3.11 0 0 1 -1.26.66 6 6 0 0 1 -1.56.2h-2.85a1.28 1.28 0 0 1 -.79-.22.66.66 0 0 1 -.3-.53v-10.26a.66.66 0 0 1 .3-.53 1.28 1.28 0 0 1 .79-.22zm-1.42 2.19v7.38h1.43a1.41 1.41 0 0 0 1.06-.39 1.67 1.67 0 0 0 .39-1.22v-4.16a1.67 1.67 0 0 0 -.39-1.22 1.41 1.41 0 0 0 -1.06-.39z"/><path d="m43.92 41.61a5.6 5.6 0 0 1 1.56.2 3.07 3.07 0 0 1 1.25.66 3 3 0 0 1 .84 1.18 4.58 4.58 0 0 1 .31 1.76v4.16a4.6 4.6 0 0 1 -.31 1.77 3.11 3.11 0 0 1 -2.09 1.83 6 6 0 0 1 -1.56.2h-2.85a1.31 1.31 0 0 1 -.8-.22.66.66 0 0 1 -.3-.53v-10.26a.66.66 0 0 1 .3-.53 1.31 1.31 0 0 1 .8-.22zm-1.44 2.19v7.38h1.44a1.43 1.43 0 0 0 1.08-.39 1.67 1.67 0 0 0 .39-1.22v-4.16a1.67 1.67 0 0 0 -.39-1.22 1.43 1.43 0 0 0 -1.06-.39z"/></g></g></svg>