<?xml version="1.0" encoding="iso-8859-1"?>
<!-- Generator: Adobe Illustrator 19.0.0, SVG Export Plug-In . SVG Version: 6.00 Build 0)  -->
<svg version="1.1" id="Capa_1" xmlns="http://www.w3.org/2000/svg" xmlns:xlink="http://www.w3.org/1999/xlink" x="0px" y="0px"
	 viewBox="0 0 384 384" style="enable-background:new 0 0 384 384;" xml:space="preserve">
<linearGradient id="SVGID_1_" gradientUnits="userSpaceOnUse" x1="-89.6882" y1="551.2588" x2="-36.8442" y2="498.4128" gradientTransform="matrix(8 0 0 -8 826.84 4487.3999)">
	<stop  offset="0" style="stop-color:#EFEEEE"/>
	<stop  offset="1" style="stop-color:#DEDEDD"/>
</linearGradient>
<polygon style="fill:url(#SVGID_1_);" points="64,0 64,384 288,384 384,288 384,0 "/>
<polygon style="fill:#ABABAB;" points="288,288 288,384 384,288 "/>
<polygon style="fill:#DEDEDD;" points="192,384 288,384 288,288 "/>
<path style="fill:#ED4D76;" d="M0,96v112h256V96H0z"/>
<g>
	<path style="fill:#FFFFFF;" d="M50.144,117.088v11.328H36.912v-11.328H50.144z M50.144,134.768v51.648H36.912v-51.648H50.144z"/>
	<path style="fill:#FFFFFF;" d="M98.24,164.816h0.208v-46.96h12.672V186.4H95.36l-16.896-48h-0.192v48H65.6v-68.544h15.936
		L98.24,164.816z"/>
	<path style="fill:#FFFFFF;" d="M149.792,117.84c4.8,0,8.672,0.8,11.616,2.368c2.96,1.568,5.232,3.792,6.88,6.72
		c1.632,2.912,2.736,6.4,3.312,10.512c0.56,4.096,0.864,8.672,0.864,13.712c0,6.016-0.368,11.248-1.104,15.696
		c-0.736,4.432-2,8.112-3.776,10.992c-1.792,2.896-4.208,5.024-7.2,6.432c-3.008,1.408-6.816,2.112-11.424,2.112h-21.824V117.84
		H149.792z M147.104,176.24c2.432,0,4.368-0.416,5.856-1.248c1.472-0.832,2.64-2.208,3.504-4.128c0.864-1.92,1.44-4.448,1.728-7.6
		c0.288-3.12,0.416-7.024,0.416-11.696c0-3.904-0.128-7.328-0.368-10.288c-0.272-2.944-0.8-5.392-1.6-7.344
		c-0.8-1.952-1.984-3.424-3.552-4.4c-1.584-0.992-3.664-1.504-6.304-1.504h-5.84v48.208L147.104,176.24z"/>
	<path style="fill:#FFFFFF;" d="M206.816,117.84c4.816,0,8.672,0.8,11.632,2.368c2.944,1.568,5.232,3.792,6.864,6.72
		c1.648,2.912,2.736,6.4,3.312,10.512c0.576,4.096,0.864,8.672,0.864,13.712c0,6.016-0.352,11.248-1.088,15.696
		c-0.736,4.432-2,8.112-3.792,10.992c-1.792,2.896-4.192,5.024-7.2,6.432c-3.008,1.408-6.816,2.112-11.424,2.112H184.16V117.84
		H206.816z M204.128,176.24c2.432,0,4.384-0.416,5.856-1.248s2.64-2.208,3.504-4.128c0.88-1.92,1.456-4.448,1.728-7.6
		c0.288-3.12,0.432-7.024,0.432-11.696c0-3.904-0.144-7.328-0.384-10.288c-0.256-2.944-0.784-5.392-1.584-7.344
		c-0.816-1.952-1.984-3.424-3.568-4.4c-1.568-0.992-3.664-1.504-6.288-1.504h-5.856v48.208L204.128,176.24z"/>
</g>
<g>
</g>
<g>
</g>
<g>
</g>
<g>
</g>
<g>
</g>
<g>
</g>
<g>
</g>
<g>
</g>
<g>
</g>
<g>
</g>
<g>
</g>
<g>
</g>
<g>
</g>
<g>
</g>
<g>
</g>
</svg>
