<svg id="Layer_1" enable-background="new 0 0 128 128" height="512" viewBox="0 0 128 128" width="512" xmlns="http://www.w3.org/2000/svg"><path id="External_Link" d="m124 8v36c0 2.211-1.789 4-4 4s-4-1.789-4-4v-26.344l-57.172 57.172c-.781.781-1.805 1.172-2.828 1.172s-2.047-.391-2.828-1.172c-1.563-1.563-1.563-4.094 0-5.656l57.172-57.172h-26.344c-2.211 0-4-1.789-4-4s1.789-4 4-4h36c2.211 0 4 1.789 4 4zm-16 104v-48c0-2.211-1.789-4-4-4s-4 1.789-4 4v48c0 2.207-1.793 4-4 4h-80c-2.207 0-4-1.793-4-4v-80c0-2.207 1.793-4 4-4h48c2.211 0 4-1.789 4-4s-1.789-4-4-4h-48c-6.617 0-12 5.383-12 12v80c0 6.617 5.383 12 12 12h80c6.617 0 12-5.383 12-12z"/></svg>