<svg id="Capa_1" enable-background="new 0 0 512 512" height="512" viewBox="0 0 512 512" width="512" xmlns="http://www.w3.org/2000/svg"><g><path d="m480.082 224.082c0-124.298-101.204-224.959-225.706-224.076-123.368.874-223.507 102.67-222.45 226.037.87 101.552 69.298 186.974 162.53 213.548 8.433 2.404 15.64 7.914 20.02 15.51l28.455 49.349c5.805 10.067 20.333 10.067 26.138 0l28.455-49.35c4.378-7.593 11.58-13.104 20.009-15.506 93.836-26.741 162.549-113.096 162.549-215.512z" fill="#5490f9"/><path d="m254.376.006c-7.498.053-14.908.486-22.217 1.267 112.539 11.912 200.227 107.112 200.227 222.81 0 102.416-68.713 188.77-162.549 215.511-8.429 2.402-15.631 7.913-20.009 15.506l-17.676 30.656 10.779 18.694c5.805 10.067 20.334 10.067 26.138 0l28.455-49.35c4.378-7.593 11.58-13.104 20.009-15.506 93.836-26.741 162.549-113.095 162.549-215.511 0-124.299-101.204-224.959-225.706-224.077z" fill="#4a81f6"/><path d="m260.428 258.475h-8.856c-11.504 0-21.007-8.983-21.653-20.469l-6.287-111.705c-1.046-18.591 13.747-34.241 32.368-34.241 18.621 0 33.414 15.65 32.368 34.241l-6.287 111.705c-.646 11.486-10.149 20.469-21.653 20.469z" fill="#f1f1f4"/><path d="m256 92.06c-2.988 0-5.874.407-8.615 1.16 14.343 3.941 24.632 17.472 23.753 33.08l-6.287 111.705c-.566 10.057-7.922 18.194-17.466 20.063 1.356.266 2.756.406 4.187.406h8.856c11.504 0 21.007-8.983 21.653-20.469l6.287-111.705c1.046-18.59-13.747-34.24-32.368-34.24z" fill="#e2dfe2"/><path d="m263.026 337.383h-14.053c-9.122 0-16.517-7.395-16.517-16.517v-11.319c0-9.122 7.395-16.517 16.517-16.517h14.053c9.122 0 16.517 7.395 16.517 16.517v11.319c0 9.122-7.395 16.517-16.517 16.517z" fill="#f1f1f4"/><path d="m263.026 293.03h-14.053c-.536 0-1.065.03-1.589.08 8.376.8 14.928 7.851 14.928 16.437v11.319c0 8.585-6.552 15.636-14.928 16.436.523.05 1.052.08 1.589.08h14.053c9.122 0 16.516-7.395 16.516-16.517v-11.319c.001-9.121-7.394-16.516-16.516-16.516z" fill="#e2dfe2"/></g></svg>