<?xml version="1.0" encoding="iso-8859-1"?>
<!-- Generator: Adobe Illustrator 19.0.0, SVG Export Plug-In . SVG Version: 6.00 Build 0)  -->
<svg version="1.1" id="Capa_1" xmlns="http://www.w3.org/2000/svg" xmlns:xlink="http://www.w3.org/1999/xlink" x="0px" y="0px"
	 viewBox="0 0 480 480" style="enable-background:new 0 0 480 480;" xml:space="preserve">
<g>
	
		<linearGradient id="SVGID_1_" gradientUnits="userSpaceOnUse" x1="-48.697" y1="573.625" x2="10.335" y2="573.625" gradientTransform="matrix(8 0 0 -8 399.0002 4941)">
		<stop  offset="0" style="stop-color:#4761AC"/>
		<stop  offset="1" style="stop-color:#54C2EF"/>
	</linearGradient>
	<path style="fill:url(#SVGID_1_);" d="M144,360h16c4.418,0,8-3.582,8-8s-3.582-8-8-8h-16c-4.418,0-8,3.582-8,8S139.582,360,144,360
		z"/>
	
		<linearGradient id="SVGID_2_" gradientUnits="userSpaceOnUse" x1="-48.697" y1="573.625" x2="10.335" y2="573.625" gradientTransform="matrix(8 0 0 -8 399.0002 4941)">
		<stop  offset="0" style="stop-color:#4761AC"/>
		<stop  offset="1" style="stop-color:#54C2EF"/>
	</linearGradient>
	<path style="fill:url(#SVGID_2_);" d="M384,344H192c-4.418,0-8,3.582-8,8s3.582,8,8,8h192c4.418,0,8-3.582,8-8S388.418,344,384,344
		z"/>
</g>
<g>
	
		<linearGradient id="SVGID_3_" gradientUnits="userSpaceOnUse" x1="-48.697" y1="579.625" x2="10.335" y2="579.625" gradientTransform="matrix(8 0 0 -8 399.0002 4941)">
		<stop  offset="0" style="stop-color:#4761AC"/>
		<stop  offset="1" style="stop-color:#54C2EF"/>
	</linearGradient>
	<path style="fill:url(#SVGID_3_);" d="M144,312h16c4.418,0,8-3.582,8-8s-3.582-8-8-8h-16c-4.418,0-8,3.582-8,8S139.582,312,144,312
		z"/>
	
		<linearGradient id="SVGID_4_" gradientUnits="userSpaceOnUse" x1="-48.697" y1="579.625" x2="10.335" y2="579.625" gradientTransform="matrix(8 0 0 -8 399.0002 4941)">
		<stop  offset="0" style="stop-color:#4761AC"/>
		<stop  offset="1" style="stop-color:#54C2EF"/>
	</linearGradient>
	<path style="fill:url(#SVGID_4_);" d="M384,296H192c-4.418,0-8,3.582-8,8s3.582,8,8,8h192c4.418,0,8-3.582,8-8S388.418,296,384,296
		z"/>
	
		<linearGradient id="SVGID_5_" gradientUnits="userSpaceOnUse" x1="-48.697" y1="585.625" x2="10.335" y2="585.625" gradientTransform="matrix(8 0 0 -8 399.0002 4941)">
		<stop  offset="0" style="stop-color:#4761AC"/>
		<stop  offset="1" style="stop-color:#54C2EF"/>
	</linearGradient>
	<path style="fill:url(#SVGID_5_);" d="M144,264h16c4.418,0,8-3.582,8-8c0-4.418-3.582-8-8-8h-16c-4.418,0-8,3.582-8,8
		C136,260.418,139.582,264,144,264z"/>
	
		<linearGradient id="SVGID_6_" gradientUnits="userSpaceOnUse" x1="-48.697" y1="585.625" x2="10.335" y2="585.625" gradientTransform="matrix(8 0 0 -8 399.0002 4941)">
		<stop  offset="0" style="stop-color:#4761AC"/>
		<stop  offset="1" style="stop-color:#54C2EF"/>
	</linearGradient>
	<path style="fill:url(#SVGID_6_);" d="M384,248H192c-4.418,0-8,3.582-8,8c0,4.418,3.582,8,8,8h192c4.418,0,8-3.582,8-8
		C392,251.582,388.418,248,384,248z"/>
	
		<linearGradient id="SVGID_7_" gradientUnits="userSpaceOnUse" x1="-48.697" y1="591.625" x2="10.335" y2="591.625" gradientTransform="matrix(8 0 0 -8 399.0002 4941)">
		<stop  offset="0" style="stop-color:#4761AC"/>
		<stop  offset="1" style="stop-color:#54C2EF"/>
	</linearGradient>
	<path style="fill:url(#SVGID_7_);" d="M144,216h16c4.418,0,8-3.582,8-8s-3.582-8-8-8h-16c-4.418,0-8,3.582-8,8S139.582,216,144,216
		z"/>
	
		<linearGradient id="SVGID_8_" gradientUnits="userSpaceOnUse" x1="-48.697" y1="591.625" x2="10.335" y2="591.625" gradientTransform="matrix(8 0 0 -8 399.0002 4941)">
		<stop  offset="0" style="stop-color:#4761AC"/>
		<stop  offset="1" style="stop-color:#54C2EF"/>
	</linearGradient>
	<path style="fill:url(#SVGID_8_);" d="M384,200H192c-4.418,0-8,3.582-8,8s3.582,8,8,8h192c4.418,0,8-3.582,8-8S388.418,200,384,200
		z"/>
	
		<linearGradient id="SVGID_9_" gradientUnits="userSpaceOnUse" x1="-48.697" y1="597.625" x2="10.335" y2="597.625" gradientTransform="matrix(8 0 0 -8 399.0002 4941)">
		<stop  offset="0" style="stop-color:#4761AC"/>
		<stop  offset="1" style="stop-color:#54C2EF"/>
	</linearGradient>
	<path style="fill:url(#SVGID_9_);" d="M144,168h16c4.418,0,8-3.582,8-8s-3.582-8-8-8h-16c-4.418,0-8,3.582-8,8S139.582,168,144,168
		z"/>
	
		<linearGradient id="SVGID_10_" gradientUnits="userSpaceOnUse" x1="-48.697" y1="597.625" x2="10.335" y2="597.625" gradientTransform="matrix(8 0 0 -8 399.0002 4941)">
		<stop  offset="0" style="stop-color:#4761AC"/>
		<stop  offset="1" style="stop-color:#54C2EF"/>
	</linearGradient>
	<path style="fill:url(#SVGID_10_);" d="M184,160c0,4.418,3.582,8,8,8h192c4.418,0,8-3.582,8-8s-3.582-8-8-8H192
		C187.582,152,184,155.582,184,160z"/>
	
		<linearGradient id="SVGID_11_" gradientUnits="userSpaceOnUse" x1="-48.697" y1="587.625" x2="10.335" y2="587.625" gradientTransform="matrix(8 0 0 -8 399.0002 4941)">
		<stop  offset="0" style="stop-color:#4761AC"/>
		<stop  offset="1" style="stop-color:#54C2EF"/>
	</linearGradient>
	<path style="fill:url(#SVGID_11_);" d="M48,480h336c4.418,0,8-3.582,8-8v-40h40c4.418,0,8-3.582,8-8V120
		c0-0.176-0.088-0.328-0.104-0.504c-0.04-0.701-0.177-1.393-0.408-2.056c-0.088-0.256-0.152-0.504-0.264-0.752
		c-0.389-0.87-0.931-1.664-1.6-2.344l-112-112c-0.68-0.669-1.474-1.211-2.344-1.6c-0.248-0.112-0.496-0.176-0.744-0.264
		c-0.669-0.23-1.366-0.37-2.072-0.416C320.328,0.088,320.176,0,320,0H96c-4.418,0-8,3.582-8,8v24H48c-4.418,0-8,3.582-8,8v432
		C40,476.418,43.582,480,48,480L48,480z M412.688,112H328V27.312L412.688,112z M104,16h208v104c0,4.418,3.582,8,8,8h104v288H104V16z
		 M56,48h32v376c0,4.418,3.582,8,8,8h280v32H56V48z"/>
	
		<linearGradient id="SVGID_12_" gradientUnits="userSpaceOnUse" x1="-48.697" y1="604.625" x2="10.335" y2="604.625" gradientTransform="matrix(8 0 0 -8 399.0002 4941)">
		<stop  offset="0" style="stop-color:#4761AC"/>
		<stop  offset="1" style="stop-color:#54C2EF"/>
	</linearGradient>
	<path style="fill:url(#SVGID_12_);" d="M144,136h48c4.418,0,8-3.582,8-8V80c0-4.418-3.582-8-8-8h-48c-4.418,0-8,3.582-8,8v48
		C136,132.418,139.582,136,144,136z M152,88h32v32h-32V88z"/>
</g>
<g>
</g>
<g>
</g>
<g>
</g>
<g>
</g>
<g>
</g>
<g>
</g>
<g>
</g>
<g>
</g>
<g>
</g>
<g>
</g>
<g>
</g>
<g>
</g>
<g>
</g>
<g>
</g>
<g>
</g>
</svg>
