<svg id="Layer_1" height="512" viewBox="0 0 64 64" width="512" xmlns="http://www.w3.org/2000/svg" data-name="Layer 1"><path d="m54.41 17.59-14-14a2 2 0 0 0 -1.41-.59h-28a2 2 0 0 0 -2 2v54a2 2 0 0 0 2 2h42a2 2 0 0 0 2-2v-40a2 2 0 0 0 -.59-1.41zm-13.41-7.76 7.17 7.17h-7.17zm-28 47.17v-50h24v12a2 2 0 0 0 2 2h12v36z"/><path d="m43 47h-22a2 2 0 0 0 0 4h22a2 2 0 0 0 0-4z"/><path d="m43 37h-22a2 2 0 0 0 0 4h22a2 2 0 0 0 0-4z"/><path d="m43 27h-22a2 2 0 0 0 0 4h22a2 2 0 0 0 0-4z"/><path d="m21 21h8a2 2 0 0 0 0-4h-8a2 2 0 0 0 0 4z"/></svg>