<svg height="480pt" viewBox="-48 0 480 480" width="480pt" xmlns="http://www.w3.org/2000/svg"><path d="m280 88c0 8.835938 7.164062 16 16 16h80l-96-96zm0 0" fill="#57a4ff"/><path d="m259.921875 174.878906-26.480469 26.480469c-3.046875-1.511719-6.203125-2.796875-9.441406-3.839844v-37.519531h-64v37.519531c-3.238281 1.042969-6.394531 2.328125-9.441406 3.839844l-26.480469-26.480469-45.199219 45.199219 26.480469 26.480469c-1.511719 3.046875-2.796875 6.203125-3.839844 9.441406h-37.519531v64h37.519531c1.042969 3.238281 2.328125 6.394531 3.839844 9.441406l-26.480469 26.480469 45.199219 45.199219 26.480469-26.480469c3.046875 1.511719 6.203125 2.796875 9.441406 3.839844v37.519531h64v-37.519531c3.238281-1.042969 6.394531-2.328125 9.441406-3.839844l26.480469 26.480469 45.199219-45.199219-26.480469-26.480469c1.511719-3.046875 2.796875-6.203125 3.839844-9.441406h37.519531v-64h-37.519531c-1.042969-3.238281-2.328125-6.394531-3.839844-9.441406l26.480469-26.480469zm-67.921875 161.121094c-26.507812 0-48-21.492188-48-48s21.492188-48 48-48 48 21.492188 48 48-21.492188 48-48 48zm0 0" fill="#57a4ff"/><g fill="#1e81ce"><path d="m383.902344 103.503906c-.042969-.707031-.183594-1.402344-.414063-2.070312-.089843-.257813-.152343-.496094-.265625-.746094-.386718-.871094-.929687-1.664062-1.597656-2.34375l-96-96c-.679688-.671875-1.476562-1.214844-2.351562-1.601562-.238282-.097657-.476563-.1875-.722657-.261719-.679687-.234375-1.390625-.375-2.109375-.417969-.128906.015625-.28125-.0625-.441406-.0625h-240c-22.082031.0273438-39.9726562 17.917969-40 40v400c.0273438 22.082031 17.917969 39.972656 40 40h304c22.082031-.027344 39.972656-17.917969 40-40v-336c0-.167969-.089844-.320312-.097656-.496094zm-27.214844-7.503906h-60.6875c-4.417969 0-8-3.582031-8-8v-60.6875zm-12.6875 368h-304c-13.253906 0-24-10.746094-24-24v-400c0-13.253906 10.746094-24 24-24h232v72c0 13.253906 10.746094 24 24 24h72v328c0 13.253906-10.746094 24-24 24zm0 0"/><path d="m320 248h-31.488281l22.265625-22.265625c3.121094-3.121094 3.121094-8.1875 0-11.308594l-45.203125-45.203125c-3.121094-3.121094-8.1875-3.121094-11.308594 0l-22.265625 22.265625v-31.488281c0-4.417969-3.582031-8-8-8h-64c-4.417969 0-8 3.582031-8 8v31.488281l-22.265625-22.265625c-3.121094-3.121094-8.1875-3.121094-11.308594 0l-45.203125 45.203125c-3.121094 3.121094-3.121094 8.1875 0 11.308594l22.265625 22.265625h-31.488281c-4.417969 0-8 3.582031-8 8v64c0 4.417969 3.582031 8 8 8h31.488281l-22.265625 22.265625c-3.121094 3.121094-3.121094 8.1875 0 11.308594l45.203125 45.203125c3.121094 3.121094 8.1875 3.121094 11.308594 0l22.265625-22.265625v31.488281c0 4.417969 3.582031 8 8 8h64c4.417969 0 8-3.582031 8-8v-31.488281l22.265625 22.265625c3.121094 3.121094 8.1875 3.121094 11.308594 0l45.203125-45.203125c3.121094-3.121094 3.121094-8.1875 0-11.308594l-22.265625-22.265625h31.488281c4.417969 0 8-3.582031 8-8v-64c0-4.417969-3.582031-8-8-8zm-8 64h-29.519531c-3.46875-.003906-6.542969 2.230469-7.617188 5.527344-.917969 2.859375-2.046875 5.644531-3.375 8.335937-1.539062 3.078125-.9375 6.796875 1.496094 9.234375l20.800781 20.796875-33.863281 33.914063-20.800781-20.800782c-2.4375-2.433593-6.15625-3.035156-9.234375-1.496093-2.691407 1.328125-5.476563 2.457031-8.335938 3.375-3.296875 1.0625-5.539062 4.128906-5.550781 7.59375v29.519531h-48v-29.519531c.003906-3.46875-2.230469-6.542969-5.527344-7.617188-2.859375-.917969-5.644531-2.046875-8.335937-3.375-3.078125-1.539062-6.796875-.9375-9.234375 1.496094l-20.796875 20.800781-33.914063-33.863281 20.800782-20.800781c2.433593-2.4375 3.035156-6.15625 1.496093-9.234375-1.328125-2.691407-2.457031-5.476563-3.375-8.335938-1.0625-3.296875-4.128906-5.539062-7.59375-5.550781h-29.519531v-48h29.519531c3.46875.003906 6.542969-2.230469 7.617188-5.527344.917969-2.859375 2.046875-5.644531 3.375-8.335937 1.539062-3.078125.9375-6.796875-1.496094-9.234375l-20.800781-20.796875 33.890625-33.890625 20.796875 20.800781c2.4375 2.433594 6.15625 3.035156 9.234375 1.496094 2.691406-1.328125 5.476562-2.457031 8.335937-3.375 3.296875-1.074219 5.53125-4.148438 5.527344-7.617188v-29.519531h48v29.519531c-.003906 3.46875 2.230469 6.542969 5.527344 7.617188 2.859375.917969 5.644531 2.046875 8.335937 3.375 3.078125 1.539062 6.796875.9375 9.234375-1.496094l20.796875-20.800781 33.890625 33.890625-20.800781 20.796875c-2.433594 2.4375-3.035156 6.15625-1.496094 9.234375 1.328125 2.691406 2.457031 5.476562 3.375 8.335937 1.074219 3.296875 4.148438 5.53125 7.617188 5.527344h29.519531zm0 0"/><path d="m192 232c-30.929688 0-56 25.070312-56 56s25.070312 56 56 56 56-25.070312 56-56c-.039062-30.910156-25.089844-55.960938-56-56zm0 96c-22.089844 0-40-17.910156-40-40s17.910156-40 40-40 40 17.910156 40 40c-.027344 22.082031-17.917969 39.972656-40 40zm0 0"/><path d="m104 48c4.417969 0 8-3.582031 8-8s-3.582031-8-8-8h-48c-13.253906 0-24 10.746094-24 24v48c0 4.417969 3.582031 8 8 8s8-3.582031 8-8v-48c0-4.417969 3.582031-8 8-8zm0 0"/></g></svg>