<svg id="Capa_1" enable-background="new 0 0 512 512" height="512" viewBox="0 0 512 512" width="512" xmlns="http://www.w3.org/2000/svg"><g><g><path d="m256 0 51.008 208.333-51.008 234.156h-205.532v-357.426c0-46.977 38.086-85.063 85.063-85.063z" fill="#4d578c"/><path d="m461.532 20.003v352.975l-205.532 20.131v-393.109h185.529c11.052 0 20.003 8.951 20.003 20.003z" fill="#333e73"/><path d="m256 372.978 28.004 69.511-28.004 69.511h-136.021c-33.235 0-61.03-23.334-67.881-54.509l4.204-16.169-4.204-13.835c2.89-13.172 9.531-24.944 18.733-34.145 12.582-12.582 29.955-20.363 49.148-20.363h136.021z" fill="#e6f7ff"/><path d="m461.532 372.978v54.509l-14.502 15.002 14.502 15.002v34.505c0 11.052-8.951 20.003-20.003 20.003h-185.529v-139.021z" fill="#cce6ff"/><path d="m256 427.487 10.002 15.002-10.002 15.002h-203.902c-1.07-4.831-1.63-9.852-1.63-15.002 0-5.151.56-10.172 1.63-15.002z" fill="#b3ccff"/><path d="m256 427.487h205.532v30.005h-205.532z" fill="#8fb2ef"/></g><g><path d="m217.923 70.65c-5.792-14.098-25.9-14.171-31.72.04-.04.11-.09.22-.13.34l-35.5 93.2c-2.95 7.74.94 16.4 8.68 19.35 7.796 2.968 16.428-.976 19.36-8.68l5.16-13.55h36.32l5.1 13.51c2.93 7.75 11.58 11.66 19.33 8.74 7.75-2.93 11.66-11.58 8.74-19.33-.062-.166-35.289-93.501-35.34-93.62zm-22.719 60.7 6.81-17.9c9.413 24.926 5.979 15.833 6.76 17.9-4.742 0-8.787 0-13.57 0z" fill="#e6f7ff"/><path d="m347.413 282.965h-35.385l46.484-71.341c6.485-9.95-.661-23.188-12.567-23.188h-59.655c-8.284 0-15 6.716-15 15s6.716 15 15 15h31.978l-46.484 71.341c-6.485 9.95.661 23.188 12.567 23.188h63.062c8.284 0 15-6.716 15-15s-6.716-15-15-15z" fill="#cce6ff"/></g></g></svg>