<svg id="Capa_1" enable-background="new 0 0 512 512" height="512" viewBox="0 0 512 512" width="512" xmlns="http://www.w3.org/2000/svg"><g id="XMLID_234_"><g id="XMLID_3343_"><g id="XMLID_2893_"><path id="XMLID_2909_" d="m430.553 104.044h-252.991v-39.787c0-8.284-6.716-15-15-15h-81.115c-8.284 0-15 6.716-15 15v378.557c0 38.149 31.074 69.186 69.269 69.186h265.409c24.497 0 44.428-19.911 44.428-44.384v-348.572c0-8.284-6.716-15-15-15z" fill="#4894ff"/></g></g><g id="XMLID_267_"><path id="XMLID_203_" d="m430.553 104.044h-174.553v407.956h145.125c24.497 0 44.428-19.911 44.428-44.384v-348.572c0-8.284-6.716-15-15-15z" fill="#046eff"/></g><g id="XMLID_3395_"><g id="XMLID_3340_"><path id="XMLID_3354_" d="m430.454 119.017h-299.006c-27.375 0-49.567-22.158-49.567-49.492v-5.034c0-27.333 22.192-49.491 49.567-49.491h299.006z" fill="#f8f7f7"/></g></g><g id="XMLID_235_"><path id="XMLID_218_" d="m256 15h174.454v104.017h-174.454z" fill="#e8e1de"/></g><g id="XMLID_3344_"><g id="XMLID_2812_"><g id="XMLID_2814_"><path id="XMLID_2927_" d="m117.218 329.333c0-.302.099-.855.302-1.664l28.15-92.32c.807-2.521 2.648-4.465 5.524-5.827 2.875-1.362 6.179-2.043 9.913-2.043 3.732 0 7.038.681 9.913 2.043 2.876 1.362 4.715 3.306 5.524 5.827l28.301 92.32c.201.809.303 1.362.303 1.664 0 2.625-1.641 4.896-4.918 6.811-3.28 1.918-6.686 2.876-10.216 2.876-4.339 0-6.912-1.461-7.719-4.389l-5.146-18.918h-31.934l-5.146 18.918c-.809 2.928-3.382 4.389-7.719 4.389-3.533 0-6.938-.958-10.216-2.876-3.277-1.915-4.916-4.186-4.916-6.811zm32.842-31.782h22.096l-11.048-40.561z" fill="#ffef4a"/><path id="XMLID_2919_" d="m224.52 331.907v-96.255c0-2.32 1.007-4.11 3.027-5.373 2.017-1.261 4.438-1.892 7.264-1.892h31.026c20.179 0 30.269 8.981 30.269 26.939 0 12.107-4.29 20.029-12.864 23.761 5.146 1.918 9.028 4.668 11.653 8.248 2.623 3.583 3.935 8.906 3.935 15.967v3.179c0 11.301-2.75 19.55-8.249 24.745-5.5 5.197-12.89 7.794-22.172 7.794h-33.599c-3.128 0-5.625-.705-7.491-2.119-1.867-1.411-2.799-3.076-2.799-4.994zm23.458-61.901h15.892c2.724 0 4.843-1.033 6.356-3.103 1.513-2.066 2.27-4.514 2.27-7.34 0-2.823-.757-5.297-2.27-7.416-1.514-2.118-3.632-3.178-6.356-3.178h-15.892zm0 48.431h15.135c8.071 0 12.107-4.64 12.107-13.924v-2.421c0-9.282-4.037-13.924-12.107-13.924h-15.135z" fill="#ffef4a"/><path id="XMLID_2836_" d="m320.471 304.21v-40.106c0-12.309 3.353-21.339 10.064-27.091 6.709-5.751 15.461-8.626 26.258-8.626 11.098 0 20.205 2.675 27.318 8.021 7.113 5.349 10.669 12.713 10.669 22.096 0 4.34-.908 7.291-2.724 8.854-1.816 1.565-4.843 2.347-9.081 2.347-7.567 0-11.502-2.37-11.805-7.113-.302-9.081-4.793-13.621-13.469-13.621-9.081 0-13.621 5.046-13.621 15.134v40.106c0 10.091 4.59 15.135 13.772 15.135 2.823 0 5.169-.454 7.037-1.362 1.866-.908 3.202-2.294 4.011-4.162.807-1.865 1.336-3.405 1.589-4.615.25-1.211.478-2.876.681-4.995.402-4.741 4.288-7.113 11.654-7.113 4.337 0 7.416.783 9.232 2.347 1.816 1.565 2.724 4.517 2.724 8.854 0 9.787-3.557 17.506-10.669 23.155-7.113 5.652-16.22 8.476-27.318 8.476-10.797 0-19.549-2.876-26.258-8.627-6.711-5.754-10.064-14.782-10.064-27.094z" fill="#ffd322"/></g></g><g id="XMLID_3346_"><path id="XMLID_3353_" d="m430.287 134.017h-299.007c-35.602 0-64.566-28.931-64.566-64.492v-5.034c-.001-35.56 28.964-64.491 64.566-64.491h299.007c8.284 0 15 6.716 15 15s-6.716 15-15 15h-299.007c-19.06 0-34.566 15.473-34.566 34.491v5.034c0 19.019 15.507 34.492 34.566 34.492h299.007c8.284 0 15 6.716 15 15s-6.716 15-15 15z" fill="#6aa8ff"/></g></g><g id="XMLID_279_" fill="#4894ff"><path id="XMLID_219_" d="m430.287 30c8.284 0 15-6.716 15-15s-6.716-15-15-15h-174.287v30z"/><path id="XMLID_201_" d="m430.287 104.017h-174.287v30h174.287c8.284 0 15-6.716 15-15s-6.716-15-15-15z"/></g><g id="XMLID_58_"><path id="XMLID_220_" d="m294.895 287.335c-2.625-3.58-6.508-6.33-11.653-8.248 8.575-3.731 12.864-11.653 12.864-23.761 0-17.958-10.09-26.939-30.269-26.939h-9.837v20.583h7.87c2.724 0 4.843 1.06 6.356 3.178 1.513 2.119 2.27 4.593 2.27 7.416 0 2.826-.757 5.273-2.27 7.34-1.514 2.069-3.632 3.103-6.356 3.103h-7.87v18.162h7.113c8.071 0 12.107 4.642 12.107 13.924v2.421c0 9.284-4.037 13.924-12.107 13.924h-7.113v20.583h12.41c9.282 0 16.672-2.597 22.172-7.794 5.499-5.195 8.249-13.444 8.249-24.745v-3.179c-.001-7.061-1.313-12.385-3.936-15.968z" fill="#ffd322"/></g></g></svg>