<svg id="Layer_1" enable-background="new 0 0 512 512" height="512" viewBox="0 0 512 512" width="512" xmlns="http://www.w3.org/2000/svg"><g><g><path d="m496.999 512c-2.718 0-5.431-.737-7.831-2.207l-87.884-53.794h-177.281c-23.711 0-43.002-19.291-43.002-43.002v-225.996c0-23.711 19.291-43.001 43.002-43.001h244.995c23.711 0 43.002 19.291 43.002 43.001v309.999c0 5.428-2.933 10.432-7.667 13.085-2.281 1.278-4.809 1.915-7.334 1.915z" fill="#ff8856"/></g><path d="m468.998 144h-122.509v311.999h54.796l87.884 53.794c2.4 1.469 5.113 2.207 7.831 2.207 2.524 0 5.053-.637 7.333-1.915 4.734-2.653 7.667-7.658 7.667-13.085v-309.999c-.001-23.71-19.292-43.001-43.002-43.001z" fill="#ff435b"/><path d="m367.702 300.5 38.894-38.893c5.858-5.857 5.858-15.355 0-21.213-5.857-5.858-15.355-5.858-21.213 0l-38.894 38.893-38.894-38.893c-5.857-5.858-15.355-5.858-21.213 0s-5.858 15.355 0 21.213l38.894 38.893-38.894 38.893c-5.858 5.857-5.858 15.355 0 21.213 2.929 2.929 6.768 4.394 10.606 4.394s7.678-1.465 10.606-4.394l38.894-38.893 38.894 38.893c2.929 2.929 6.768 4.394 10.606 4.394s7.678-1.464 10.606-4.394c5.858-5.858 5.858-15.355 0-21.213z" fill="#fff4f4"/><g><path d="m15.003 343.893c-3.91 0-7.745-1.53-10.609-4.394-4.141-4.141-5.494-10.313-3.463-15.807l24.619-66.611c-16.74-26.695-25.549-57.324-25.549-89.081 0-92.635 75.364-168 168-168 92.635 0 167.999 75.364 167.999 168 0 92.635-75.364 167.999-167.999 167.999-27.084 0-53.769-6.542-77.619-18.975l-70.181 25.938c-1.694.626-3.453.931-5.198.931z" fill="#bee75e"/></g><path d="m168 0v335.999c92.635 0 167.999-75.364 167.999-167.999 0-92.636-75.364-168-167.999-168z" fill="#00cb75"/><g><path d="m168 217c-3.839 0-7.678-1.464-10.606-4.394l-39.5-39.5c-5.858-5.858-5.858-15.355 0-21.213 5.857-5.858 15.355-5.858 21.213 0l28.893 28.894 64.894-64.894c5.858-5.858 15.355-5.857 21.213 0 5.858 5.858 5.858 15.355 0 21.213l-75.5 75.5c-2.929 2.93-6.768 4.394-10.607 4.394z" fill="#fff4f4"/></g><g fill="#f6efea"><path d="m254.107 115.894c-5.858-5.857-15.355-5.858-21.213 0l-64.894 64.893v36.213c3.839 0 7.678-1.464 10.606-4.394l75.5-75.5c5.859-5.857 5.859-15.355.001-21.212z"/><path d="m367.702 300.5 38.894-38.893c5.858-5.857 5.858-15.355 0-21.213-5.857-5.858-15.355-5.858-21.213 0l-38.894 38.893v42.426l38.894 38.893c2.929 2.929 6.768 4.394 10.606 4.394s7.678-1.464 10.606-4.394c5.858-5.858 5.858-15.355 0-21.213z"/></g></g></svg>