<svg id="Capa_1" enable-background="new 0 0 512 512" height="512" viewBox="0 0 512 512" width="512" xmlns="http://www.w3.org/2000/svg"><g><path d="m60 46c-32.999 0-60 26.999-60 60 0 32.999 27.001 60 60 60s60-27.001 60-60c0-33.001-27.001-60-60-60z" fill="#ff6c6c"/><path d="m0 106h120c0 32.999-27.001 60-60 60s-60-27.001-60-60z" fill="#e63950"/><path d="m165 46h347v120h-347z" fill="#ff6c6c"/><path d="m165 106h347v60h-347z" fill="#e63950"/><path d="m165 196h167v120h-167z" fill="#97de3d"/><path d="m60 196c-32.999 0-60 26.999-60 60 0 32.999 27.001 60 60 60s60-27.001 60-60c0-33.001-27.001-60-60-60z" fill="#97de3d"/><path d="m0 256h120c0 32.999-27.001 60-60 60s-60-27.001-60-60z" fill="#59c36a"/><path d="m165 256h167v60h-167z" fill="#59c36a"/><path d="m165 346h287v120h-287z" fill="#fed843"/><path d="m60 346c-32.999 0-60 26.999-60 60 0 32.999 27.001 60 60 60s60-27.001 60-60c0-33.001-27.001-60-60-60z" fill="#fed843"/><path d="m0 406h120c0 32.999-27.001 60-60 60s-60-27.001-60-60z" fill="#fabe2c"/><path d="m165 406h287v60h-287z" fill="#fabe2c"/><path d="m150 16h30v480h-30z" fill="#474f54"/><path d="m150 256h30v240h-30z" fill="#32393f"/></g></svg>