<svg id="Flat" height="512" viewBox="0 0 512 512" width="512" xmlns="http://www.w3.org/2000/svg"><path d="m456 488h-368v-464h296l72 72z" fill="#dadcde"/><path d="m384 24v72h72z" fill="#e9eef2"/><path d="m120 136h304v304h-304z" fill="#6ed2f0"/><path d="m56 80h272v112h-272z" fill="#5098ad"/><g fill="#dadcde"><path d="m112 104h-16a8 8 0 0 0 0 16v28.687l-2.343-2.344a8 8 0 0 0 -11.314 11.314l8 8a8 8 0 0 0 11.314 0l8-8a8 8 0 0 0 2.343-5.657v-32a8 8 0 0 0 0-16z"/><path d="m175.167 108.446a8.041 8.041 0 0 0 -7.193-4.446h-23.931a8.043 8.043 0 0 0 -8.043 8.043v47.644a8.208 8.208 0 0 0 7.5 8.3 8 8 0 0 0 8.5-7.987v-7.957a.043.043 0 0 1 .043-.043h15.931a8.041 8.041 0 0 0 7.193-4.446l7.979-15.957a8.044 8.044 0 0 0 0-7.194zm-8.121 19.573-3.979 7.957a.042.042 0 0 1 -.038.024h-10.986a.043.043 0 0 1 -.043-.043v-15.914a.043.043 0 0 1 .043-.043h10.986a.042.042 0 0 1 .038.024l3.979 7.957a.042.042 0 0 1 0 .038z"/><path d="m232 120a8 8 0 0 0 0-16h-24a8 8 0 0 0 -8 8v48a8 8 0 0 0 8 8h24a8 8 0 0 0 0-16h-16v-8h8a8 8 0 0 0 0-16h-8v-8z"/><path d="m296 136h-8a8 8 0 0 0 0 16h-16v-32h24a8 8 0 0 0 0-16h-32a8 8 0 0 0 -8 8v48a8 8 0 0 0 8 8h32a8 8 0 0 0 8-8v-16a8 8 0 0 0 -8-8z"/></g><path d="m120 440 80-120 80 72 64-136 80 184z" fill="#35a872"/><circle cx="248" cy="272" fill="#eb423f" r="32"/></svg>