<svg id="Capa_1" enable-background="new 0 0 512 512" height="512" viewBox="0 0 512 512" width="512" xmlns="http://www.w3.org/2000/svg"><g><path d="m342.681 447.48h-316.568c-5.69 0-10.302-4.612-10.302-10.302v-426.876c.001-5.69 4.613-10.302 10.302-10.302h239.35c2.732 0 5.353 1.085 7.284 3.017l77.217 77.217c1.932 1.932 3.017 4.552 3.017 7.284v349.659c.001 5.69-4.611 10.303-10.3 10.303z" fill="#f4fbff"/><path d="m352.978 87.524v349.654c0 5.69-4.612 10.302-10.302 10.302h-135.16c-17.874-24.436-28.443-54.538-28.443-87.061 0-81.487 66.292-147.779 147.769-147.779h.041c2.334 0 4.244-1.91 4.244-4.244v-91.841c0-5.746-4.658-10.405-10.405-10.405h-53.075c-11.493 0-20.81-9.317-20.81-20.81v-85.34h18.626c1.483 0 2.936.319 4.265.927 1.113.505 2.132 1.205 3.018 2.091l77.398 77.398.175.185c.721.793 1.298 1.679 1.731 2.648.609 1.329.928 2.781.928 4.275z" fill="#e4f6ff"/><path d="m352.051 83.249h-72.02c-5.69 0-10.302-4.612-10.302-10.302v-72.02c1.113.505 2.132 1.205 3.018 2.091l77.398 77.398.175.185c.721.794 1.298 1.68 1.731 2.648z" fill="#d3effb"/><path d="m319.682 336.13h-260.268c-5.69 0-10.302-4.612-10.302-10.302v-187.526c0-5.69 4.612-10.302 10.302-10.302h249.966c5.69 0 10.302 4.612 10.302 10.302z" fill="#9dc6fb"/><path d="m319.682 336.13v-123.312c-69.994 3.356-127.368 55.638-138.606 123.312z" fill="#80b4fb"/><path d="m319.682 236.228-57.823-57.823c-4.196-4.196-11.06-3.989-14.995.452l-65.588 74.021-30.861-37.534c-4.016-4.884-11.442-5.031-15.649-.311l-85.653 96.121v14.674c0 5.69 4.612 10.302 10.302 10.302h260.267z" fill="#95d6a4"/><path d="m181.076 336.13h138.606v-99.902l-20.899-20.899c-60.272 11.633-107.611 60.001-117.707 120.801z" fill="#78c2a4"/><path d="m319.682 414.179h-260.268c-5.69 0-10.302-4.612-10.302-10.302v-12.697c0-5.69 4.612-10.302 10.302-10.302h260.267v33.301z" fill="#407093"/><path d="m189.196 414.179h130.485v-33.301h-139.188c1.611 11.579 4.562 22.735 8.703 33.301z" fill="#365e7d"/><g><path d="m453.482 457.473-29.582 29.582c-4.023 4.023-10.546 4.023-14.569 0l-19.206-19.206 44.151-44.151 19.206 19.206c4.023 4.023 4.023 10.546 0 14.569z" fill="#2b4d66"/><path d="m489.995 512h-33.792c-2.732 0-5.353-1.085-7.284-3.017l-23.473-23.473 26.491-26.491 42.43 42.429c3.892 3.894 1.135 10.552-4.372 10.552z" fill="#4a80aa"/><circle cx="326.841" cy="360.415" fill="#dd636e" r="124.878"/><path d="m402.36 260.961c15.95 20.973 25.424 47.138 25.424 75.519 0 68.968-55.91 124.878-124.878 124.878-28.381 0-54.546-9.474-75.519-25.424 22.809 29.992 58.867 49.359 99.454 49.359 68.968 0 124.878-55.91 124.878-124.878 0-40.587-19.367-76.645-49.359-99.454z" fill="#da4a54"/><circle cx="326.841" cy="360.415" fill="#e4f6ff" r="91.577"/><path d="m382.143 287.422c11.66 15.367 18.584 34.525 18.584 55.302 0 50.577-41 91.577-91.577 91.577-20.778 0-39.935-6.924-55.302-18.584 16.723 22.039 43.194 36.275 72.993 36.275 50.577 0 91.577-41.001 91.577-91.577.001-29.799-14.236-56.27-36.275-72.993z" fill="#d3effb"/></g></g></svg>