<svg height="511pt" viewBox="-40 1 511 511.99994" width="511pt" xmlns="http://www.w3.org/2000/svg"><path d="m427.773438 165.0625-160.667969-160.667969c-2.8125-2.8125-6.628907-4.394531-10.605469-4.394531h-200.832031c-30.417969 0-55.167969 24.75-55.167969 55.167969v309.316406c0 6.066406 3.65625 11.535156 9.261719 13.859375 1.855469.769531 3.804687 1.140625 5.734375 1.140625 3.90625 0 7.742187-1.523437 10.613281-4.390625l85.792969-85.796875 69.726562 69.726563c2.8125 2.8125 6.628906 4.394531 10.605469 4.394531 3.980469 0 7.792969-1.578125 10.609375-4.394531l93.824219-93.828126 109.894531 109.894532c4.289062 4.289062 10.742188 5.574218 16.347656 3.253906 5.605469-2.324219 9.257813-7.792969 9.257813-13.859375v-188.816406c0-3.980469-1.582031-7.792969-4.394531-10.605469zm0 0" fill="#fef4f5"/><path d="m427.773438 165.0625-160.667969-160.667969c-2.8125-2.8125-6.628907-4.394531-10.605469-4.394531h-40.167969v345.535156l80.335938-80.339844 109.890625 109.894532c4.292968 4.289062 10.742187 5.574218 16.351562 3.253906 5.601563-2.324219 9.257813-7.792969 9.257813-13.859375v-188.816406c0-3.980469-1.582031-7.792969-4.394531-10.605469zm0 0" fill="#d5eded"/><path d="m427.773438 165.0625-160.667969-160.667969c-4.289063-4.289062-10.742188-5.574219-16.347657-3.25-5.605468 2.320313-9.257812 7.789063-9.257812 13.855469v120.5c0 30.417969 24.746094 55.167969 55.167969 55.167969h120.5c6.0625 0 11.535156-3.65625 13.855469-9.261719 2.324218-5.605469 1.039062-12.054688-3.25-16.34375zm0 0" fill="#76e2f8"/><path d="m427.773438 353.878906-120.5-120.5c-2.8125-2.8125-6.628907-4.394531-10.605469-4.394531-3.976563 0-7.796875 1.582031-10.605469 4.394531l-93.828125 93.824219-69.726563-69.726563c-2.8125-2.8125-6.628906-4.394531-10.605468-4.394531-3.976563 0-7.792969 1.582031-10.605469 4.394531l-96.402344 96.402344c-2.8125 2.8125-4.394531 6.628906-4.394531 10.605469v92.347656c0 30.417969 24.746094 55.167969 55.167969 55.167969h321.332031c30.417969 0 55.167969-24.75 55.167969-55.167969v-92.347656c0-3.980469-1.582031-7.792969-4.394531-10.605469zm0 0" fill="#54e360"/><path d="m427.773438 353.878906-120.5-120.5c-2.8125-2.8125-6.628907-4.394531-10.605469-4.394531-3.976563 0-7.796875 1.582031-10.605469 4.394531l-69.730469 69.726563v208.894531h160.667969c30.417969 0 55.167969-24.746094 55.167969-55.167969v-92.347656c0-3.980469-1.582031-7.792969-4.394531-10.605469zm0 0" fill="#00ab5e"/><path d="m136 92.347656c-30.417969 0-55.164062 24.746094-55.164062 55.167969 0 30.417969 24.746093 55.164063 55.164062 55.164063s55.167969-24.746094 55.167969-55.164063c0-30.421875-24.75-55.167969-55.167969-55.167969zm0 0" fill="#ffd400"/></svg>