<svg id="Layer_1" enable-background="new 0 0 512 512" height="512" viewBox="0 0 512 512" width="512" xmlns="http://www.w3.org/2000/svg"><g><path d="m471.6 97h-229.8c-5.6 0-10.7-3.1-13.2-8.1l-11.3-22.3c-2.5-5-7.6-8.1-13.2-8.1h-163.7c-8.2 0-14.8 6.6-14.8 14.8v365.4c0 8.2 6.6 14.8 14.8 14.8h431.3c8.2 0 14.8-6.6 14.8-14.8v-326.9c-.1-8.2-6.7-14.8-14.9-14.8z" fill="#f0b972"/><path d="m500.7 139.9h-489.4c-5.1 0-9.3 4.2-9.3 9.3v294.9c0 5.1 4.2 9.3 9.3 9.3h489.4c5.1 0 9.3-4.2 9.3-9.3v-294.9c0-5.1-4.2-9.3-9.3-9.3z" fill="#fbd984"/><path d="m46.6 111.4h418.8v28.5h-418.8z" fill="#eff3f5"/><path d="m37 125.6h438.1v14.3h-438.1z" fill="#fff"/></g></svg>