<?xml version="1.0" encoding="iso-8859-1"?>
<!-- Generator: Adobe Illustrator 19.0.0, SVG Export Plug-In . SVG Version: 6.00 Build 0)  -->
<svg version="1.1" id="Capa_1" xmlns="http://www.w3.org/2000/svg" xmlns:xlink="http://www.w3.org/1999/xlink" x="0px" y="0px"
	 viewBox="0 0 512 512" style="enable-background:new 0 0 512 512;" xml:space="preserve">
<circle style="fill:#FFB84D;" cx="256" cy="256" r="256"/>
<path style="fill:#FF8900;" d="M511.549,271.027L323.554,83.033H126.456v163.676h-1.817c-7.54,0-13.652,6.112-13.652,13.652v96.578
	c0,3.88,1.621,7.377,4.221,9.86l11.248,10.489v43.681l87.591,87.591C227.7,510.81,241.71,512,256,512
	C392.339,512,503.768,405.416,511.549,271.027z"/>
<polygon style="fill:#FFFFFF;" points="385.54,420.968 126.456,420.968 126.456,83.032 323.555,83.032 385.54,145.018 "/>
<polygon style="fill:#FFF5CB;" points="385.543,420.968 385.543,145.02 323.556,83.032 255.998,83.032 255.998,420.968 "/>
<polygon style="fill:#00B7BE;" points="323.555,83.032 385.54,145.018 323.555,145.018 "/>
<path style="fill:#0088FF;" d="M387.361,370.591H124.639c-7.54,0-13.652-6.112-13.652-13.652v-96.578
	c0-7.54,6.112-13.652,13.652-13.652H387.36c7.54,0,13.652,6.112,13.652,13.652v96.578
	C401.013,364.478,394.901,370.591,387.361,370.591z"/>
<path style="fill:#004EB1;" d="M401.01,260.36v96.58c0,7.54-6.11,13.65-13.65,13.65H256V246.71h131.36
	C394.9,246.71,401.01,252.82,401.01,260.36z"/>
<g>
	<path style="fill:#FFFFFF;" d="M148.681,343.794v-70.39h25.578c5.751,0,10.79,0.927,15.119,2.776
		c4.328,1.851,7.947,4.362,10.856,7.534c2.907,3.173,5.088,6.891,6.543,11.153c1.453,4.263,2.181,8.809,2.181,13.632
		c0,5.354-0.81,10.196-2.429,14.524c-1.62,4.329-3.95,8.03-6.989,11.103c-3.041,3.073-6.692,5.452-10.955,7.138
		c-4.263,1.685-9.039,2.528-14.326,2.528h-25.578V343.794z M195.178,308.5c0-3.371-0.463-6.477-1.388-9.319
		c-0.927-2.841-2.28-5.287-4.064-7.336c-1.785-2.048-3.983-3.635-6.594-4.759c-2.611-1.123-5.568-1.685-8.873-1.685h-11.896v46.397
		h11.896c3.371,0,6.361-0.595,8.973-1.784c2.61-1.189,4.791-2.826,6.543-4.907c1.751-2.082,3.089-4.544,4.016-7.387
		C194.715,314.879,195.178,311.806,195.178,308.5z"/>
	<path style="fill:#FFFFFF;" d="M254.662,344.29c-5.155,0-9.832-1.007-14.028-3.024c-4.198-2.015-7.8-4.691-10.807-8.03
		c-3.008-3.337-5.338-7.153-6.989-11.45c-1.652-4.296-2.479-8.69-2.479-13.186c0-4.692,0.875-9.186,2.627-13.483
		c1.751-4.296,4.164-8.096,7.237-11.401c3.073-3.304,6.725-5.932,10.955-7.882c4.229-1.948,8.823-2.924,13.78-2.924
		c5.089,0,9.731,1.041,13.93,3.122c4.196,2.082,7.782,4.809,10.757,8.18c2.974,3.37,5.287,7.204,6.94,11.5
		c1.651,4.297,2.478,8.659,2.478,13.087c0,4.693-0.859,9.17-2.577,13.434c-1.72,4.263-4.1,8.03-7.139,11.302
		c-3.041,3.272-6.677,5.883-10.905,7.832C264.211,343.316,259.619,344.29,254.662,344.29z M234.239,308.6
		c0,3.04,0.462,5.982,1.388,8.823c0.925,2.843,2.264,5.353,4.016,7.534c1.75,2.182,3.898,3.934,6.443,5.255
		c2.544,1.322,5.437,1.982,8.675,1.982c3.305,0,6.229-0.677,8.774-2.032c2.543-1.353,4.692-3.155,6.444-5.403
		c1.75-2.246,3.073-4.775,3.965-7.584c0.893-2.809,1.339-5.666,1.339-8.575c0-3.04-0.481-5.982-1.438-8.824
		c-0.959-2.841-2.314-5.354-4.064-7.534c-1.752-2.182-3.901-3.916-6.444-5.205c-2.545-1.289-5.403-1.934-8.576-1.934
		c-3.306,0-6.245,0.679-8.823,2.033c-2.577,1.355-4.726,3.14-6.444,5.353c-1.719,2.215-3.024,4.726-3.916,7.534
		C234.685,302.835,234.239,305.692,234.239,308.6z"/>
</g>
<g>
	<path style="fill:#FFF5CB;" d="M286.58,295.71c-1.65-4.29-3.96-8.13-6.93-11.5c-2.98-3.37-6.57-6.1-10.76-8.18
		c-3.91-1.94-8.21-2.97-12.89-3.11v12.22c2.68,0.14,5.13,0.78,7.34,1.9c2.54,1.29,4.69,3.02,6.44,5.2s3.11,4.7,4.07,7.54
		c0.95,2.84,1.43,5.78,1.43,8.82c0,2.91-0.44,5.77-1.34,8.58c-0.89,2.8-2.21,5.33-3.96,7.58s-3.9,4.05-6.45,5.4
		c-2.22,1.19-4.73,1.85-7.53,2v12.1c4.45-0.15,8.59-1.12,12.44-2.89c4.23-1.95,7.87-4.56,10.91-7.84c3.04-3.27,5.42-7.04,7.14-11.3
		c1.71-4.26,2.57-8.74,2.57-13.43C289.06,304.37,288.24,300.01,286.58,295.71z"/>
	<path style="fill:#FFF5CB;" d="M300.265,308.104c0-4.296,0.776-8.542,2.33-12.739c1.552-4.196,3.816-7.947,6.791-11.253
		c2.974-3.304,6.608-5.98,10.905-8.03c4.296-2.048,9.186-3.073,14.673-3.073c6.477,0,12.078,1.422,16.804,4.263
		c4.726,2.843,8.244,6.544,10.559,11.104l-10.509,7.237c-0.926-1.983-2.049-3.651-3.37-5.007c-1.323-1.354-2.744-2.429-4.264-3.223
		c-1.521-0.793-3.107-1.37-4.759-1.734c-1.652-0.362-3.271-0.546-4.857-0.546c-3.438,0-6.429,0.694-8.973,2.082
		c-2.545,1.389-4.659,3.19-6.345,5.403c-1.686,2.216-2.959,4.727-3.816,7.535c-0.86,2.81-1.289,5.602-1.289,8.377
		c0,3.107,0.495,6.098,1.487,8.973c0.991,2.875,2.395,5.402,4.213,7.584c1.817,2.181,3.998,3.933,6.543,5.254
		c2.544,1.323,5.337,1.983,8.378,1.983c1.586,0,3.237-0.198,4.957-0.595c1.718-0.397,3.354-1.024,4.907-1.884
		c1.552-0.858,2.99-1.966,4.313-3.321c1.321-1.354,2.38-2.99,3.173-4.907l11.203,6.443c-1.125,2.645-2.727,4.975-4.808,6.99
		c-2.082,2.017-4.429,3.718-7.039,5.105c-2.611,1.388-5.403,2.445-8.377,3.172c-2.975,0.727-5.884,1.091-8.725,1.091
		c-5.023,0-9.617-1.057-13.78-3.173c-4.164-2.114-7.75-4.873-10.757-8.277c-3.009-3.403-5.353-7.271-7.039-11.6
		C301.108,317.011,300.265,312.599,300.265,308.104z"/>
</g>
<g>
</g>
<g>
</g>
<g>
</g>
<g>
</g>
<g>
</g>
<g>
</g>
<g>
</g>
<g>
</g>
<g>
</g>
<g>
</g>
<g>
</g>
<g>
</g>
<g>
</g>
<g>
</g>
<g>
</g>
</svg>
