<?xml version="1.0" encoding="iso-8859-1"?>
<!-- Generator: Adobe Illustrator 19.0.0, SVG Export Plug-In . SVG Version: 6.00 Build 0)  -->
<svg version="1.1" id="Layer_1" xmlns="http://www.w3.org/2000/svg" xmlns:xlink="http://www.w3.org/1999/xlink" x="0px" y="0px"
	 viewBox="0 0 512 512" style="enable-background:new 0 0 512 512;" xml:space="preserve">
<circle style="fill:#00B0FF;" cx="256" cy="256" r="256"/>
<path style="fill:#2979FF;" d="M144.291,124.928c0-9.872,8.001-17.873,17.873-17.873h131.072l74.473,62.557v217.46
	c0,9.872-8.001,17.873-17.873,17.873H162.164c-9.872,0-17.873-8.001-17.873-17.873V124.928z"/>
<path style="fill:#2962FF;" d="M293.236,107.055v44.684c0,9.872,8.001,17.873,17.873,17.873h56.599"/>
<g>
	<path style="fill:#FFFFFF;" d="M194.472,317.347h-17.506v-64.526h16.389c16.575,0,32.405,5.306,32.405,31.939
		C225.759,311.012,210.581,317.347,194.472,317.347z M195.589,263.992h-3.165v42.179h3.165c8.471,0,14.15-4.561,14.15-21.416
		C209.743,267.534,203.692,263.992,195.589,263.992z"/>
	<path style="fill:#FFFFFF;" d="M256.009,318.929c-16.947,0-25.889-12.94-25.889-33.89c0-20.485,8.941-33.894,25.889-33.894
		c16.947,0,25.884,12.944,25.884,33.894C281.893,305.52,272.957,318.929,256.009,318.929z M256.009,262.409
		c-7.173,0-10.054,6.8-10.054,22.63c0,15.825,2.979,22.621,10.054,22.621c7.354,0,10.054-6.982,10.054-22.621
		C266.063,269.21,263.173,262.409,256.009,262.409z"/>
	<path style="fill:#FFFFFF;" d="M330.482,267.255c-3.537-2.886-7.261-4.659-12.195-4.659c-8.844,0-15.178,6.614-15.178,22.351
		c0,15.458,5.962,22.063,14.811,22.063c6.326,0,10.333-2.607,13.964-5.399l6.982,8.937c-4.748,4.561-11.734,8.378-21.974,8.378
		c-17.78,0-29.891-11.827-29.891-33.983c0-21.606,12.944-33.801,30.171-33.801c9.309,0,15.453,2.797,20.852,7.173L330.482,267.255z"
		/>
</g>
<g>
</g>
<g>
</g>
<g>
</g>
<g>
</g>
<g>
</g>
<g>
</g>
<g>
</g>
<g>
</g>
<g>
</g>
<g>
</g>
<g>
</g>
<g>
</g>
<g>
</g>
<g>
</g>
<g>
</g>
</svg>
