<?xml version="1.0" encoding="iso-8859-1"?>
<!-- Generator: Adobe Illustrator 19.0.0, SVG Export Plug-In . SVG Version: 6.00 Build 0)  -->
<svg version="1.1" id="Layer_1" xmlns="http://www.w3.org/2000/svg" xmlns:xlink="http://www.w3.org/1999/xlink" x="0px" y="0px"
	 viewBox="0 0 512 512" style="enable-background:new 0 0 512 512;" xml:space="preserve">
<circle style="fill:#88C5CC;" cx="256" cy="256" r="256"/>
<path style="fill:#F5F5F5;" d="M196,76h176c4.4,0,8,3.6,8,8v328c0,4.4-3.6,8-8,8H124c-4.4,0-8-3.6-8-8V160L196,76z"/>
<path style="fill:#E6E6E6;" d="M188,160c4.4,0,8-3.6,8-8V76l-80,84H188z"/>
<path style="fill:#2179A6;" d="M428,368c0,8.8-7.2,16-16,16H268c-8.8,0-16-7.2-16-16v-64c0-8.8,7.2-16,16-16h144c8.8,0,16,7.2,16,16
	V368z"/>
<g>
	<path style="fill:#F5F5F5;" d="M291.504,321.272h12.816c2.892,0,5.092,0.224,6.608,0.664c2.036,0.596,3.776,1.664,5.236,3.196
		c1.452,1.528,2.564,3.408,3.316,5.624c0.752,2.224,1.136,4.952,1.136,8.212c0,2.856-0.36,5.324-1.064,7.392
		c-0.872,2.532-2.108,4.572-3.724,6.136c-1.216,1.184-2.86,2.104-4.924,2.768c-1.548,0.492-3.616,0.736-6.204,0.736h-13.192
		L291.504,321.272L291.504,321.272z M298.516,327.148v23h5.236c1.96,0,3.376-0.108,4.244-0.332c1.136-0.284,2.08-0.768,2.832-1.444
		c0.752-0.68,1.364-1.792,1.836-3.352c0.476-1.556,0.712-3.676,0.712-6.36s-0.236-4.748-0.712-6.18
		c-0.472-1.436-1.136-2.56-1.988-3.364c-0.852-0.808-1.936-1.352-3.252-1.636c-0.976-0.224-2.9-0.332-5.752-0.332L298.516,327.148
		L298.516,327.148z"/>
	<path style="fill:#F5F5F5;" d="M325.14,338.848c0-3.536,0.528-6.504,1.584-8.912c0.788-1.764,1.868-3.352,3.236-4.756
		s2.864-2.444,4.492-3.124c2.164-0.916,4.656-1.376,7.484-1.376c5.116,0,9.212,1.584,12.28,4.756
		c3.076,3.172,4.608,7.588,4.608,13.244c0,5.608-1.524,9.996-4.572,13.16c-3.052,3.168-7.124,4.748-12.228,4.748
		c-5.164,0-9.272-1.576-12.32-4.724C326.664,348.72,325.14,344.376,325.14,338.848z M332.364,338.608
		c0,3.932,0.912,6.916,2.724,8.944c1.82,2.024,4.12,3.04,6.916,3.04s5.088-1.008,6.88-3.016c1.792-2.016,2.688-5.036,2.688-9.064
		c0-3.98-0.872-6.944-2.616-8.908c-1.744-1.956-4.064-2.936-6.948-2.936c-2.896,0-5.224,0.992-6.988,2.972
		C333.252,331.628,332.364,334.616,332.364,338.608z"/>
	<path style="fill:#F5F5F5;" d="M386.516,343.236l6.8,2.156c-1.044,3.784-2.776,6.6-5.2,8.44s-5.5,2.76-9.228,2.76
		c-4.616,0-8.404-1.58-11.372-4.728c-2.972-3.148-4.456-7.46-4.456-12.92c0-5.776,1.492-10.264,4.484-13.464
		c2.98-3.2,6.908-4.796,11.768-4.796c4.248,0,7.7,1.252,10.352,3.76c1.584,1.484,2.76,3.616,3.552,6.4l-6.936,1.66
		c-0.416-1.8-1.268-3.224-2.576-4.26c-1.3-1.048-2.888-1.568-4.752-1.568c-2.572,0-4.66,0.924-6.26,2.768
		c-1.596,1.852-2.404,4.844-2.404,8.984c0,4.392,0.788,7.516,2.368,9.38s3.632,2.792,6.16,2.792c1.864,0,3.464-0.588,4.808-1.772
		C384.968,347.64,385.928,345.772,386.516,343.236z"/>
</g>
<g>
</g>
<g>
</g>
<g>
</g>
<g>
</g>
<g>
</g>
<g>
</g>
<g>
</g>
<g>
</g>
<g>
</g>
<g>
</g>
<g>
</g>
<g>
</g>
<g>
</g>
<g>
</g>
<g>
</g>
</svg>
