<svg height="512" viewBox="0 0 64 64" width="512" xmlns="http://www.w3.org/2000/svg"><g id="Flat"><path d="m12 37v-32a2 2 0 0 1 2-2h26l12 12v22" fill="#d6d6d4"/><path d="m52 57v2a2 2 0 0 1 -2 2h-36a2 2 0 0 1 -2-2v-2" fill="#d6d6d4"/><path d="m40 3v12h12" fill="#44546c"/><rect fill="#348fd9" height="20" rx="2" width="46" x="9" y="37"/><path d="m46 26h-28a1 1 0 0 1 0-2h28a1 1 0 0 1 0 2z" fill="#44546c"/><path d="m46 32h-28a1 1 0 0 1 0-2h28a1 1 0 0 1 0 2z" fill="#44546c"/><g fill="#d6d6d4"><path d="m22.84 41.61a5.56 5.56 0 0 1 1.56.2 3 3 0 0 1 1.26.66 3.24 3.24 0 0 1 .84 1.18 4.59 4.59 0 0 1 .3 1.76v4.16a4.61 4.61 0 0 1 -.3 1.77 3.29 3.29 0 0 1 -.84 1.17 3 3 0 0 1 -1.26.66 6 6 0 0 1 -1.56.2h-2.84a1.29 1.29 0 0 1 -.8-.22.66.66 0 0 1 -.3-.53v-10.26a.66.66 0 0 1 .3-.53 1.29 1.29 0 0 1 .8-.22zm-1.43 2.19v7.38h1.43a1.45 1.45 0 0 0 1.07-.39 1.71 1.71 0 0 0 .38-1.22v-4.16a1.71 1.71 0 0 0 -.38-1.22 1.45 1.45 0 0 0 -1.07-.39z"/><path d="m32.21 53.47a5.82 5.82 0 0 1 -1.55-.2 3.1 3.1 0 0 1 -2.09-1.84 4.52 4.52 0 0 1 -.3-1.76v-4.26a4.59 4.59 0 0 1 .3-1.76 3.24 3.24 0 0 1 .84-1.18 3.07 3.07 0 0 1 1.25-.66 5.44 5.44 0 0 1 1.55-.2 5.56 5.56 0 0 1 1.56.2 3.17 3.17 0 0 1 1.26.66 3.11 3.11 0 0 1 .83 1.18 4.4 4.4 0 0 1 .31 1.76v4.26a4.33 4.33 0 0 1 -.31 1.76 3.19 3.19 0 0 1 -.86 1.18 3.45 3.45 0 0 1 -1.26.66 6 6 0 0 1 -1.53.2zm1.45-8.06a1.68 1.68 0 0 0 -.39-1.23 1.42 1.42 0 0 0 -1.06-.38 1.38 1.38 0 0 0 -1.05.38 1.68 1.68 0 0 0 -.38 1.23v4.26a1.64 1.64 0 0 0 .38 1.22 1.39 1.39 0 0 0 1.05.39 1.43 1.43 0 0 0 1.06-.39 1.64 1.64 0 0 0 .39-1.22z"/><path d="m43 45.24a3.43 3.43 0 0 0 0-.4 1.09 1.09 0 0 0 -.18-.47 1.19 1.19 0 0 0 -.43-.4 1.45 1.45 0 0 0 -.79-.17 1.42 1.42 0 0 0 -1.07.39 1.71 1.71 0 0 0 -.38 1.22v4.26a1.73 1.73 0 0 0 .38 1.22 1.43 1.43 0 0 0 1.08.39 1.46 1.46 0 0 0 .76-.16 1.19 1.19 0 0 0 .6-.93 5.19 5.19 0 0 0 .06-.52.64.64 0 0 1 .39-.6 2.08 2.08 0 0 1 .85-.16 1.54 1.54 0 0 1 1 .24 1.12 1.12 0 0 1 .31 1 3.18 3.18 0 0 1 -.31 1.44 2.8 2.8 0 0 1 -.85 1.05 3.77 3.77 0 0 1 -1.28.65 5.43 5.43 0 0 1 -1.6.23 5.58 5.58 0 0 1 -1.49-.2 3.49 3.49 0 0 1 -1.23-.66 3.33 3.33 0 0 1 -.82-1.23 4.52 4.52 0 0 1 -.3-1.76v-4.26a4.59 4.59 0 0 1 .3-1.76 3.24 3.24 0 0 1 .84-1.18 3.19 3.19 0 0 1 1.16-.66 5.21 5.21 0 0 1 1.49-.2 5.79 5.79 0 0 1 1.6.21 3.72 3.72 0 0 1 1.28.62 2.81 2.81 0 0 1 .85 1 2.88 2.88 0 0 1 .31 1.37 1.16 1.16 0 0 1 -.31 1 1.59 1.59 0 0 1 -.94.23 2 2 0 0 1 -.87-.16.66.66 0 0 1 -.41-.64z"/></g></g></svg>