<svg id="Artwork" height="512" viewBox="0 0 512 512" width="512" xmlns="http://www.w3.org/2000/svg"><path d="m453.06 109.29a10 10 0 0 0 -2.93-7.07l-99.42-99.42a10 10 0 0 0 -7.07-2.93h-274.42a10 10 0 0 0 -10 10v492a10 10 0 0 0 10 10h373.84a10 10 0 0 0 10-10z" fill="#f1f1f1"/><path d="m452.73 106.8a9.88 9.88 0 0 0 -2.6-4.58l-99.42-99.42a10 10 0 0 0 -7.07-2.93v94.92a12 12 0 0 0 12 12z" fill="#ccc"/><path d="m452.73 106.8h-97.08a12 12 0 0 1 -12-12v10.15c0 6.63 4.12 15 12.38 15h97v-10.66a6.46 6.46 0 0 0 -.3-2.49z" fill="#e8e8e8"/><path d="m59.21 215.34-27.01 27.09h27.01z" fill="#088faf"/><path d="m452.73 215.34 27.02 27.09h-27.02z" fill="#088faf"/><path d="m472.11 412.17h-432.22a10 10 0 0 1 -10-10v-153.34a10 10 0 0 1 10-10h432.22a10 10 0 0 1 10 10v153.33a10 10 0 0 1 -10 10.01z" fill="#29abe1"/><path d="m59.21 412.17h393.85v12.97h-393.85z" fill="#e0e0e0"/><g fill="#fff"><path d="m153.1 364.25a8.49 8.49 0 0 1 -2.2-6.3v-53.53a7.68 7.68 0 0 1 8.5-8.5h20.21q11.7 0 20.16 4.25a30.09 30.09 0 0 1 13 12.16q4.5 7.91 4.5 18.81t-4.45 19a29.38 29.38 0 0 1 -12.91 12.15q-8.46 4.2-20.26 4.21h-20.25a8.5 8.5 0 0 1 -6.3-2.25zm25.21-12.6q10.31 0 15.46-5.06t5.15-15.45q0-10.41-5.15-15.41t-15.46-5h-9v40.92z"/><path d="m243 362.9a30.31 30.31 0 0 1 -12.25-12.6 44.74 44.74 0 0 1 0-38.32 30 30 0 0 1 12.25-12.56 42.19 42.19 0 0 1 37.52 0 29.83 29.83 0 0 1 12.2 12.58 40.92 40.92 0 0 1 4.28 19.14 40.48 40.48 0 0 1 -4.3 19.16 30.39 30.39 0 0 1 -12.26 12.6 41.47 41.47 0 0 1 -37.42 0zm31.27-15.3q4.5-5.66 4.5-16.46t-4.55-16.41q-4.56-5.61-12.46-5.6t-12.5 5.55q-4.51 5.55-4.51 16.46t4.51 16.51q4.5 5.6 12.5 5.6t12.5-5.65z"/><path d="m322.73 363a30.25 30.25 0 0 1 -12.3-12.6 44.28 44.28 0 0 1 0-38.32 30.34 30.34 0 0 1 12.3-12.61 40.87 40.87 0 0 1 40.87 2.3 7.73 7.73 0 0 1 2.45 2.6 7.64 7.64 0 0 1 .75 3.61 8.05 8.05 0 0 1 -1.75 5.25 5.3 5.3 0 0 1 -4.25 2.15 7.65 7.65 0 0 1 -2.7-.45 16.1 16.1 0 0 1 -2.8-1.45 28.62 28.62 0 0 0 -6.6-3 22.93 22.93 0 0 0 -6.41-.9q-8.9 0-13.25 5.35t-4.36 16.26q0 11 4.36 16.36t13.25 5.35a18.1 18.1 0 0 0 5.81-1q2.79-1 7.2-2.95a33.43 33.43 0 0 1 3.1-1.5 6.42 6.42 0 0 1 2.4-.4 5.27 5.27 0 0 1 4.25 2.15 8 8 0 0 1 1.75 5.25 7.67 7.67 0 0 1 -.75 3.55 7.5 7.5 0 0 1 -2.45 2.65 40.8 40.8 0 0 1 -40.87 2.3z"/></g></svg>