<svg height="512" viewBox="0 0 64 64" width="512" xmlns="http://www.w3.org/2000/svg"><g id="Flat"><path d="m12 37v-32a2 2 0 0 1 2-2h26l12 12v22" fill="#d6d6d4"/><path d="m52 57v2a2 2 0 0 1 -2 2h-36a2 2 0 0 1 -2-2v-2" fill="#d6d6d4"/><path d="m40 3v12h12" fill="#44546c"/><rect fill="#7eb457" height="20" rx="2" width="46" x="9" y="37"/><path d="m46 26h-28a1 1 0 0 1 0-2h28a1 1 0 0 1 0 2z" fill="#44546c"/><path d="m46 32h-28a1 1 0 0 1 0-2h28a1 1 0 0 1 0 2z" fill="#44546c"/><g fill="#d6d6d4"><path d="m19 49.22-2.35 4a.48.48 0 0 1 -.25.19.78.78 0 0 1 -.35.07 1.7 1.7 0 0 1 -.56-.1 2.07 2.07 0 0 1 -.54-.26 1.57 1.57 0 0 1 -.41-.4.79.79 0 0 1 -.16-.48.94.94 0 0 1 .14-.45l2.79-4.3-2.67-4.29a1 1 0 0 1 -.16-.5.74.74 0 0 1 .16-.47 1.41 1.41 0 0 1 .39-.38 2.08 2.08 0 0 1 .52-.25 1.87 1.87 0 0 1 .56-.09.81.81 0 0 1 .76.42l2.13 3.73 2.14-3.73a.78.78 0 0 1 .75-.42 1.86 1.86 0 0 1 .55.09 2 2 0 0 1 .53.25 1.61 1.61 0 0 1 .4.38.8.8 0 0 1 .15.47 1 1 0 0 1 -.16.5l-2.66 4.28 2.78 4.3a.84.84 0 0 1 .14.45.79.79 0 0 1 -.16.48 1.57 1.57 0 0 1 -.41.4 2.07 2.07 0 0 1 -.54.26 1.7 1.7 0 0 1 -.56.1.78.78 0 0 1 -.35-.07.42.42 0 0 1 -.24-.19z"/><path d="m25.72 53.37a1.48 1.48 0 0 1 -.76-.19.62.62 0 0 1 -.34-.58v-10.24a.6.6 0 0 1 .4-.58 2.2 2.2 0 0 1 .86-.17 2.24 2.24 0 0 1 .86.17.61.61 0 0 1 .39.58v8.82h3.67a.59.59 0 0 1 .55.34 1.61 1.61 0 0 1 .18.76 1.54 1.54 0 0 1 -.18.75.58.58 0 0 1 -.55.34z"/><path d="m35.81 51.28a2.64 2.64 0 0 0 .55-.06 1.62 1.62 0 0 0 .51-.18 1.15 1.15 0 0 0 .36-.33.88.88 0 0 0 .14-.49 1.06 1.06 0 0 0 -.37-.82 5.1 5.1 0 0 0 -.94-.61l-1.23-.58a5.69 5.69 0 0 1 -1.24-.73 4 4 0 0 1 -.94-1.06 3.49 3.49 0 0 1 0-3.11 2.92 2.92 0 0 1 .94-1 3.85 3.85 0 0 1 1.32-.58 5.8 5.8 0 0 1 1.49-.19c.22 0 .51 0 .87.05a6.37 6.37 0 0 1 1.06.19 2.69 2.69 0 0 1 .9.43.9.9 0 0 1 .38.75 1.54 1.54 0 0 1 -.06.38 1.85 1.85 0 0 1 -.18.44 1 1 0 0 1 -.31.35.72.72 0 0 1 -.45.15.92.92 0 0 1 -.41-.1l-.42-.21a5.37 5.37 0 0 0 -.55-.21 3.18 3.18 0 0 0 -.83-.09 2 2 0 0 0 -1.23.29.84.84 0 0 0 -.37.67.82.82 0 0 0 .37.68 5.86 5.86 0 0 0 1 .53l1.23.55a5.64 5.64 0 0 1 1.23.77 4 4 0 0 1 .94 1.14 3.44 3.44 0 0 1 .31 1.7 3.74 3.74 0 0 1 -.3 1.54 3.21 3.21 0 0 1 -.84 1.12 3.73 3.73 0 0 1 -1.28.68 5.49 5.49 0 0 1 -1.61.23 6.54 6.54 0 0 1 -1.49-.17 5.26 5.26 0 0 1 -1.24-.47 2.76 2.76 0 0 1 -.84-.67 1.23 1.23 0 0 1 -.3-.78 1.17 1.17 0 0 1 .08-.44 1.88 1.88 0 0 1 .24-.44 1.33 1.33 0 0 1 .34-.33.71.71 0 0 1 .43-.14.92.92 0 0 1 .54.18l.55.41a3.49 3.49 0 0 0 .69.41 2.13 2.13 0 0 0 .96.15z"/><path d="m45 49.22-2.35 4a.48.48 0 0 1 -.25.19.78.78 0 0 1 -.35.07 1.7 1.7 0 0 1 -.56-.1 2.07 2.07 0 0 1 -.54-.26 1.57 1.57 0 0 1 -.41-.4.79.79 0 0 1 -.16-.48.84.84 0 0 1 .14-.45l2.78-4.3-2.67-4.29a1 1 0 0 1 -.16-.5.74.74 0 0 1 .16-.47 1.41 1.41 0 0 1 .39-.38 2.08 2.08 0 0 1 .52-.25 1.87 1.87 0 0 1 .56-.09.78.78 0 0 1 .75.42l2.15 3.73 2.13-3.73a.81.81 0 0 1 .76-.42 1.86 1.86 0 0 1 .55.09 2 2 0 0 1 .53.25 1.41 1.41 0 0 1 .39.38.74.74 0 0 1 .16.47 1 1 0 0 1 -.16.5l-2.68 4.28 2.79 4.3a.84.84 0 0 1 .14.45.79.79 0 0 1 -.16.48 1.57 1.57 0 0 1 -.41.4 2.07 2.07 0 0 1 -.54.26 1.7 1.7 0 0 1 -.56.1.78.78 0 0 1 -.35-.07.48.48 0 0 1 -.25-.19z"/></g></g></svg>