<svg id="Capa_1" enable-background="new 0 0 494.732 494.732" height="512" viewBox="0 0 494.732 494.732" width="512" xmlns="http://www.w3.org/2000/svg"><g><path d="m63.544 391.815v80.497c0 12.382 10.038 22.42 22.42 22.42h322.804c12.382 0 22.42-10.038 22.42-22.42v-80.497l-196.341-20z" fill="#08b865"/><path d="m401.188 391.815v80.497c0 12.382-10.038 22.42-22.42 22.42h30c12.382 0 22.42-10.038 22.42-22.42v-80.497l-14.921-10z" fill="#09a755"/><path d="m431.188 391.501v-369.081c0-12.382-10.038-22.42-22.42-22.42h-322.804c-12.382 0-22.42 10.038-22.42 22.42v369.081z" fill="#edf5fa"/><g fill="#d0e7f2"><path d="m401.188 22.42v369.081h30v-369.081c0-12.382-10.038-22.42-22.42-22.42h-30c12.382 0 22.42 10.038 22.42 22.42z"/><path d="m185.493 289.448c0 4.142 3.358 7.5 7.5 7.5h70.792c4.142 0 7.5-3.358 7.5-7.5s-3.358-7.5-7.5-7.5h-70.792c-4.142 0-7.5 3.358-7.5 7.5z"/><path d="m263.784 318.055h-70.792c-4.142 0-7.5 3.358-7.5 7.5s3.358 7.5 7.5 7.5h70.792c4.142 0 7.5-3.358 7.5-7.5s-3.358-7.5-7.5-7.5z"/><path d="m156.678 281.948h-13.438c-4.142 0-7.5 3.358-7.5 7.5s3.358 7.5 7.5 7.5h13.438c4.142 0 7.5-3.358 7.5-7.5s-3.358-7.5-7.5-7.5z"/><path d="m156.678 318.055h-13.438c-4.142 0-7.5 3.358-7.5 7.5s3.358 7.5 7.5 7.5h13.438c4.142 0 7.5-3.358 7.5-7.5s-3.358-7.5-7.5-7.5z"/></g><path d="m215.104 94.053-29.508-16.967c-.021-.012-.042-.02-.063-.032-.147-.083-.299-.157-.451-.23-.074-.035-.147-.074-.221-.106-.142-.062-.288-.115-.434-.169-.091-.033-.18-.07-.271-.099-.121-.039-.245-.069-.368-.102-.12-.032-.24-.067-.361-.093-.097-.021-.197-.034-.296-.051-.149-.026-.298-.052-.448-.068-.085-.009-.172-.012-.258-.019-.164-.012-.329-.023-.493-.025-.025 0-.048-.004-.073-.004-.069 0-.137.009-.206.01-.152.004-.303.009-.454.023-.116.01-.23.026-.344.042-.122.017-.245.033-.366.056-.132.024-.261.054-.391.086-.103.025-.205.05-.307.079-.135.039-.268.083-.4.129-.097.034-.193.068-.289.105-.126.05-.249.104-.371.16-.102.047-.203.094-.303.146-.108.056-.214.115-.318.175-.11.063-.219.129-.326.198-.089.058-.175.118-.262.179-.115.081-.228.165-.339.253-.075.06-.148.122-.221.185-.111.095-.219.193-.325.295-.072.069-.14.141-.209.214-.095.1-.19.202-.28.308-.077.091-.149.185-.222.279-.073.095-.146.188-.215.287-.085.121-.163.247-.241.374-.037.061-.079.117-.115.179-.013.022-.022.045-.034.067-.08.142-.151.288-.222.435-.038.079-.079.157-.114.236-.06.137-.111.278-.163.419-.035.095-.074.19-.105.286-.037.117-.067.237-.099.356-.033.124-.069.248-.096.373-.02.094-.033.191-.05.287-.026.152-.053.304-.07.456-.009.084-.012.169-.019.254-.012.166-.024.331-.025.496 0 .025-.004.048-.004.073v60.275c-4.416-2.18-9.477-3.178-14.724-2.607-14.708 1.597-25.374 14.861-23.776 29.568 1.49 13.728 13.146 23.935 26.651 23.935.964 0 1.937-.052 2.916-.159 13.712-1.488 23.906-13.119 23.93-26.606 0-.022.003-.043.003-.066v-.112c0-.024 0-.048 0-.073v-71.191l18.27 10.505c1.178.677 2.463 1 3.731 1 2.597 0 5.122-1.35 6.509-3.763 2.068-3.591.831-8.176-2.76-10.241z" fill="#b7d9eb"/><path d="m360.704 73.774h-63.232c-4.142 0-7.5 3.358-7.5 7.5v61.887c-3.688-1.866-7.852-2.924-12.26-2.924-15.031 0-27.26 12.229-27.26 27.26s12.229 27.26 27.26 27.26 27.26-12.229 27.26-27.26v-78.723h48.232v54.387c-3.689-1.866-7.852-2.924-12.261-2.924-15.031 0-27.26 12.229-27.26 27.26s12.229 27.26 27.26 27.26c15.032 0 27.261-12.229 27.261-27.26v-86.223c0-4.142-3.358-7.5-7.5-7.5z" fill="#b7d9eb"/><path d="m189.358 217.929c0-4.142-3.358-7.5-7.5-7.5h-38.658c-4.142 0-7.5 3.358-7.5 7.5s3.358 7.5 7.5 7.5h38.658c4.142 0 7.5-3.358 7.5-7.5z" fill="#d0e7f2"/><path d="m257.784 225.429h38.658 64.262c4.142 0 7.5-3.358 7.5-7.5s-3.358-7.5-7.5-7.5h-64.262-38.658c-4.142 0-7.5 3.358-7.5 7.5s3.358 7.5 7.5 7.5z" fill="#d0e7f2"/><path d="m223.304 415.305c-3.985 0-5.763.479-8.65 5.548l-6.56 11.464-6.559-11.463c-2.888-5.07-4.666-5.549-8.651-5.549-2.802 0-5.796 1.523-5.796 5.796v41.08c0 2.583 3.005 3.76 5.796 3.76s5.796-1.177 5.796-3.76v-24.183l5.507 10.087c.775 1.485 2.043 2.238 3.771 2.238 1.21 0 2.88-.384 3.961-2.215l5.588-9.546v23.619c0 2.583 3.005 3.76 5.796 3.76s5.796-1.177 5.796-3.76v-41.08c.001-4.273-2.993-5.796-5.795-5.796z" fill="#edf5fa"/><path d="m259.362 415.305h-14.056c-2.53 0-4.438 1.587-4.438 3.691v43.186c0 2.583 3.005 3.76 5.796 3.76s5.796-1.177 5.796-3.76v-14.167h6.222c11.094 0 17.204-5.772 17.204-16.253v-.339c0-10.394-5.868-16.118-16.524-16.118zm-.68 23.562h-6.222v-13.327h6.222c3.724 0 5.611 2.116 5.611 6.29v.747c.001 4.174-1.887 6.29-5.611 6.29z" fill="#edf5fa"/><path d="m310.411 439.161c2.817-1.899 4.588-6.095 4.588-11.065 0-8.367-5.409-12.79-15.643-12.79-11.796 0-15.981 6.817-15.981 12.654 0 3.585.867 4.778 6 4.778 3.723 0 5.457-1.389 5.457-4.37 0-1.83.757-2.963 4.524-2.963 3.171 0 4.524 1.313 4.524 4.389 0 4.938-2.172 5.339-4.796 5.339-2.227 0-3.556 1.71-3.556 4.574s1.329 4.574 3.556 4.574c3.716 0 6.019.825 6.019 4.933v1.29c0 4.195-1.45 5.611-5.747 5.611-3.73 0-5.543-1.125-5.543-3.438 0-3.014-1.497-4.031-5.933-4.031-3.583 0-5.524.696-5.524 4.371 0 6.422 5.213 13.333 16.66 13.333 11.236 0 17.68-5.775 17.68-15.846v-1.29c0-4.786-2.113-8.163-6.285-10.053z" fill="#edf5fa"/></g></svg>