<svg id="Capa_1" enable-background="new 0 0 512 512" height="512" viewBox="0 0 512 512" width="512" xmlns="http://www.w3.org/2000/svg"><g><g><path d="m79.339 20.645c0-11.402 9.243-20.645 20.645-20.645h255.427l95.935 95.935v395.42c0 11.402-9.243 20.645-20.645 20.645h-330.717c-11.402 0-20.645-9.243-20.645-20.645z" fill="#e6e2e6"/><path d="m380.835 445.994h-315.03c-2.845 0-5.151-2.306-5.151-5.151v-137.137c0-2.845 2.306-5.151 5.151-5.151h315.031c2.845 0 5.151 2.306 5.151 5.151v137.137c0 2.845-2.307 5.151-5.152 5.151z" fill="#ff4755"/><path d="m65.805 445.994h315.031c2.845 0 5.151-2.306 5.151-5.151v-13.429h-325.334v13.429c0 2.845 2.307 5.151 5.152 5.151z" fill="#fc2b3a"/><path d="m355.411 93.87c0 11.402 9.243 20.645 20.645 20.645h75.29v-18.58l-95.935-95.935z" fill="#d8d1d7"/><path d="m376.057 95.935h75.29l-95.936-95.935v75.29c0 11.402 9.244 20.645 20.646 20.645z" fill="#8c808a"/><path d="m385.987 418.177v22.665c0 2.845-2.306 5.151-5.151 5.151h-301.497v18.581h301.486c2.85 0 5.161-2.311 5.161-5.161z" fill="#d8d1d7"/></g><g><g fill="#f7f5f7"><path d="m187.175 421.372c4.276 0 7.742-3.488 7.742-7.764v-78.44c0-3.249-2.11-6.228-5.176-7.305-3.265-1.146-6.997.074-8.953 2.929l-20.496 29.919-20.497-29.919c-1.918-2.799-5.436-4.023-8.677-3.02-3.241 1.004-5.452 4.001-5.452 7.395v78.485c0 4.276 3.466 7.72 7.742 7.72s7.742-3.488 7.742-7.764v-53.441l12.755 18.618c3.023 4.412 9.751 4.412 12.774 0l12.755-18.618v53.485c-.001 4.276 3.466 7.72 7.741 7.72z"/><path d="m220.185 327.311c-4.276 0-7.742 3.466-7.742 7.742v44.945 33.655c0 4.276 3.466 7.742 7.742 7.742s7.742-3.466 7.742-7.742v-25.913h6.601c16.66 0 30.214-13.554 30.214-30.214s-13.554-30.214-30.214-30.214h-14.343zm29.074 30.214c0 8.122-6.608 14.73-14.73 14.73h-6.601v-29.461h6.601c8.122.001 14.73 6.609 14.73 14.731z"/><path d="m299.829 327.311c-15.104 0-27.392 12.288-27.392 27.392 0 4.276 3.466 7.742 7.742 7.742s7.742-3.466 7.742-7.742c0-6.566 5.342-11.908 11.908-11.908s11.908 5.342 11.908 11.908-5.342 11.908-11.908 11.908c-4.276 0-7.742 3.466-7.742 7.742s3.466 7.742 7.742 7.742c6.566 0 11.908 5.342 11.908 11.908s-5.342 11.908-11.908 11.908-11.908-5.342-11.908-11.908c0-4.276-3.466-7.742-7.742-7.742s-7.742 3.466-7.742 7.742c0 15.104 12.288 27.392 27.392 27.392s27.392-12.288 27.392-27.392c0-7.701-3.194-14.669-8.327-19.65 5.133-4.981 8.327-11.95 8.327-19.65 0-15.104-12.288-27.392-27.392-27.392z"/></g><path d="m320.997 125.56c0-9.322-8.311-16.852-17.591-15.921l-74.142 7.412c-8.214.821-14.409 7.666-14.409 15.921v71.226c-3.165-1.403-6.66-2.197-10.338-2.219-.052 0-.104-.001-.157-.001-14.251 0-25.889 11.551-25.975 25.823-.084 14.161 11.661 26.047 25.822 26.132 14.135 0 26.132-11.622 26.132-25.868v-95.092c0-.267.2-.487.465-.514l74.143-7.412c.3-.029.567.212.567.514v69.561c-9.659-4.266-21.25-2.12-28.752 5.294-4.935 4.877-7.676 11.384-7.718 18.323-.085 14.323 11.498 26.045 25.822 26.131 14.135 0 26.131-11.622 26.131-25.868zm-116.634 112.889c-.021 0-.042 0-.064 0-5.786-.034-10.465-4.77-10.43-10.556.034-5.765 4.735-10.431 10.492-10.431h.064c5.785.034 10.465 4.77 10.43 10.556-.034 5.765-4.734 10.431-10.492 10.431zm90.66-9.064c-.021 0-.043 0-.065 0-5.785-.034-10.465-4.77-10.43-10.555.034-5.695 4.796-10.43 10.491-10.43 5.744 0 10.53 4.811 10.494 10.556-.033 5.693-4.795 10.429-10.49 10.429z" fill="#8bcaff"/></g></g></svg>