<svg xmlns="http://www.w3.org/2000/svg" viewBox="0 0 30.09 34.38"><defs><style>.cls-1{fill:#e2e5e7;}.cls-2{fill:#cad1d8;}.cls-3,.cls-4{fill:#f4a338;}.cls-4{opacity:0.6;}.cls-5{fill:#fff;}.cls-6{fill:#b0b7bd;}</style></defs><g id="Layer_2" data-name="Layer 2"><g id="Layer_1-2" data-name="Layer 1"><path class="cls-1" d="M6.45,0A2.16,2.16,0,0,0,4.3,2.15V32.24a2.15,2.15,0,0,0,2.15,2.14H27.94a2.15,2.15,0,0,0,2.15-2.14V8.6L21.49,0Z"/><polygon class="cls-2" points="30.09 15.04 23.64 8.6 30.09 8.6 30.09 15.04"/><path class="cls-3" d="M25.79,29.94A1.07,1.07,0,0,1,24.71,31H1.07A1.07,1.07,0,0,1,0,29.94V19.19a1.07,1.07,0,0,1,1.07-1.07H24.71a1.07,1.07,0,0,1,1.08,1.07Z"/><path class="cls-2" d="M24.71,31H4.3v1.08H24.71A1.08,1.08,0,0,0,25.79,31V29.94A1.07,1.07,0,0,1,24.71,31Z"/><path class="cls-4" d="M23.78,9.66a1.2,1.2,0,0,0,0-2.4,1.22,1.22,0,0,0-1.15.84H18.56V7H15.83V8.1H11.75a1.2,1.2,0,1,0-1.14,1.56,1.19,1.19,0,0,0,1.14-.84h2.37a6.19,6.19,0,0,0-3.13,5H9.93V16.6h2.73V13.87h-.95a5.47,5.47,0,0,1,4.12-5v.86h2.73V8.91a5.46,5.46,0,0,1,4.11,5h-.94V16.6h2.73V13.87H23.4a6.22,6.22,0,0,0-3.13-5h2.36A1.21,1.21,0,0,0,23.78,9.66ZM11.94,15.88H10.65V14.59h1.29Zm11.79,0H22.45V14.59h1.28ZM23.78,8a.49.49,0,0,1,.48.48.48.48,0,0,1-1,0A.49.49,0,0,1,23.78,8Zm-13.17,1a.47.47,0,0,1-.48-.48.48.48,0,1,1,.95,0A.47.47,0,0,1,10.61,8.94Zm7.22.11H16.55V7.76h1.28V9.05Z"/><path class="cls-5" d="M12.11,27.08l-.29-.74H9.42l-.28.76a2.51,2.51,0,0,1-.28.59.45.45,0,0,1-.39.16.5.5,0,0,1-.39-.17.49.49,0,0,1-.18-.37,1.18,1.18,0,0,1,0-.25,3.14,3.14,0,0,1,.14-.36l1.51-3.83.15-.4a2,2,0,0,1,.2-.39.64.64,0,0,1,.27-.24.73.73,0,0,1,.41-.1.79.79,0,0,1,.42.1.78.78,0,0,1,.27.24,3.24,3.24,0,0,1,.17.32c0,.11.11.27.18.46l1.54,3.81a1.93,1.93,0,0,1,.18.63.51.51,0,0,1-.17.38.57.57,0,0,1-.41.17.54.54,0,0,1-.24-.05.39.39,0,0,1-.17-.14,1,1,0,0,1-.15-.26C12.19,27.28,12.14,27.17,12.11,27.08ZM9.74,25.44H11.5L10.61,23Z"/><path class="cls-5" d="M14.31,27.12V22.47a.8.8,0,0,1,.16-.55.57.57,0,0,1,.43-.18.57.57,0,0,1,.44.18.79.79,0,0,1,.17.55v4.65a.79.79,0,0,1-.17.55.57.57,0,0,1-.44.18.54.54,0,0,1-.42-.18A.82.82,0,0,1,14.31,27.12Z"/><path class="cls-6" d="M23.64,8.6h6.45L21.49,0V6.45A2.16,2.16,0,0,0,23.64,8.6Z"/></g></g></svg>