<svg xmlns="http://www.w3.org/2000/svg" viewBox="0 0 28.46 28.46"><defs><style>.cls-1{fill:#1e82fa;}.cls-2{fill:#f1f1f4;}</style></defs><g id="Layer_2" data-name="Layer 2"><g id="Layer_1-2" data-name="Layer 1"><path class="cls-1" d="M14.23,28.46A14.24,14.24,0,0,1,0,14.23,14.24,14.24,0,0,1,14.23,0,14.23,14.23,0,0,1,24.29,24.29,14.13,14.13,0,0,1,14.23,28.46Z"/><path class="cls-2" d="M14.52,16.85h-.58a1.41,1.41,0,0,1-1.4-1.33l-.41-7.24a2.1,2.1,0,1,1,4.2,0l-.41,7.24a1.41,1.41,0,0,1-1.4,1.33Z"/><path class="cls-2" d="M14.68,22h-.91a1.07,1.07,0,0,1-1.07-1.07v-.73a1.06,1.06,0,0,1,1.07-1.07h.91a1.06,1.06,0,0,1,1.07,1.07v.73A1.07,1.07,0,0,1,14.68,22Z"/></g></g></svg>