<svg xmlns="http://www.w3.org/2000/svg" viewBox="0 0 40.5 40.5"><defs><style>.cls-1{fill:#f33;}.cls-2{fill:#efefef;}.cls-3{fill:#ff7171;}.cls-4{fill:#1e82fa;}.cls-5{fill:#fff;}</style></defs><g id="Layer_2" data-name="Layer 2"><g id="Layer_1-2" data-name="Layer 1"><path class="cls-1" d="M2.53,1.27H30.38A2.53,2.53,0,0,1,32.91,3.8V38a2.53,2.53,0,0,1-2.53,2.53H2.53A2.53,2.53,0,0,1,0,38V3.8A2.53,2.53,0,0,1,2.53,1.27Z"/><path class="cls-2" d="M2.53,29.63V3.8H30.38V38H10.87Z"/><path class="cls-3" d="M10.87,29.63V38L2.53,29.63Z"/><path class="cls-3" d="M10.13,5.06V0H22.78V5.06a2.53,2.53,0,0,1-2.53,2.53H12.66A2.53,2.53,0,0,1,10.13,5.06Z"/><path class="cls-4" d="M40.5,29.11A11.39,11.39,0,1,1,29.11,17.72,11.39,11.39,0,0,1,40.5,29.11Z"/><path class="cls-5" d="M26.5,34l-2.45-2.46a1.26,1.26,0,0,1,0-1.79,1.27,1.27,0,0,1,1.79,0l.82.82,5.73-4.78A1.27,1.27,0,0,1,34,27.73Z"/><path class="cls-3" d="M13.92,10.13H24.05a1.27,1.27,0,0,1,0,2.53H13.92a1.27,1.27,0,0,1,0-2.53Z"/><path class="cls-3" d="M7.59,10.13h2.54v2.53H7.59Z"/><path class="cls-3" d="M7.59,15.19h2.54v2.53H7.59Z"/><path class="cls-3" d="M7.59,20.25h2.54v2.53H7.59Z"/><path class="cls-3" d="M7.59,25.31h2.54v2.53H7.59Z"/><path class="cls-3" d="M13.92,15.19h7.6a1.27,1.27,0,0,1,0,2.53h-7.6a1.27,1.27,0,0,1,0-2.53Z"/><path class="cls-3" d="M13.92,20.25h2.53a1.27,1.27,0,1,1,0,2.53H13.92a1.27,1.27,0,0,1,0-2.53Z"/></g></g></svg>