<svg xmlns="http://www.w3.org/2000/svg" viewBox="0 0 30.09 34.38"><defs><style>.cls-1{fill:#e2e5e7;}.cls-2{fill:#1ba358;}.cls-3{fill:#cad1d8;}.cls-4{fill:#fff;}.cls-5{fill:#b0b7bd;}.cls-6{fill:#44546c;opacity:0.5;}</style></defs><g id="Layer_2" data-name="Layer 2"><g id="Layer_1-2" data-name="Layer 1"><path class="cls-1" d="M6.45,0A2.16,2.16,0,0,0,4.3,2.15V32.24a2.15,2.15,0,0,0,2.15,2.14H27.94a2.15,2.15,0,0,0,2.15-2.14V8.6L21.49,0Z"/><path class="cls-2" d="M25.79,29.94A1.07,1.07,0,0,1,24.71,31H1.07A1.07,1.07,0,0,1,0,29.94V19.19a1.07,1.07,0,0,1,1.07-1.07H24.71a1.07,1.07,0,0,1,1.08,1.07Z"/><path class="cls-3" d="M24.71,31H4.3v1.08H24.71A1.08,1.08,0,0,0,25.79,31V29.94A1.07,1.07,0,0,1,24.71,31Z"/><path class="cls-4" d="M3.5,26.6l1.32-1.93L3.71,23a3.12,3.12,0,0,1-.23-.43.71.71,0,0,1-.08-.34.4.4,0,0,1,.15-.3.57.57,0,0,1,.76,0,4,4,0,0,1,.38.54l.89,1.44,1-1.44.19-.31.16-.21a.55.55,0,0,1,.18-.13.65.65,0,0,1,.21,0,.5.5,0,0,1,.37.14.41.41,0,0,1,.15.32,1.54,1.54,0,0,1-.31.73L6.31,24.67,7.56,26.6a2.66,2.66,0,0,1,.25.42.79.79,0,0,1,.08.32.59.59,0,0,1-.07.26.55.55,0,0,1-.19.18.57.57,0,0,1-.29.07.51.51,0,0,1-.28-.07.66.66,0,0,1-.19-.18l-.27-.4-1-1.64L4.45,27.25l-.18.28-.13.15a.46.46,0,0,1-.18.13.62.62,0,0,1-.25,0,.52.52,0,0,1-.36-.13.53.53,0,0,1-.14-.39A1.43,1.43,0,0,1,3.5,26.6Z"/><path class="cls-4" d="M9.88,22.47v4.3H12.3a.61.61,0,0,1,.45.14.45.45,0,0,1,.15.35.44.44,0,0,1-.15.35.65.65,0,0,1-.45.14H9.41a.8.8,0,0,1-.56-.17A.81.81,0,0,1,8.68,27V22.47a.86.86,0,0,1,.16-.55.57.57,0,0,1,.43-.18.57.57,0,0,1,.44.18A.79.79,0,0,1,9.88,22.47Z"/><path class="cls-4" d="M17.86,26a1.78,1.78,0,0,1-.27,1,1.93,1.93,0,0,1-.81.67,3,3,0,0,1-1.26.24,2.84,2.84,0,0,1-1.44-.33,2,2,0,0,1-.66-.63,1.46,1.46,0,0,1-.25-.78.51.51,0,0,1,.15-.37.53.53,0,0,1,.39-.15.47.47,0,0,1,.32.12,1.05,1.05,0,0,1,.22.35,2.68,2.68,0,0,0,.24.48,1,1,0,0,0,.37.31,1.41,1.41,0,0,0,.63.12,1.37,1.37,0,0,0,.86-.25.73.73,0,0,0,.33-.61.65.65,0,0,0-.18-.48,1.12,1.12,0,0,0-.46-.28c-.19-.07-.44-.13-.76-.21a5.06,5.06,0,0,1-1.06-.35,1.7,1.7,0,0,1-.69-.54,1.48,1.48,0,0,1-.25-.86,1.44,1.44,0,0,1,.27-.86,1.66,1.66,0,0,1,.77-.59,3.24,3.24,0,0,1,1.18-.2,2.86,2.86,0,0,1,.94.14,2.05,2.05,0,0,1,.66.35,1.65,1.65,0,0,1,.39.47,1.13,1.13,0,0,1,.12.48.58.58,0,0,1-.15.39.52.52,0,0,1-.38.17.41.41,0,0,1-.31-.1,1.3,1.3,0,0,1-.24-.34,1.41,1.41,0,0,0-.38-.52,1.1,1.1,0,0,0-.73-.19,1.23,1.23,0,0,0-.75.21.59.59,0,0,0-.28.48.46.46,0,0,0,.1.31.71.71,0,0,0,.26.22,2.63,2.63,0,0,0,.35.15l.57.15a8.15,8.15,0,0,1,.9.26,2.77,2.77,0,0,1,.69.34,1.43,1.43,0,0,1,.44.51A1.61,1.61,0,0,1,17.86,26Z"/><path class="cls-4" d="M18.66,26.6,20,24.67,18.87,23a3.12,3.12,0,0,1-.23-.43.71.71,0,0,1-.08-.34.4.4,0,0,1,.15-.3.57.57,0,0,1,.76,0,4,4,0,0,1,.38.54l.89,1.44.94-1.44c.08-.12.15-.22.2-.31l.16-.21a.52.52,0,0,1,.17-.13.78.78,0,0,1,.22,0,.51.51,0,0,1,.37.14.41.41,0,0,1,.15.32,1.48,1.48,0,0,1-.32.73l-1.16,1.74,1.25,1.93A2.66,2.66,0,0,1,23,27a.79.79,0,0,1,.08.32.59.59,0,0,1-.07.26.5.5,0,0,1-.2.18.51.51,0,0,1-.28.07.49.49,0,0,1-.28-.07A.55.55,0,0,1,22,27.6l-.27-.4-1-1.64-1.11,1.69-.18.28-.13.15a.46.46,0,0,1-.18.13.62.62,0,0,1-.25,0,.52.52,0,0,1-.36-.13.53.53,0,0,1-.14-.39A1.43,1.43,0,0,1,18.66,26.6Z"/><path class="cls-5" d="M23.64,8.6h6.45L21.49,0V6.45A2.16,2.16,0,0,0,23.64,8.6Z"/><path class="cls-6" d="M25.15,13H7.32c-.35,0-.64-.14-.64-.32s.29-.32.64-.32H25.15c.35,0,.64.15.64.32S25.5,13,25.15,13Z"/><path class="cls-6" d="M7.34,16.16V12.51c0-.07.15-.13.33-.13s.33.06.33.13v3.65c0,.07-.14.13-.33.13S7.34,16.23,7.34,16.16Z"/><path class="cls-6" d="M11.57,16.16V12.51c0-.07.15-.13.33-.13s.33.06.33.13v3.65c0,.07-.14.13-.33.13S11.57,16.23,11.57,16.16Z"/><path class="cls-6" d="M15.87,16.16V12.51c0-.07.15-.13.33-.13s.33.06.33.13v3.65c0,.07-.15.13-.33.13S15.87,16.23,15.87,16.16Z"/><path class="cls-6" d="M20.17,16.16V12.51c0-.07.15-.13.33-.13s.33.06.33.13v3.65c0,.07-.15.13-.33.13S20.17,16.23,20.17,16.16Z"/><path class="cls-6" d="M24.47,16.16V12.51c0-.07.15-.13.33-.13s.33.06.33.13v3.65c0,.07-.15.13-.33.13S24.47,16.23,24.47,16.16Z"/><path class="cls-6" d="M7.34,12.9V9.24c0-.07.15-.13.33-.13s.33.06.33.13V12.9c0,.08-.14.14-.33.14S7.34,13,7.34,12.9Z"/><path class="cls-6" d="M11.57,12.9V9.24c0-.07.15-.13.33-.13s.33.06.33.13V12.9c0,.08-.14.14-.33.14S11.57,13,11.57,12.9Z"/><path class="cls-6" d="M15.87,12.9V9.24c0-.07.15-.13.33-.13s.33.06.33.13V12.9c0,.08-.15.14-.33.14S15.87,13,15.87,12.9Z"/><path class="cls-6" d="M20.17,12.9V9.24c0-.07.15-.13.33-.13s.33.06.33.13V12.9c0,.08-.15.14-.33.14S20.17,13,20.17,12.9Z"/><path class="cls-6" d="M25.15,16.28H7.32c-.35,0-.64-.14-.64-.31s.29-.31.64-.31H25.15c.35,0,.64.14.64.31S25.5,16.28,25.15,16.28Z"/><polygon class="cls-3" points="30.09 15.04 23.64 8.6 30.09 8.6 30.09 15.04"/><path class="cls-6" d="M25.15,9.77H7.32c-.35,0-.64-.15-.64-.33s.29-.33.64-.33H25.15c.35,0,.64.14.64.33S25.5,9.77,25.15,9.77Z"/><path class="cls-6" d="M24.47,12.9V9.24c0-.07.15-.13.33-.13s.33.06.33.13V12.9c0,.08-.15.14-.33.14S24.47,13,24.47,12.9Z"/></g></g></svg>