<svg xmlns="http://www.w3.org/2000/svg" viewBox="0 0 26.69 22.5"><defs><style>.cls-1{fill:#f0b972;}.cls-2{fill:#fcd462;}</style></defs><g id="Layer_2" data-name="Layer 2"><g id="Layer_1-2" data-name="Layer 1"><path class="cls-1" d="M11.75,2v-1A1.07,1.07,0,0,0,10.68,0H1.07A1.07,1.07,0,0,0,0,1.07V7.35H26.69V3.82a1.06,1.06,0,0,0-1.06-1.07H12.46A.71.71,0,0,1,11.75,2Z"/><path class="cls-2" d="M25.27,22.5H1.42A1.43,1.43,0,0,1,0,21.07V7.1H11.79a1.05,1.05,0,0,0,.78-.35l1.32-1.44A1.08,1.08,0,0,1,14.68,5h12V21.07A1.42,1.42,0,0,1,25.27,22.5Z"/></g></g></svg>