<svg xmlns="http://www.w3.org/2000/svg" viewBox="0 0 24.66 33.3"><defs><style>.cls-1{fill:#1e82fa;}.cls-2{fill:#e8e8e8;}.cls-3{fill:#f1f1f4;}.cls-4{fill:#6aa8ff;}</style></defs><g id="Layer_2" data-name="Layer 2"><g id="Layer_1-2" data-name="Layer 1"><path class="cls-1" d="M23.68,6.77H7.23V4.18a1,1,0,0,0-1-1H1a1,1,0,0,0-1,1V28.8a4.51,4.51,0,0,0,4.51,4.5H21.77a2.89,2.89,0,0,0,2.89-2.88V7.74A1,1,0,0,0,23.68,6.77Z"/><path class="cls-2" d="M23.68,7.74H4.23A3.23,3.23,0,0,1,1,4.52V4.19A3.22,3.22,0,0,1,4.23,1H23.68Z"/><path class="cls-3" d="M3.3,21.42s0-.05,0-.11l1.83-6a.67.67,0,0,1,.36-.38,1.48,1.48,0,0,1,.65-.13,1.44,1.44,0,0,1,.64.13.61.61,0,0,1,.36.38l1.84,6a.31.31,0,0,1,0,.11.51.51,0,0,1-.32.44,1.23,1.23,0,0,1-.66.19c-.28,0-.45-.09-.5-.28L7.2,20.54H5.12l-.33,1.23c0,.19-.22.28-.5.28a1.29,1.29,0,0,1-.67-.19.53.53,0,0,1-.32-.44Zm2.14-2.07H6.88l-.72-2.63Z"/><path class="cls-3" d="M10.28,21.59V15.33a.39.39,0,0,1,.2-.35.89.89,0,0,1,.47-.12h2c1.31,0,2,.58,2,1.75a1.49,1.49,0,0,1-.84,1.54,1.64,1.64,0,0,1,.76.54,1.75,1.75,0,0,1,.26,1v.21a2.09,2.09,0,0,1-.54,1.6,2,2,0,0,1-1.44.51H11a.77.77,0,0,1-.49-.14.4.4,0,0,1-.18-.32Zm1.53-4h1a.45.45,0,0,0,.41-.2.76.76,0,0,0,.15-.48.81.81,0,0,0-.15-.48.46.46,0,0,0-.41-.21h-1Zm0,3.15h1c.53,0,.79-.3.79-.9v-.16c0-.6-.26-.91-.79-.91h-1Z"/><path class="cls-3" d="M16.52,19.79V17.18a2.18,2.18,0,0,1,.66-1.76,2.48,2.48,0,0,1,1.71-.56,2.84,2.84,0,0,1,1.77.52,1.68,1.68,0,0,1,.7,1.43.73.73,0,0,1-.18.58.93.93,0,0,1-.59.15c-.49,0-.75-.15-.77-.46a.8.8,0,0,0-.88-.89c-.59,0-.88.33-.88,1v2.61c0,.65.3,1,.89,1a1,1,0,0,0,.46-.09.53.53,0,0,0,.26-.27,1.41,1.41,0,0,0,.11-.3c0-.08,0-.18,0-.32,0-.31.28-.46.76-.46a.94.94,0,0,1,.6.15.72.72,0,0,1,.18.57,1.81,1.81,0,0,1-.7,1.51,2.73,2.73,0,0,1-1.77.55,2.53,2.53,0,0,1-1.71-.56,2.18,2.18,0,0,1-.66-1.76Z"/><path class="cls-4" d="M23.67,8.72H4.22A4.2,4.2,0,0,1,0,4.52V4.19A4.2,4.2,0,0,1,4.22,0H23.67a1,1,0,0,1,0,2H4.22A2.25,2.25,0,0,0,2,4.19v.33A2.25,2.25,0,0,0,4.22,6.77H23.67a1,1,0,0,1,0,2Z"/></g></g></svg>