<svg xmlns="http://www.w3.org/2000/svg" viewBox="0 0 30.09 34.38"><defs><style>.cls-1{fill:#e2e5e7;}.cls-2{fill:#b0b7bd;}.cls-3{fill:#cad1d8;}.cls-4{fill:#54e360;}.cls-4,.cls-5{opacity:0.4;}.cls-5{fill:#ffd400;}.cls-6{fill:#35a872;}.cls-7{fill:#fff;}</style></defs><g id="Layer_2" data-name="Layer 2"><g id="Layer_1-2" data-name="Layer 1"><path class="cls-1" d="M6.45,0A2.16,2.16,0,0,0,4.3,2.15V32.24a2.15,2.15,0,0,0,2.15,2.14H27.94a2.15,2.15,0,0,0,2.15-2.14V8.6L21.49,0Z"/><path class="cls-2" d="M23.64,8.6h6.45L21.49,0V6.45A2.16,2.16,0,0,0,23.64,8.6Z"/><path class="cls-3" d="M24.71,31H4.3v1.08H24.71A1.08,1.08,0,0,0,25.79,31V29.94A1.07,1.07,0,0,1,24.71,31Z"/><path class="cls-4" d="M29.75,19l-7.16-7.15a.88.88,0,0,0-.63-.26.89.89,0,0,0-.63.26l-5.57,5.57-4.14-4.14a.88.88,0,0,0-.63-.26.89.89,0,0,0-.63.26L4.64,19a.89.89,0,0,0-.26.63v5.49a3.28,3.28,0,0,0,3.27,3.27H30V19.67A.94.94,0,0,0,29.75,19Z"/><path class="cls-5" d="M12.76,4.32A3.28,3.28,0,1,0,16,7.6,3.28,3.28,0,0,0,12.76,4.32Z"/><path class="cls-6" d="M25.79,29.94A1.07,1.07,0,0,1,24.71,31H1.07A1.07,1.07,0,0,1,0,29.94V19.19a1.07,1.07,0,0,1,1.07-1.07H24.71a1.07,1.07,0,0,1,1.08,1.07Z"/><path class="cls-7" d="M5.37,27.12V22.47a.8.8,0,0,1,.17-.55.6.6,0,0,1,.86,0,.74.74,0,0,1,.17.55v4.65a.74.74,0,0,1-.17.55.6.6,0,0,1-.86,0A.82.82,0,0,1,5.37,27.12Z"/><path class="cls-7" d="M9.9,26.86,9,23.1v4.07a.74.74,0,0,1-.15.51.55.55,0,0,1-.41.17A.51.51,0,0,1,8,27.68a.74.74,0,0,1-.15-.51V22.5a.57.57,0,0,1,.2-.52.94.94,0,0,1,.54-.14H9a1.42,1.42,0,0,1,.49.06.43.43,0,0,1,.22.22,3.3,3.3,0,0,1,.17.51l.86,3.24.85-3.24a4.94,4.94,0,0,1,.17-.51A.43.43,0,0,1,12,21.9a1.42,1.42,0,0,1,.49-.06h.37a.94.94,0,0,1,.54.14.57.57,0,0,1,.2.52v4.67a.74.74,0,0,1-.15.51.51.51,0,0,1-.4.17.51.51,0,0,1-.39-.17.69.69,0,0,1-.16-.51V23.1l-.94,3.76q-.09.36-.15.54a.77.77,0,0,1-.22.31.63.63,0,0,1-.43.14.69.69,0,0,1-.36-.09.72.72,0,0,1-.23-.23,1.66,1.66,0,0,1-.12-.31C10,27.1,9.94,27,9.9,26.86Z"/><path class="cls-7" d="M20.18,25.35v1.13a1.15,1.15,0,0,1-.05.36.54.54,0,0,1-.16.24,1.14,1.14,0,0,1-.3.21,4.62,4.62,0,0,1-1,.43,4.21,4.21,0,0,1-1.08.13,3.56,3.56,0,0,1-1.25-.21,2.55,2.55,0,0,1-.95-.61,2.67,2.67,0,0,1-.61-1,3.58,3.58,0,0,1-.21-1.26,3.72,3.72,0,0,1,.21-1.27,2.48,2.48,0,0,1,.6-1,2.76,2.76,0,0,1,1-.61,3.77,3.77,0,0,1,1.3-.21,3.15,3.15,0,0,1,1.06.16,2.46,2.46,0,0,1,.74.4,1.67,1.67,0,0,1,.43.51,1,1,0,0,1,.15.48.54.54,0,0,1-.17.39.59.59,0,0,1-.4.16.54.54,0,0,1-.25-.06.65.65,0,0,1-.2-.17,6.22,6.22,0,0,0-.37-.53,1.35,1.35,0,0,0-.42-.29,1.41,1.41,0,0,0-.66-.13,1.75,1.75,0,0,0-.74.15,1.51,1.51,0,0,0-.56.41,1.94,1.94,0,0,0-.35.67,2.65,2.65,0,0,0-.13.87,2.37,2.37,0,0,0,.48,1.6,1.63,1.63,0,0,0,1.33.56,2.45,2.45,0,0,0,.78-.11,3.33,3.33,0,0,0,.74-.31v-.95h-.92a1,1,0,0,1-.51-.11.36.36,0,0,1-.17-.34.42.42,0,0,1,.14-.32.56.56,0,0,1,.39-.13h1.36a1.66,1.66,0,0,1,.42,0,.47.47,0,0,1,.28.2A.8.8,0,0,1,20.18,25.35Z"/></g></g></svg>