<svg xmlns="http://www.w3.org/2000/svg" viewBox="0 0 30.09 34.38"><defs><style>.cls-1{fill:#e2e5e7;}.cls-2{fill:#b0b7bd;}.cls-3{fill:#cad1d8;}.cls-4,.cls-6{fill:#f36;}.cls-5{fill:#fff;}.cls-6{opacity:0.5;}</style></defs><g id="Layer_2" data-name="Layer 2"><g id="Layer_1-2" data-name="Layer 1"><path class="cls-1" d="M6.45,0A2.16,2.16,0,0,0,4.3,2.15V32.24a2.15,2.15,0,0,0,2.15,2.14H27.94a2.15,2.15,0,0,0,2.15-2.14V8.6L21.49,0Z"/><path class="cls-2" d="M23.64,8.6h6.45L21.49,0V6.45A2.16,2.16,0,0,0,23.64,8.6Z"/><polygon class="cls-3" points="30.09 15.04 23.64 8.6 30.09 8.6 30.09 15.04"/><path class="cls-4" d="M25.79,29.94A1.07,1.07,0,0,1,24.71,31H1.07A1.07,1.07,0,0,1,0,29.94V19.19a1.07,1.07,0,0,1,1.07-1.07H24.71a1.07,1.07,0,0,1,1.08,1.07Z"/><path class="cls-3" d="M24.71,31H4.3v1.08H24.71A1.08,1.08,0,0,0,25.79,31V29.94A1.07,1.07,0,0,1,24.71,31Z"/><path class="cls-5" d="M3.22,27.12V22.47a.8.8,0,0,1,.17-.55.54.54,0,0,1,.42-.18.57.57,0,0,1,.44.18.79.79,0,0,1,.17.55v4.65a.79.79,0,0,1-.17.55.57.57,0,0,1-.44.18.54.54,0,0,1-.42-.18A.82.82,0,0,1,3.22,27.12Z"/><path class="cls-5" d="M7.31,22.46l2.31,3.48V22.43a.79.79,0,0,1,.14-.52.51.51,0,0,1,.4-.17.53.53,0,0,1,.41.17.79.79,0,0,1,.15.52v4.64c0,.52-.22.78-.65.78a.88.88,0,0,1-.29-.05.72.72,0,0,1-.24-.14,1.21,1.21,0,0,1-.21-.24,2.75,2.75,0,0,1-.19-.28L6.89,23.7v3.47a.73.73,0,0,1-.16.51.53.53,0,0,1-.4.17.55.55,0,0,1-.41-.17.78.78,0,0,1-.15-.51V22.61a1.14,1.14,0,0,1,.07-.46.59.59,0,0,1,.25-.29.68.68,0,0,1,.38-.12.78.78,0,0,1,.28.05l.2.14a1.54,1.54,0,0,1,.18.23Z"/><path class="cls-5" d="M12.77,21.84h1.56a4,4,0,0,1,1,.12,1.84,1.84,0,0,1,.79.42,3,3,0,0,1,.92,2.4,4.85,4.85,0,0,1-.09,1,2.75,2.75,0,0,1-.29.79,2.32,2.32,0,0,1-.49.63,2,2,0,0,1-.52.35,2.89,2.89,0,0,1-.61.18,5.35,5.35,0,0,1-.73.05H12.79a.92.92,0,0,1-.49-.1.48.48,0,0,1-.22-.28,1.89,1.89,0,0,1-.05-.46V22.58a.64.64,0,0,1,.74-.74Zm.46.95v4h.91l.46,0A1.47,1.47,0,0,0,15,26.7a.92.92,0,0,0,.32-.18,2.19,2.19,0,0,0,.6-1.75,2.54,2.54,0,0,0-.27-1.31,1.14,1.14,0,0,0-.65-.55,3.14,3.14,0,0,0-.93-.12Z"/><path class="cls-5" d="M18.87,21.84h1.56a4,4,0,0,1,1.05.12,1.84,1.84,0,0,1,.79.42,3,3,0,0,1,.92,2.4,4.85,4.85,0,0,1-.09,1,2.75,2.75,0,0,1-.29.79,2.32,2.32,0,0,1-.49.63,2.16,2.16,0,0,1-.52.35,2.89,2.89,0,0,1-.61.18,5.35,5.35,0,0,1-.73.05H18.9a.92.92,0,0,1-.49-.1.48.48,0,0,1-.22-.28,1.89,1.89,0,0,1-.05-.46V22.58a.78.78,0,0,1,.17-.56A.77.77,0,0,1,18.87,21.84Zm.47.95v4h.9l.47,0a1.47,1.47,0,0,0,.35-.08.92.92,0,0,0,.32-.18,2.19,2.19,0,0,0,.6-1.75,2.54,2.54,0,0,0-.27-1.31,1.14,1.14,0,0,0-.65-.55,3.14,3.14,0,0,0-.93-.12Z"/><path class="cls-6" d="M26,12.19H8.13a.66.66,0,0,1,0-1.32H26a.66.66,0,0,1,0,1.32Z"/><path class="cls-6" d="M26,15.46H8.13a.66.66,0,0,1,0-1.32H26a.66.66,0,0,1,0,1.32Z"/></g></g></svg>