<svg xmlns="http://www.w3.org/2000/svg" viewBox="0 0 28.62 28.62"><defs><style>.cls-1{fill:#1e82fa;}</style></defs><g id="Layer_2" data-name="Layer 2"><g id="Layer_1-2" data-name="Layer 1"><path class="cls-1" d="M11.86,21.81,8.49,25.18a3.57,3.57,0,1,1-5.06-5.05l6.75-6.75a3.57,3.57,0,0,1,5.06,0,1.18,1.18,0,0,0,1.68,0,1.19,1.19,0,0,0,0-1.69,6,6,0,0,0-8.43,0L1.75,18.44a6,6,0,0,0,8.43,8.43l3.37-3.37a1.19,1.19,0,0,0,0-1.69A1.21,1.21,0,0,0,11.86,21.81Z"/><path class="cls-1" d="M26.87,1.75a6,6,0,0,0-8.43,0l-4.05,4a1.2,1.2,0,0,0,1.69,1.69l4.05-4.05a3.57,3.57,0,1,1,5.05,5.06l-7.41,7.42a3.57,3.57,0,0,1-5.06,0,1.19,1.19,0,0,0-1.69,0,1.21,1.21,0,0,0,0,1.69,6,6,0,0,0,8.43,0l7.42-7.42A6,6,0,0,0,26.87,1.75Z"/></g></g></svg>