<svg xmlns="http://www.w3.org/2000/svg" viewBox="0 0 30.09 34.38"><defs><style>.cls-1{fill:#e2e5e7;}.cls-2{fill:#cad1d8;}.cls-3{fill:#b0b7bd;}.cls-4{fill:#ffb65f;}.cls-5{fill:#fff;}.cls-6{fill:#44546c;opacity:0.5;}</style></defs><g id="Layer_2" data-name="Layer 2"><g id="Layer_1-2" data-name="Layer 1"><path class="cls-1" d="M6.45,0A2.16,2.16,0,0,0,4.3,2.15V32.24a2.15,2.15,0,0,0,2.15,2.14H27.94a2.15,2.15,0,0,0,2.15-2.14V8.6L21.49,0Z"/><path class="cls-2" d="M24.71,31H4.3v1.08H24.71A1.08,1.08,0,0,0,25.79,31V29.94A1.07,1.07,0,0,1,24.71,31Z"/><polygon class="cls-2" points="30.09 15.04 23.64 8.6 30.09 8.6 30.09 15.04"/><path class="cls-3" d="M23.64,8.6h6.45L21.49,0V6.45A2.16,2.16,0,0,0,23.64,8.6Z"/><path class="cls-4" d="M25.79,29.94A1.07,1.07,0,0,1,24.71,31H1.07A1.07,1.07,0,0,1,0,29.94V19.19a1.07,1.07,0,0,1,1.07-1.07H24.71a1.07,1.07,0,0,1,1.08,1.07Z"/><path class="cls-5" d="M6.46,26.87,5.52,23.1v4.08a.71.71,0,0,1-.16.51.51.51,0,0,1-.4.17.51.51,0,0,1-.39-.17.74.74,0,0,1-.15-.51V22.51a.59.59,0,0,1,.2-.53.94.94,0,0,1,.54-.13h.37a1.46,1.46,0,0,1,.49.06.4.4,0,0,1,.22.22,3.67,3.67,0,0,1,.17.51l.85,3.23.86-3.23a2.68,2.68,0,0,1,.17-.51.4.4,0,0,1,.22-.22A1.42,1.42,0,0,1,9,21.85h.37a.94.94,0,0,1,.54.13.59.59,0,0,1,.2.53v4.67a.76.76,0,0,1-.15.51.51.51,0,0,1-.4.17.51.51,0,0,1-.39-.17A.71.71,0,0,1,9,27.18V23.1l-.94,3.77c-.07.24-.12.42-.16.53a.71.71,0,0,1-.21.32.66.66,0,0,1-.44.14.65.65,0,0,1-.35-.09.66.66,0,0,1-.23-.24,1.25,1.25,0,0,1-.12-.31C6.53,27.11,6.49,27,6.46,26.87Z"/><path class="cls-5" d="M13.63,25.46H12.54v1.67a.78.78,0,0,1-.17.54.54.54,0,0,1-.43.19.53.53,0,0,1-.43-.19.77.77,0,0,1-.17-.53V22.58a.74.74,0,0,1,.18-.56.85.85,0,0,1,.58-.17h1.53a4,4,0,0,1,1,.1,1.61,1.61,0,0,1,.63.34,1.55,1.55,0,0,1,.4.57,2.06,2.06,0,0,1,.14.76A1.69,1.69,0,0,1,15.29,25,2.53,2.53,0,0,1,13.63,25.46Zm-.29-2.71h-.8v1.8h.8a2.36,2.36,0,0,0,.71-.09.75.75,0,0,0,.43-.29.84.84,0,0,0,.15-.52A.87.87,0,0,0,14.4,23,1.54,1.54,0,0,0,13.34,22.75Z"/><path class="cls-5" d="M18.46,24.19A1,1,0,0,0,19.1,24a.74.74,0,0,0,.27-.62.76.76,0,0,0-.21-.54.82.82,0,0,0-.58-.22,1,1,0,0,0-.41.07.67.67,0,0,0-.25.18,1.31,1.31,0,0,0-.17.29,3.23,3.23,0,0,0-.15.34.32.32,0,0,1-.15.13.6.6,0,0,1-.24,0,.45.45,0,0,1-.3-.13.48.48,0,0,1-.13-.35.94.94,0,0,1,.12-.44,1.57,1.57,0,0,1,.38-.45,1.73,1.73,0,0,1,.6-.33,2.3,2.3,0,0,1,.81-.13,2.36,2.36,0,0,1,.72.11,1.61,1.61,0,0,1,.56.31,1.32,1.32,0,0,1,.47,1,1.31,1.31,0,0,1-.17.69,2.32,2.32,0,0,1-.5.56,2.14,2.14,0,0,1,.53.39,1.39,1.39,0,0,1,.32.48,1.48,1.48,0,0,1,.11.57,1.83,1.83,0,0,1-.58,1.32,2.23,2.23,0,0,1-.68.42,2.41,2.41,0,0,1-.87.15,2,2,0,0,1-.86-.18,1.85,1.85,0,0,1-.63-.43,1.9,1.9,0,0,1-.38-.54,1.25,1.25,0,0,1-.13-.46.46.46,0,0,1,.16-.37.5.5,0,0,1,.37-.15.44.44,0,0,1,.22.07.31.31,0,0,1,.14.16,2.73,2.73,0,0,0,.45.83.85.85,0,0,0,.67.27,1,1,0,0,0,.48-.12,1,1,0,0,0,.39-.36,1.07,1.07,0,0,0,.15-.56,1,1,0,0,0-.26-.74.94.94,0,0,0-.72-.27H18.4l-.22,0a.51.51,0,0,1-.34-.11.4.4,0,0,1-.12-.31.37.37,0,0,1,.15-.31.65.65,0,0,1,.43-.12Z"/><path class="cls-6" d="M20,8.5a1,1,0,0,0-1-1L14.56,8a1,1,0,0,0-.86.94v4.22a1.51,1.51,0,0,0-.61-.13h0a1.53,1.53,0,0,0-1.53,1.52,1.54,1.54,0,1,0,3.07,0V8.93l0,0L19,8.47s0,0,0,0v4.11a1.57,1.57,0,0,0-1.7.31A1.53,1.53,0,1,0,20,14Zm-6.9,6.67h0a.62.62,0,0,1-.62-.62.63.63,0,0,1,.62-.62h0a.62.62,0,0,1,0,1.24Zm5.37-.53h0a.61.61,0,0,1-.61-.63.62.62,0,0,1,1.24,0,.63.63,0,0,1-.62.62Z"/></g></g></svg>