<svg xmlns="http://www.w3.org/2000/svg" viewBox="0 0 30.09 34.38"><defs><style>.cls-1{fill:#e2e5e7;}.cls-2{fill:#b0b7bd;}.cls-3{fill:#cad1d8;}.cls-4{fill:#44546c;opacity:0.5;}.cls-5{fill:#f15642;}.cls-6{fill:#fff;}</style></defs><g id="Layer_2" data-name="Layer 2"><g id="Layer_1-2" data-name="Layer 1"><path class="cls-1" d="M6.45,0A2.16,2.16,0,0,0,4.3,2.15V32.24a2.15,2.15,0,0,0,2.15,2.14H27.94a2.15,2.15,0,0,0,2.15-2.14V8.6L21.49,0Z"/><path class="cls-2" d="M23.64,8.6h6.45L21.49,0V6.45A2.16,2.16,0,0,0,23.64,8.6Z"/><polygon class="cls-3" points="30.09 15.04 23.64 8.6 30.09 8.6 30.09 15.04"/><path class="cls-3" d="M24.71,31H4.3v1.08H24.71A1.08,1.08,0,0,0,25.79,31V29.94A1.07,1.07,0,0,1,24.71,31Z"/><path class="cls-4" d="M25.52,12.19H7.69a.66.66,0,0,1,0-1.32H25.52a.66.66,0,0,1,0,1.32Z"/><path class="cls-4" d="M25.52,15.46H7.69a.66.66,0,0,1,0-1.32H25.52a.66.66,0,0,1,0,1.32Z"/><path class="cls-5" d="M25.79,29.94A1.07,1.07,0,0,1,24.71,31H1.07A1.07,1.07,0,0,1,0,29.94V19.19a1.07,1.07,0,0,1,1.07-1.07H24.71a1.07,1.07,0,0,1,1.08,1.07Z"/><path class="cls-6" d="M4.68,22.36a.6.6,0,0,1,.59-.59h2a2.15,2.15,0,0,1,0,4.29H5.82V27.2a.54.54,0,0,1-.55.59.58.58,0,0,1-.59-.59Zm1.14.49V25H7.25a1.07,1.07,0,0,0,0-2.14Z"/><path class="cls-6" d="M11.06,27.79a.54.54,0,0,1-.6-.53V22.38a.59.59,0,0,1,.6-.54h2c3.92,0,3.84,5.95.07,5.95Zm.54-4.9v3.85H13c2.32,0,2.42-3.85,0-3.85Z"/><path class="cls-6" d="M18.26,23v1.37h2.19a.67.67,0,0,1,.62.61.6.6,0,0,1-.62.51H18.26v1.81a.51.51,0,0,1-.52.53.55.55,0,0,1-.61-.53V22.38a.55.55,0,0,1,.61-.54h3a.54.54,0,0,1,.6.54.59.59,0,0,1-.6.58Z"/></g></g></svg>