<svg xmlns="http://www.w3.org/2000/svg" viewBox="0 0 30.09 34.38"><defs><style>.cls-1{fill:#e2e5e7;}.cls-2{fill:#cad1d8;}.cls-3{fill:#31a8ff;}.cls-4{fill:#fff;}.cls-5{opacity:0.6;}.cls-6{fill:#fe93d3;}.cls-7{fill:#01c0fa;}.cls-8{fill:#62dbfb;}.cls-9{fill:#fe73c5;}.cls-10{fill:#b0b7bd;}</style></defs><g id="Layer_2" data-name="Layer 2"><g id="Layer_1-2" data-name="Layer 1"><path class="cls-1" d="M6.45,0A2.16,2.16,0,0,0,4.3,2.15V32.24a2.15,2.15,0,0,0,2.15,2.14H27.94a2.15,2.15,0,0,0,2.15-2.14V8.6L21.49,0Z"/><polygon class="cls-2" points="30.09 15.04 23.64 8.6 30.09 8.6 30.09 15.04"/><path class="cls-3" d="M25.79,29.94A1.07,1.07,0,0,1,24.71,31H1.07A1.07,1.07,0,0,1,0,29.94V19.19a1.07,1.07,0,0,1,1.07-1.07H24.71a1.07,1.07,0,0,1,1.08,1.07Z"/><path class="cls-2" d="M24.71,31H4.3v1.08H24.71A1.08,1.08,0,0,0,25.79,31V29.94A1.07,1.07,0,0,1,24.71,31Z"/><path class="cls-4" d="M7.24,25.45H6.14v1.67a.78.78,0,0,1-.17.54.53.53,0,0,1-.43.19.55.55,0,0,1-.43-.18.79.79,0,0,1-.17-.54V22.58A.75.75,0,0,1,5.12,22a.87.87,0,0,1,.58-.17H7.24a3.91,3.91,0,0,1,1,.11,1.49,1.49,0,0,1,1,.9,2.07,2.07,0,0,1,.14.77A1.67,1.67,0,0,1,8.89,25,2.52,2.52,0,0,1,7.24,25.45ZM7,22.74H6.14v1.81H7a2.33,2.33,0,0,0,.7-.09.75.75,0,0,0,.58-.82A.92.92,0,0,0,8,23,1.58,1.58,0,0,0,7,22.74Z"/><path class="cls-4" d="M14.94,26a1.79,1.79,0,0,1-.28,1,1.81,1.81,0,0,1-.81.67,3,3,0,0,1-1.26.24,2.84,2.84,0,0,1-1.44-.33,2,2,0,0,1-.66-.63,1.55,1.55,0,0,1-.25-.78.51.51,0,0,1,.15-.37.53.53,0,0,1,.39-.15.47.47,0,0,1,.32.12.92.92,0,0,1,.22.35,2.66,2.66,0,0,0,.25.48,1,1,0,0,0,.36.31,1.41,1.41,0,0,0,.63.12,1.37,1.37,0,0,0,.86-.25.72.72,0,0,0,.34-.61.65.65,0,0,0-.18-.48,1.16,1.16,0,0,0-.47-.28c-.19-.07-.44-.13-.76-.21a5.06,5.06,0,0,1-1.06-.35,1.61,1.61,0,0,1-.68-.54,1.42,1.42,0,0,1-.26-.86,1.44,1.44,0,0,1,.27-.86,1.66,1.66,0,0,1,.77-.59,3.29,3.29,0,0,1,1.19-.2,3,3,0,0,1,.94.14,2.11,2.11,0,0,1,.65.35,1.5,1.5,0,0,1,.39.47,1.13,1.13,0,0,1,.12.48.58.58,0,0,1-.15.39.5.5,0,0,1-.38.17.41.41,0,0,1-.31-.1,1.31,1.31,0,0,1-.23-.34,1.54,1.54,0,0,0-.39-.52,1.1,1.1,0,0,0-.73-.19,1.22,1.22,0,0,0-.74.21.58.58,0,0,0-.29.48.52.52,0,0,0,.1.31.67.67,0,0,0,.27.22,2.07,2.07,0,0,0,.34.15l.57.15a9.05,9.05,0,0,1,.91.26,2.88,2.88,0,0,1,.68.34,1.57,1.57,0,0,1,.45.51A1.74,1.74,0,0,1,14.94,26Z"/><path class="cls-4" d="M16.69,21.84h1.56A4,4,0,0,1,19.3,22a1.84,1.84,0,0,1,.79.42,3,3,0,0,1,.92,2.4,4.85,4.85,0,0,1-.09,1,3.08,3.08,0,0,1-.29.79,2.18,2.18,0,0,1-.5.63,1.83,1.83,0,0,1-.52.35,2.79,2.79,0,0,1-.6.18,5.35,5.35,0,0,1-.73.05H16.72a.92.92,0,0,1-.49-.1.44.44,0,0,1-.22-.28,1.89,1.89,0,0,1-.05-.46V22.58a.78.78,0,0,1,.17-.56A.77.77,0,0,1,16.69,21.84Zm.47.95v4h.9l.47,0a1.59,1.59,0,0,0,.35-.08.79.79,0,0,0,.31-.18,2.16,2.16,0,0,0,.61-1.75,2.54,2.54,0,0,0-.27-1.31,1.14,1.14,0,0,0-.65-.55,3.18,3.18,0,0,0-.93-.12Z"/><g class="cls-5"><path class="cls-6" d="M17.08,16.65H11.56a1.5,1.5,0,0,1,0-3h5.52a1.5,1.5,0,1,1,0,3Z"/><path class="cls-7" d="M18.05,10.91a12.19,12.19,0,0,0,2.86-2.2c1.78-1.78,2.84-3.61,2.36-4.09S21,5.2,19.19,7A12,12,0,0,0,17,9.84Z"/><path class="cls-8" d="M16.18,12.1l-.38-.38a.5.5,0,0,1,0-.7L17,9.84l1.08,1.07L16.87,12.1a.49.49,0,0,1-.69,0Z"/><path class="cls-9" d="M16,14.49a3.5,3.5,0,0,1-2.84.57.32.32,0,0,1-.27-.27A3.53,3.53,0,0,1,13.4,12c1-1,2.37-1.23,3.07-.53s.47,2.08-.52,3.07Z"/></g><path class="cls-10" d="M23.64,8.6h6.45L21.49,0V6.45A2.16,2.16,0,0,0,23.64,8.6Z"/></g></g></svg>