<svg xmlns="http://www.w3.org/2000/svg" viewBox="0 0 25.79 34.38"><defs><style>.cls-1{fill:#e2e5e7;}.cls-2{fill:#b0b7bd;}.cls-3{fill:#cad1d8;}.cls-4{fill:#444;opacity:0.5;}</style></defs><g id="Layer_2" data-name="Layer 2"><g id="Layer_1-2" data-name="Layer 1"><path class="cls-1" d="M2.15,0A2.16,2.16,0,0,0,0,2.15V32.24a2.15,2.15,0,0,0,2.15,2.14H23.64a2.15,2.15,0,0,0,2.15-2.14V8.6L17.19,0Z"/><path class="cls-2" d="M19.34,8.6h6.45L17.19,0V6.45A2.16,2.16,0,0,0,19.34,8.6Z"/><polygon class="cls-3" points="25.79 15.04 19.34 8.6 25.79 8.6 25.79 15.04"/><path class="cls-4" d="M16.86,13.92l-1.52,1.52a3.6,3.6,0,0,0-.54-.22V13.07H11.13v2.15a4.08,4.08,0,0,0-.54.22L9.08,13.92,6.49,16.51,8,18a5.25,5.25,0,0,0-.22.55H5.63v3.66H7.78a4.35,4.35,0,0,0,.22.54L6.49,24.29l2.59,2.59,1.51-1.52a4.08,4.08,0,0,0,.54.22v2.15H14.8V25.58a3.6,3.6,0,0,0,.54-.22l1.52,1.52,2.59-2.59-1.52-1.52a3.21,3.21,0,0,0,.22-.54H20.3V18.57H18.15a3.71,3.71,0,0,0-.22-.55l1.52-1.51ZM13,23.15a2.75,2.75,0,1,1,2.75-2.75A2.75,2.75,0,0,1,13,23.15Z"/></g></g></svg>