<svg xmlns="http://www.w3.org/2000/svg" viewBox="0 0 27.27 25.57"><defs><style>.cls-1{fill:#1e82fa;}.cls-2{fill:#999;}.cls-3{fill:#2b2b2b;}.cls-4{fill:#474f54;}</style></defs><g id="Layer_2" data-name="Layer 2"><g id="Layer_1-2" data-name="Layer 1"><path class="cls-1" d="M3.2,1.6A3.2,3.2,0,1,0,6.39,4.79,3.21,3.21,0,0,0,3.2,1.6Z"/><path class="cls-1" d="M8.79,1.6H27.27V8H8.79Z"/><path class="cls-2" d="M8.79,9.59h8.89V16H8.79Z"/><path class="cls-2" d="M3.2,9.59a3.2,3.2,0,1,0,3.19,3.19A3.21,3.21,0,0,0,3.2,9.59Z"/><path class="cls-3" d="M8.79,17.58H24.08V24H8.79Z"/><path class="cls-3" d="M3.2,17.58a3.2,3.2,0,1,0,3.19,3.19A3.21,3.21,0,0,0,3.2,17.58Z"/><path class="cls-4" d="M8,0h1.6V25.57H8Z"/></g></g></svg>