<svg xmlns="http://www.w3.org/2000/svg" viewBox="0 0 30.09 34.38"><defs><style>.cls-1{fill:#e2e5e7;}.cls-2{fill:#b0b7bd;}.cls-3{fill:#cad1d8;}.cls-4{fill:#a35cff;}.cls-5{fill:#fff;}.cls-6{fill:#44546c;opacity:0.5;}</style></defs><g id="Layer_2" data-name="Layer 2"><g id="Layer_1-2" data-name="Layer 1"><path class="cls-1" d="M6.45,0A2.16,2.16,0,0,0,4.3,2.15V32.24a2.15,2.15,0,0,0,2.15,2.14H27.94a2.15,2.15,0,0,0,2.15-2.14V8.6L21.49,0Z"/><path class="cls-2" d="M23.64,8.6h6.45L21.49,0V6.45A2.16,2.16,0,0,0,23.64,8.6Z"/><path class="cls-3" d="M24.71,31H4.3v1.08H24.71A1.08,1.08,0,0,0,25.79,31V29.94A1.07,1.07,0,0,1,24.71,31Z"/><path class="cls-4" d="M25.79,29.94A1.07,1.07,0,0,1,24.71,31H1.07A1.07,1.07,0,0,1,0,29.94V19.19a1.07,1.07,0,0,1,1.07-1.07H24.71a1.07,1.07,0,0,1,1.08,1.07Z"/><path class="cls-5" d="M6.32,26.86l-1-3.76v4.07a.74.74,0,0,1-.15.51.51.51,0,0,1-.4.17.51.51,0,0,1-.39-.17.69.69,0,0,1-.16-.51V22.5a.59.59,0,0,1,.2-.52A1,1,0,0,1,5,21.84h.37a1.4,1.4,0,0,1,.48.06.41.41,0,0,1,.23.22,3.52,3.52,0,0,1,.16.51l.86,3.24L8,22.63a3.3,3.3,0,0,1,.17-.51.4.4,0,0,1,.22-.22,1.4,1.4,0,0,1,.48-.06h.38a1,1,0,0,1,.54.14.59.59,0,0,1,.2.52v4.67a.74.74,0,0,1-.15.51.56.56,0,0,1-.8,0,.74.74,0,0,1-.15-.51V23.1l-.95,3.76q-.09.36-.15.54a.85.85,0,0,1-.21.31.66.66,0,0,1-.44.14.63.63,0,0,1-.35-.09.72.72,0,0,1-.23-.23,2.88,2.88,0,0,1-.13-.31Z"/><path class="cls-5" d="M13.49,25.45H12.4v1.67a.78.78,0,0,1-.17.54.56.56,0,0,1-.43.19.54.54,0,0,1-.43-.18.75.75,0,0,1-.17-.54V22.58a.75.75,0,0,1,.18-.57.84.84,0,0,1,.58-.17h1.53a3.94,3.94,0,0,1,1,.11,1.59,1.59,0,0,1,.63.33,1.64,1.64,0,0,1,.4.57,2.07,2.07,0,0,1,.13.77A1.67,1.67,0,0,1,15.15,25,2.53,2.53,0,0,1,13.49,25.45Zm-.29-2.71h-.8v1.81h.8a2.41,2.41,0,0,0,.71-.09.85.85,0,0,0,.43-.29.88.88,0,0,0,.15-.53.88.88,0,0,0-.23-.64A1.54,1.54,0,0,0,13.2,22.74Z"/><path class="cls-5" d="M19,27.24v-.75h-2a.82.82,0,0,1-.58-.18.58.58,0,0,1-.19-.47.4.4,0,0,1,0-.15l.08-.17.12-.16.15-.2,2.13-2.86a3.52,3.52,0,0,1,.35-.41.47.47,0,0,1,.32-.12c.41,0,.62.23.62.7v3.12h.17a1.19,1.19,0,0,1,.5.08.37.37,0,0,1,.18.37.38.38,0,0,1-.15.34.8.8,0,0,1-.46.11H20v.75a.68.68,0,0,1-.14.46.47.47,0,0,1-.37.15.44.44,0,0,1-.36-.16A.65.65,0,0,1,19,27.24Zm-1.73-1.65H19V23.24Z"/><path class="cls-6" d="M18.93,15.34H11.78a.67.67,0,0,1-.66-.67V8.39a.67.67,0,0,1,.66-.67h7.15a.67.67,0,0,1,.67.67v6.28A.67.67,0,0,1,18.93,15.34Z"/><path class="cls-6" d="M22.15,9,19.6,10.71v1.64l2.55,1.76a.72.72,0,0,0,1.12-.59v-4A.71.71,0,0,0,22.15,9Z"/><polygon class="cls-3" points="30.09 15.04 23.64 8.6 30.09 8.6 30.09 15.04"/></g></g></svg>