<svg xmlns="http://www.w3.org/2000/svg" viewBox="0 0 30.09 34.38"><defs><style>.cls-1{fill:#e2e5e7;}.cls-2{fill:#356cc0;}.cls-3{fill:#cad1d8;}.cls-4{fill:#fff;}.cls-5{fill:#b0b7bd;}.cls-6{fill:#44546c;opacity:0.5;}</style></defs><g id="Layer_2" data-name="Layer 2"><g id="Layer_1-2" data-name="Layer 1"><path class="cls-1" d="M6.45,0A2.16,2.16,0,0,0,4.3,2.15V32.24a2.15,2.15,0,0,0,2.15,2.14H27.94a2.15,2.15,0,0,0,2.15-2.14V8.6L21.49,0Z"/><path class="cls-2" d="M25.79,29.94A1.07,1.07,0,0,1,24.71,31H1.07A1.07,1.07,0,0,1,0,29.94V19.19a1.07,1.07,0,0,1,1.07-1.07H24.71a1.07,1.07,0,0,1,1.08,1.07Z"/><path class="cls-3" d="M24.71,31H4.3v1.08H24.71A1.08,1.08,0,0,0,25.79,31V29.94A1.07,1.07,0,0,1,24.71,31Z"/><path class="cls-4" d="M5.07,21.84H6.63a4,4,0,0,1,1,.12,1.84,1.84,0,0,1,.79.42,3,3,0,0,1,.92,2.4,4.85,4.85,0,0,1-.09,1,2.75,2.75,0,0,1-.29.79,2.32,2.32,0,0,1-.49.63,2,2,0,0,1-.52.35,2.89,2.89,0,0,1-.61.18,5.23,5.23,0,0,1-.73.05H5.09a.92.92,0,0,1-.49-.1.48.48,0,0,1-.22-.28,1.89,1.89,0,0,1,0-.46V22.58A.74.74,0,0,1,4.51,22,.74.74,0,0,1,5.07,21.84Zm.46.95v4h.91l.46,0a1.68,1.68,0,0,0,.36-.08.87.87,0,0,0,.31-.18,2.19,2.19,0,0,0,.6-1.75,2.65,2.65,0,0,0-.26-1.31,1.21,1.21,0,0,0-.65-.55,3.21,3.21,0,0,0-.94-.12Z"/><path class="cls-4" d="M13,21.74a3.24,3.24,0,0,1,1.58.37,2.5,2.5,0,0,1,1,1.06A3.72,3.72,0,0,1,16,24.79,4,4,0,0,1,15.76,26a2.53,2.53,0,0,1-.56,1,2.26,2.26,0,0,1-.91.63,3.17,3.17,0,0,1-1.23.22,3.19,3.19,0,0,1-1.24-.22A2.51,2.51,0,0,1,10.9,27a2.68,2.68,0,0,1-.55-1,4.07,4.07,0,0,1,0-2.49,2.66,2.66,0,0,1,.56-1,2.56,2.56,0,0,1,.9-.61A3.3,3.3,0,0,1,13,21.74Zm1.7,3a2.73,2.73,0,0,0-.21-1.12,1.58,1.58,0,0,0-.59-.72,1.69,1.69,0,0,0-1.56-.11,1.43,1.43,0,0,0-.52.39,1.73,1.73,0,0,0-.35.66,3.22,3.22,0,0,0,0,1.81,1.77,1.77,0,0,0,.36.68,1.58,1.58,0,0,0,.53.4,1.76,1.76,0,0,0,.66.13A1.57,1.57,0,0,0,14.51,26,2.76,2.76,0,0,0,14.73,24.78Z"/><path class="cls-4" d="M22,25.88a1.42,1.42,0,0,1-.14.61,2.09,2.09,0,0,1-.43.65,2.31,2.31,0,0,1-.76.51,2.77,2.77,0,0,1-1.08.2,3.63,3.63,0,0,1-.85-.09,2.55,2.55,0,0,1-.7-.27,2.23,2.23,0,0,1-.57-.5,2.64,2.64,0,0,1-.4-.62,3.07,3.07,0,0,1-.25-.74,3.65,3.65,0,0,1-.08-.83,3.85,3.85,0,0,1,.2-1.27,2.74,2.74,0,0,1,.6-1,2.56,2.56,0,0,1,.91-.61,2.87,2.87,0,0,1,1.1-.21,2.77,2.77,0,0,1,1.28.29,2.34,2.34,0,0,1,.86.7,1.43,1.43,0,0,1,.3.8.49.49,0,0,1-.15.36.44.44,0,0,1-.35.16.48.48,0,0,1-.34-.11,1.36,1.36,0,0,1-.26-.37,1.75,1.75,0,0,0-.55-.66,1.38,1.38,0,0,0-.78-.22,1.41,1.41,0,0,0-1.17.56A2.51,2.51,0,0,0,18,24.84,2.94,2.94,0,0,0,18.14,26a1.4,1.4,0,0,0,.55.68,1.52,1.52,0,0,0,.83.23,1.45,1.45,0,0,0,.87-.26,1.52,1.52,0,0,0,.54-.75,1.5,1.5,0,0,1,.19-.38.43.43,0,0,1,.36-.15.5.5,0,0,1,.37.15A.51.51,0,0,1,22,25.88Z"/><path class="cls-5" d="M23.64,8.6h6.45L21.49,0V6.45A2.16,2.16,0,0,0,23.64,8.6Z"/><path class="cls-6" d="M25.59,12.19H7.76a.66.66,0,0,1,0-1.32H25.59a.66.66,0,0,1,0,1.32Z"/><path class="cls-6" d="M25.59,15.46H7.76a.66.66,0,0,1,0-1.32H25.59a.66.66,0,0,1,0,1.32Z"/><polygon class="cls-3" points="30.09 15.04 23.64 8.6 30.09 8.6 30.09 15.04"/></g></g></svg>