<svg xmlns="http://www.w3.org/2000/svg" viewBox="0 0 30.09 34.38"><defs><style>.cls-1{fill:#e2e5e7;}.cls-2{fill:#b0b7bd;}.cls-3{fill:#cad1d8;}.cls-4{fill:#556080;}.cls-5{fill:#fff;}.cls-6{fill:#64798a;}</style></defs><g id="Layer_2" data-name="Layer 2"><g id="Layer_1-2" data-name="Layer 1"><path class="cls-1" d="M6.45,0A2.16,2.16,0,0,0,4.3,2.15V32.24a2.15,2.15,0,0,0,2.15,2.14H27.94a2.15,2.15,0,0,0,2.15-2.14V8.6L21.49,0Z"/><path class="cls-2" d="M23.64,8.6h6.45L21.49,0V6.45A2.16,2.16,0,0,0,23.64,8.6Z"/><polygon class="cls-3" points="30.09 15.04 23.64 8.6 30.09 8.6 30.09 15.04"/><path class="cls-4" d="M25.79,29.94A1.07,1.07,0,0,1,24.71,31H1.07A1.07,1.07,0,0,1,0,29.94V19.19a1.07,1.07,0,0,1,1.07-1.07H24.71a1.07,1.07,0,0,1,1.08,1.07Z"/><path class="cls-3" d="M24.71,31H4.3v1.08H24.71A1.08,1.08,0,0,0,25.79,31V29.94A1.07,1.07,0,0,1,24.71,31Z"/><path class="cls-5" d="M6.08,26.37l3-3.63H6.51a.64.64,0,0,1-.42-.12A.42.42,0,0,1,6,22.3.42.42,0,0,1,6.09,22a.59.59,0,0,1,.42-.13H9.87c.43,0,.65.21.65.61a.87.87,0,0,1-.11.46,4.31,4.31,0,0,1-.44.56L7.13,26.85h3.13a.64.64,0,0,1,.42.12.38.38,0,0,1,.13.32.42.42,0,0,1-.13.33.59.59,0,0,1-.42.13H6.43a.83.83,0,0,1-.59-.18.59.59,0,0,1-.2-.47.57.57,0,0,1,0-.18.51.51,0,0,1,.09-.16c0-.05.09-.11.15-.19Z"/><path class="cls-5" d="M11.62,27.12V22.47a.8.8,0,0,1,.16-.55.6.6,0,0,1,.86,0,.74.74,0,0,1,.17.55v4.65a.74.74,0,0,1-.17.55.55.55,0,0,1-.43.18.57.57,0,0,1-.43-.18A.82.82,0,0,1,11.62,27.12Z"/><path class="cls-5" d="M16.44,25.45H15.35v1.67a.78.78,0,0,1-.17.54.56.56,0,0,1-.43.19.57.57,0,0,1-.44-.18.79.79,0,0,1-.16-.54V22.58a.75.75,0,0,1,.18-.57.84.84,0,0,1,.58-.17h1.53a3.94,3.94,0,0,1,1,.11,1.59,1.59,0,0,1,.63.33,1.64,1.64,0,0,1,.4.57,2.07,2.07,0,0,1,.13.77A1.67,1.67,0,0,1,18.1,25,2.53,2.53,0,0,1,16.44,25.45Zm-.29-2.71h-.8v1.81h.8a2.41,2.41,0,0,0,.71-.09.85.85,0,0,0,.43-.29.88.88,0,0,0,.15-.53.88.88,0,0,0-.23-.64A1.54,1.54,0,0,0,16.15,22.74Z"/><rect class="cls-6" x="14.39" width="1.8" height="1.8"/><rect class="cls-6" x="16.19" y="1.8" width="1.8" height="1.8"/><rect class="cls-6" x="14.39" y="3.6" width="1.8" height="1.8"/><rect class="cls-6" x="16.19" y="5.4" width="1.8" height="1.8"/><rect class="cls-6" x="14.39" y="7.2" width="1.8" height="1.8"/><rect class="cls-6" x="16.19" y="9" width="1.8" height="1.8"/><path class="cls-6" d="M16.19,15.46h0a1.81,1.81,0,0,1-1.8-1.8v-1.8H18v1.8A1.8,1.8,0,0,1,16.19,15.46Z"/></g></g></svg>